<?xml version="1.0" encoding="UTF-8"?>
<!DOCTYPE svg PUBLIC "-//W3C//DTD SVG 1.1//EN" "http://www.w3.org/Graphics/SVG/1.1/DTD/svg11.dtd">
<svg xmlns="http://www.w3.org/2000/svg" version="1.1" width="896px" height="814px" style="shape-rendering:geometricPrecision; text-rendering:geometricPrecision; image-rendering:optimizeQuality; fill-rule:evenodd; clip-rule:evenodd" xmlns:xlink="http://www.w3.org/1999/xlink">
<g><path style="opacity:1" fill="#91affe" d="M 842.5,337.5 C 840.181,337.992 838.181,338.992 836.5,340.5C 835.515,344.634 835.182,348.968 835.5,353.5C 834.9,384.685 834.734,416.018 835,447.5C 852.661,476.638 857.495,507.804 849.5,541C 866.628,573.432 879.128,607.599 887,643.5C 892.392,702.217 868.225,743.717 814.5,768C 749.932,787.032 697.432,769.865 657,716.5C 585.695,778.712 502.529,806.212 407.5,799C 346.006,792.399 290.34,771.065 240.5,735C 222.23,719.898 205.896,703.065 191.5,684.5C 191.167,683.167 190.833,683.167 190.5,684.5C 188.622,683.066 187.955,681.399 188.5,679.5C 187.488,678.128 186.488,676.795 185.5,675.5C 184.525,673.205 183.192,671.205 181.5,669.5C 180.649,667.118 179.316,665.118 177.5,663.5C 152.544,621.659 142.377,576.325 147,527.5C 149.246,502.024 152.579,476.69 157,451.5C 157.252,431.424 157.752,411.59 158.5,392C 125.301,375.236 91.6348,359.236 57.5,344C 45.6834,338.93 34.6834,332.597 24.5,325C 1.95778,303.979 -4.20888,278.813 6,249.5C 12.2858,235.214 22.1191,224.047 35.5,216C 94.7619,185.261 153.429,153.594 211.5,121C 274.484,88.1759 337.15,54.8426 399.5,21C 421.289,10.3115 443.622,8.97821 466.5,17C 556.769,63.6306 646.769,110.631 736.5,158C 777.209,177.855 817.542,198.521 857.5,220C 882.686,241.904 889.853,268.737 879,300.5C 871.34,317.326 859.174,329.659 842.5,337.5 Z"/></g>
<g><path style="opacity:1" fill="#595b5f" d="M 428.5,60.5 C 433.65,59.3493 438.984,59.1826 444.5,60C 445.416,60.2784 446.082,60.7784 446.5,61.5C 440.545,60.6365 434.545,60.3032 428.5,60.5 Z"/></g>
<g><path style="opacity:1" fill="#010c11" d="M 428.5,60.5 C 434.545,60.3032 440.545,60.6365 446.5,61.5C 575.196,128.933 704.03,196.266 833,263.5C 833.847,265.193 834.68,266.86 835.5,268.5C 835.628,272.881 835.295,277.215 834.5,281.5C 832.4,284.104 830.067,286.604 827.5,289C 814.474,295.181 801.474,301.347 788.5,307.5C 788.167,307.5 787.833,307.5 787.5,307.5C 784.515,308.326 781.849,309.659 779.5,311.5C 771.556,314.975 763.889,318.642 756.5,322.5C 755.508,322.328 754.842,322.662 754.5,323.5C 750.849,324.659 747.515,326.326 744.5,328.5C 740.042,330.229 735.709,332.229 731.5,334.5C 729.545,335.323 727.545,335.49 725.5,335C 709.123,327.978 693.123,320.145 677.5,311.5C 699.383,301.433 721.383,291.766 743.5,282.5C 748.02,280.074 752.687,277.907 757.5,276C 759.79,274.223 761.457,272.056 762.5,269.5C 764.869,263.189 763.202,258.023 757.5,254C 753.625,252.48 749.625,252.146 745.5,253C 712.62,268.126 679.62,282.959 646.5,297.5C 595.273,272.889 543.94,248.222 492.5,223.5C 492.593,217.137 492.26,210.804 491.5,204.5C 491.139,200.085 489.806,196.085 487.5,192.5C 486.921,189.669 485.588,187.336 483.5,185.5C 482.246,182.907 480.58,180.573 478.5,178.5C 476.984,174.323 473.984,171.989 469.5,171.5C 451.038,160.461 432.038,159.627 412.5,169C 406.336,172.665 401.336,177.498 397.5,183.5C 392.851,186.865 390.184,191.532 389.5,197.5C 387.926,199.102 387.259,201.102 387.5,203.5C 385.981,206.526 385.315,209.859 385.5,213.5C 385.503,216.025 385.837,218.359 386.5,220.5C 386.808,226.353 387.975,232.019 390,237.5C 390.949,239.093 392.115,240.426 393.5,241.5C 394.956,246.293 397.623,250.293 401.5,253.5C 413.827,266.93 429.16,272.097 447.5,269C 450.251,268.057 452.917,267.224 455.5,266.5C 457.435,265.85 459.435,265.517 461.5,265.5C 461.369,266.376 461.702,267.043 462.5,267.5C 470.169,271.32 477.836,274.987 485.5,278.5C 487.456,279.492 489.456,280.492 491.5,281.5C 494.378,283.105 497.378,284.439 500.5,285.5C 505.201,288.404 510.201,290.737 515.5,292.5C 516.514,293.674 517.847,294.34 519.5,294.5C 524.696,297.514 530.029,300.347 535.5,303C 537.518,303.505 539.518,304.005 541.5,304.5C 549.787,309.31 558.453,313.643 567.5,317.5C 578.926,324.211 590.926,329.878 603.5,334.5C 606.144,336.723 609.144,338.389 612.5,339.5C 623.752,345.027 635.085,350.361 646.5,355.5C 651.24,358.534 656.24,361.201 661.5,363.5C 658.593,366.3 655.26,368.633 651.5,370.5C 643.531,373.151 636.198,376.818 629.5,381.5C 625.675,382.074 622.009,383.241 618.5,385C 612.136,388.514 605.803,392.014 599.5,395.5C 596.519,395.182 594.185,396.182 592.5,398.5C 588.407,399.382 584.74,401.049 581.5,403.5C 573.088,406.952 565.088,410.952 557.5,415.5C 551.656,416.757 546.323,419.091 541.5,422.5C 533.43,425.369 525.763,429.035 518.5,433.5C 515.088,434.075 512.088,435.408 509.5,437.5C 495.316,443.871 481.316,450.538 467.5,457.5C 461.369,459.328 455.702,461.995 450.5,465.5C 446.056,466.889 441.723,468.556 437.5,470.5C 435.072,468.957 432.406,467.957 429.5,467.5C 429.047,466.542 428.381,465.708 427.5,465C 416.133,459.932 404.8,454.765 393.5,449.5C 391.058,447.874 388.391,446.541 385.5,445.5C 383.211,443.613 380.545,442.279 377.5,441.5C 369.238,437.791 361.238,433.791 353.5,429.5C 348.701,425.205 343.034,422.538 336.5,421.5C 332.164,419.496 327.831,417.496 323.5,415.5C 323.047,414.542 322.381,413.708 321.5,413C 313.531,409.054 305.531,405.054 297.5,401C 296.207,400.51 294.873,400.343 293.5,400.5C 274.13,391.201 254.463,382.201 234.5,373.5C 225.777,367.649 216.443,362.982 206.5,359.5C 165.974,339.737 125.308,320.237 84.5,301C 76.6509,297.273 68.6509,293.94 60.5,291C 48.0156,282.549 46.349,272.549 55.5,261C 179.865,194.152 304.198,127.319 428.5,60.5 Z"/></g>
<g><path style="opacity:1" fill="#fdfaf9" d="M 469.5,171.5 C 469.833,172.5 470.5,173.167 471.5,173.5C 472.512,176.257 473.512,178.924 474.5,181.5C 475.194,191.124 470.861,196.457 461.5,197.5C 448.615,189.417 435.948,189.584 423.5,198C 420.619,200.279 418.619,203.112 417.5,206.5C 414.965,210.355 413.965,214.688 414.5,219.5C 414.039,227.131 410.039,230.631 402.5,230C 400.677,229.003 399.01,227.836 397.5,226.5C 392.079,217.643 390.079,207.976 391.5,197.5C 393.463,192.897 395.463,188.23 397.5,183.5C 401.336,177.498 406.336,172.665 412.5,169C 432.038,159.627 451.038,160.461 469.5,171.5 Z"/></g>
<g><path style="opacity:1" fill="#370a07" d="M 469.5,171.5 C 473.984,171.989 476.984,174.323 478.5,178.5C 476.427,176.42 474.093,174.754 471.5,173.5C 470.5,173.167 469.833,172.5 469.5,171.5 Z"/></g>
<g><path style="opacity:1" fill="#9b1d15" d="M 471.5,173.5 C 474.093,174.754 476.427,176.42 478.5,178.5C 480.58,180.573 482.246,182.907 483.5,185.5C 480.536,183.038 477.703,180.371 475,177.5C 474.51,178.793 474.343,180.127 474.5,181.5C 473.512,178.924 472.512,176.257 471.5,173.5 Z"/></g>
<g><path style="opacity:1" fill="#902a26" d="M 397.5,183.5 C 395.463,188.23 393.463,192.897 391.5,197.5C 391.631,196.761 391.464,196.094 391,195.5C 390.722,196.416 390.222,197.082 389.5,197.5C 390.184,191.532 392.851,186.865 397.5,183.5 Z"/></g>
<g><path style="opacity:1" fill="#681412" d="M 487.5,192.5 C 489.806,196.085 491.139,200.085 491.5,204.5C 489.589,200.767 488.256,196.767 487.5,192.5 Z"/></g>
<g><path style="opacity:1" fill="#db2817" d="M 461.5,197.5 C 459.213,200.616 456.38,203.283 453,205.5C 449.393,211.663 447.393,218.33 447,225.5C 438.699,244.276 424.199,253.609 403.5,253.5C 402.833,253.5 402.167,253.5 401.5,253.5C 397.623,250.293 394.956,246.293 393.5,241.5C 392.014,237.188 390.514,232.854 389,228.5C 388.333,225.5 388.333,222.5 389,219.5C 390.135,219.727 391.302,220.06 392.5,220.5C 393.747,222.042 393.747,223.542 392.5,225C 393.74,227.473 395.407,227.973 397.5,226.5C 399.01,227.836 400.677,229.003 402.5,230C 410.039,230.631 414.039,227.131 414.5,219.5C 415.402,215.245 416.402,210.911 417.5,206.5C 418.619,203.112 420.619,200.279 423.5,198C 435.948,189.584 448.615,189.417 461.5,197.5 Z"/></g>
<g><path style="opacity:1" fill="#600b0e" d="M 387.5,203.5 C 386.708,209.13 386.375,214.797 386.5,220.5C 385.837,218.359 385.503,216.025 385.5,213.5C 385.315,209.859 385.981,206.526 387.5,203.5 Z"/></g>
<g><path style="opacity:1" fill="#d46a5b" d="M 417.5,206.5 C 416.402,210.911 415.402,215.245 414.5,219.5C 413.965,214.688 414.965,210.355 417.5,206.5 Z"/></g>
<g><path style="opacity:1" fill="#c73425" d="M 391.5,197.5 C 390.079,207.976 392.079,217.643 397.5,226.5C 395.407,227.973 393.74,227.473 392.5,225C 393.747,223.542 393.747,222.042 392.5,220.5C 391.302,220.06 390.135,219.727 389,219.5C 388.333,222.5 388.333,225.5 389,228.5C 390.514,232.854 392.014,237.188 393.5,241.5C 392.115,240.426 390.949,239.093 390,237.5C 387.975,232.019 386.808,226.353 386.5,220.5C 386.375,214.797 386.708,209.13 387.5,203.5C 387.259,201.102 387.926,199.102 389.5,197.5C 390.222,197.082 390.722,196.416 391,195.5C 391.464,196.094 391.631,196.761 391.5,197.5 Z"/></g>
<g><path style="opacity:1" fill="#ae1001" d="M 483.5,185.5 C 485.588,187.336 486.921,189.669 487.5,192.5C 488.256,196.767 489.589,200.767 491.5,204.5C 492.26,210.804 492.593,217.137 492.5,223.5C 491.434,229.642 489.767,235.642 487.5,241.5C 481.066,251.935 472.399,259.935 461.5,265.5C 459.435,265.517 457.435,265.85 455.5,266.5C 450.146,266.471 444.813,266.805 439.5,267.5C 431.713,267.502 424.379,266.002 417.5,263C 418.579,262.044 419.745,261.211 421,260.5C 421.688,259.668 421.521,259.002 420.5,258.5C 416.223,258.079 411.89,257.912 407.5,258C 405.959,256.629 404.625,255.129 403.5,253.5C 424.199,253.609 438.699,244.276 447,225.5C 447.393,218.33 449.393,211.663 453,205.5C 456.38,203.283 459.213,200.616 461.5,197.5C 470.861,196.457 475.194,191.124 474.5,181.5C 474.343,180.127 474.51,178.793 475,177.5C 477.703,180.371 480.536,183.038 483.5,185.5 Z"/></g>
<g><path style="opacity:1" fill="#fcfafa" d="M 492.5,223.5 C 543.94,248.222 595.273,272.889 646.5,297.5C 679.62,282.959 712.62,268.126 745.5,253C 749.625,252.146 753.625,252.48 757.5,254C 763.202,258.023 764.869,263.189 762.5,269.5C 762.565,269.062 762.399,268.728 762,268.5C 757.129,270.352 752.629,272.852 748.5,276C 746.21,277.777 744.543,279.944 743.5,282.5C 721.383,291.766 699.383,301.433 677.5,311.5C 693.123,320.145 709.123,327.978 725.5,335C 727.545,335.49 729.545,335.323 731.5,334.5C 732.272,339.544 734.272,344.044 737.5,348C 734.593,351.395 731.927,354.895 729.5,358.5C 648.355,319.924 567.688,280.924 487.5,241.5C 489.767,235.642 491.434,229.642 492.5,223.5 Z"/></g>
<g><path style="opacity:1" fill="#fafbfb" d="M 210.5,260.5 C 216.233,259.895 221.566,261.062 226.5,264C 295.646,298.404 365.312,332.071 435.5,365C 437.5,365.667 439.5,365.667 441.5,365C 471.336,351.72 501.003,338.054 530.5,324C 545.622,324.766 550.122,331.932 544,345.5C 511.301,361.932 478.134,377.432 444.5,392C 440.833,392.667 437.167,392.667 433.5,392C 358.185,355.88 282.852,319.547 207.5,283C 200.232,274.374 201.232,266.874 210.5,260.5 Z"/></g>
<g><path style="opacity:1" fill="#9c140a" d="M 401.5,253.5 C 402.167,253.5 402.833,253.5 403.5,253.5C 404.625,255.129 405.959,256.629 407.5,258C 411.89,257.912 416.223,258.079 420.5,258.5C 421.521,259.002 421.688,259.668 421,260.5C 419.745,261.211 418.579,262.044 417.5,263C 424.379,266.002 431.713,267.502 439.5,267.5C 444.813,266.805 450.146,266.471 455.5,266.5C 452.917,267.224 450.251,268.057 447.5,269C 429.16,272.097 413.827,266.93 401.5,253.5 Z"/></g>
<g><path style="opacity:1" fill="#96aef2" d="M 762.5,269.5 C 761.457,272.056 759.79,274.223 757.5,276C 752.687,277.907 748.02,280.074 743.5,282.5C 744.543,279.944 746.21,277.777 748.5,276C 752.629,272.852 757.129,270.352 762,268.5C 762.399,268.728 762.565,269.062 762.5,269.5 Z"/></g>
<g><path style="opacity:1" fill="#888b94" d="M 835.5,268.5 C 836.161,270.134 836.494,271.967 836.5,274C 836.7,276.866 836.033,279.366 834.5,281.5C 835.295,277.215 835.628,272.881 835.5,268.5 Z"/></g>
<g><path style="opacity:1" fill="#791611" d="M 485.5,278.5 C 488.313,278.025 490.313,279.025 491.5,281.5C 489.456,280.492 487.456,279.492 485.5,278.5 Z"/></g>
<g><path style="opacity:1" fill="#b0291b" d="M 500.5,285.5 C 504.75,285.791 508.75,286.957 512.5,289C 513.71,290.039 514.71,291.206 515.5,292.5C 510.201,290.737 505.201,288.404 500.5,285.5 Z"/></g>
<g><path style="opacity:1" fill="#a82319" d="M 519.5,294.5 C 527.72,296.118 535.054,299.452 541.5,304.5C 539.518,304.005 537.518,303.505 535.5,303C 530.029,300.347 524.696,297.514 519.5,294.5 Z"/></g>
<g><path style="opacity:1" fill="#d72817" d="M 487.5,241.5 C 567.688,280.924 648.355,319.924 729.5,358.5C 731.181,360.008 733.181,361.008 735.5,361.5C 735.833,361.5 736.167,361.5 736.5,361.5C 736.973,362.906 737.973,363.573 739.5,363.5C 740.5,363.833 741.167,364.5 741.5,365.5C 741.427,367.027 742.094,368.027 743.5,368.5C 744.761,373.842 744.761,379.175 743.5,384.5C 742.026,385.436 741.026,386.77 740.5,388.5C 738.463,389.846 736.463,391.18 734.5,392.5C 733.833,392.5 733.167,392.5 732.5,392.5C 729.482,392.665 726.482,392.498 723.5,392C 721.073,390.409 718.407,389.575 715.5,389.5C 709.071,385.619 702.404,382.285 695.5,379.5C 695.586,378.504 695.252,377.671 694.5,377C 691.883,376.178 689.216,375.678 686.5,375.5C 685.486,374.326 684.153,373.66 682.5,373.5C 679.897,372.256 677.564,370.589 675.5,368.5C 674.022,364.842 671.522,363.842 668,365.5C 666.594,364.586 665.094,363.92 663.5,363.5C 662.833,363.5 662.167,363.5 661.5,363.5C 661.5,362.5 661.5,361.5 661.5,360.5C 656.827,358.053 651.827,356.387 646.5,355.5C 635.085,350.361 623.752,345.027 612.5,339.5C 610.168,336.728 607.168,335.061 603.5,334.5C 599.126,331.659 594.459,328.992 589.5,326.5C 582.389,322.944 575.056,319.944 567.5,317.5C 558.453,313.643 549.787,309.31 541.5,304.5C 535.054,299.452 527.72,296.118 519.5,294.5C 517.847,294.34 516.514,293.674 515.5,292.5C 514.71,291.206 513.71,290.039 512.5,289C 508.75,286.957 504.75,285.791 500.5,285.5C 497.378,284.439 494.378,283.105 491.5,281.5C 490.313,279.025 488.313,278.025 485.5,278.5C 477.836,274.987 470.169,271.32 462.5,267.5C 461.702,267.043 461.369,266.376 461.5,265.5C 472.399,259.935 481.066,251.935 487.5,241.5 Z"/></g>
<g><path style="opacity:1" fill="#dc2514" d="M 779.5,467.5 C 777.302,466.835 774.969,466.168 772.5,465.5C 772.069,464.707 771.735,463.873 771.5,463C 772.777,461.112 773.777,459.112 774.5,457C 773.365,452.252 773.198,447.419 774,442.5C 774.333,442.167 774.667,441.833 775,441.5C 775.49,442.793 775.657,444.127 775.5,445.5C 777.5,445.5 779.5,445.5 781.5,445.5C 781.681,440.041 782.348,434.708 783.5,429.5C 783.565,426.375 783.065,423.375 782,420.5C 781.501,425.489 781.334,430.489 781.5,435.5C 780.167,435.5 778.833,435.5 777.5,435.5C 777.62,432.795 776.62,432.128 774.5,433.5C 773.167,429.5 773.167,425.5 774.5,421.5C 776.127,430.744 777.127,430.744 777.5,421.5C 781.5,420.833 781.5,420.167 777.5,419.5C 777.688,417.897 777.188,416.563 776,415.5C 774.951,417.107 773.451,417.773 771.5,417.5C 771.5,414.833 771.5,412.167 771.5,409.5C 772.833,409.5 774.167,409.5 775.5,409.5C 775.343,410.873 775.51,412.207 776,413.5C 777.375,411.063 777.875,408.397 777.5,405.5C 781.5,404.833 781.5,404.167 777.5,403.5C 777.688,401.897 777.188,400.563 776,399.5C 774.951,401.107 773.451,401.773 771.5,401.5C 771.917,398.657 772.917,395.99 774.5,393.5C 775.281,394.729 775.781,396.062 776,397.5C 777.375,395.063 777.875,392.397 777.5,389.5C 781.5,388.833 781.5,388.167 777.5,387.5C 777.529,384.227 776.196,383.56 773.5,385.5C 771.666,384.246 769.666,383.579 767.5,383.5C 767.5,378.833 767.5,374.167 767.5,369.5C 769.5,369.5 771.5,369.5 773.5,369.5C 773.827,364.786 773.493,360.12 772.5,355.5C 770.483,352.45 769.483,349.117 769.5,345.5C 770.833,345.5 772.167,345.5 773.5,345.5C 773.5,342.833 773.5,340.167 773.5,337.5C 768.5,337.5 763.5,337.5 758.5,337.5C 758.173,332.456 758.506,327.456 759.5,322.5C 766.079,320.081 772.412,317.081 778.5,313.5C 779.298,313.043 779.631,312.376 779.5,311.5C 781.861,311.326 784.194,310.993 786.5,310.5C 786.833,363.837 786.5,417.171 785.5,470.5C 783.22,469.864 781.22,468.864 779.5,467.5 Z"/></g>
<g><path style="opacity:1" fill="#aa231a" d="M 567.5,317.5 C 575.056,319.944 582.389,322.944 589.5,326.5C 594.459,328.992 599.126,331.659 603.5,334.5C 590.926,329.878 578.926,324.211 567.5,317.5 Z"/></g>
<g><path style="opacity:1" fill="#dcd8e6" d="M 754.5,323.5 C 756.495,370.822 757.162,418.488 756.5,466.5C 755.667,419.668 755.167,372.668 755,325.5C 754.667,325.167 754.333,324.833 754,324.5C 751.104,326.533 747.937,327.866 744.5,328.5C 747.515,326.326 750.849,324.659 754.5,323.5 Z"/></g>
<g><path style="opacity:1" fill="#bb291c" d="M 779.5,311.5 C 779.631,312.376 779.298,313.043 778.5,313.5C 772.412,317.081 766.079,320.081 759.5,322.5C 758.506,327.456 758.173,332.456 758.5,337.5C 758.5,380.5 758.5,423.5 758.5,466.5C 763.032,466.182 767.366,466.515 771.5,467.5C 766.833,467.5 762.167,467.5 757.5,467.5C 757.832,418.997 757.499,370.664 756.5,322.5C 763.889,318.642 771.556,314.975 779.5,311.5 Z"/></g>
<g><path style="opacity:1" fill="#a7271e" d="M 603.5,334.5 C 607.168,335.061 610.168,336.728 612.5,339.5C 609.144,338.389 606.144,336.723 603.5,334.5 Z"/></g>
<g><path style="opacity:0.839" fill="#a8a8a6" d="M 842.5,337.5 C 839.592,342.643 837.259,347.976 835.5,353.5C 835.182,348.968 835.515,344.634 836.5,340.5C 838.181,338.992 840.181,337.992 842.5,337.5 Z"/></g>
<g><path style="opacity:1" fill="#d72616" d="M 758.5,337.5 C 763.5,337.5 768.5,337.5 773.5,337.5C 773.5,340.167 773.5,342.833 773.5,345.5C 772.167,345.5 770.833,345.5 769.5,345.5C 769.483,349.117 770.483,352.45 772.5,355.5C 773.493,360.12 773.827,364.786 773.5,369.5C 771.5,369.5 769.5,369.5 767.5,369.5C 767.5,374.167 767.5,378.833 767.5,383.5C 769.666,383.579 771.666,384.246 773.5,385.5C 776.196,383.56 777.529,384.227 777.5,387.5C 781.5,388.167 781.5,388.833 777.5,389.5C 777.875,392.397 777.375,395.063 776,397.5C 775.781,396.062 775.281,394.729 774.5,393.5C 772.917,395.99 771.917,398.657 771.5,401.5C 773.451,401.773 774.951,401.107 776,399.5C 777.188,400.563 777.688,401.897 777.5,403.5C 781.5,404.167 781.5,404.833 777.5,405.5C 777.875,408.397 777.375,411.063 776,413.5C 775.51,412.207 775.343,410.873 775.5,409.5C 774.167,409.5 772.833,409.5 771.5,409.5C 771.5,412.167 771.5,414.833 771.5,417.5C 773.451,417.773 774.951,417.107 776,415.5C 777.188,416.563 777.688,417.897 777.5,419.5C 781.5,420.167 781.5,420.833 777.5,421.5C 777.127,430.744 776.127,430.744 774.5,421.5C 773.167,425.5 773.167,429.5 774.5,433.5C 776.62,432.128 777.62,432.795 777.5,435.5C 778.833,435.5 780.167,435.5 781.5,435.5C 781.334,430.489 781.501,425.489 782,420.5C 783.065,423.375 783.565,426.375 783.5,429.5C 782.348,434.708 781.681,440.041 781.5,445.5C 779.5,445.5 777.5,445.5 775.5,445.5C 775.657,444.127 775.49,442.793 775,441.5C 774.667,441.833 774.333,442.167 774,442.5C 773.198,447.419 773.365,452.252 774.5,457C 773.777,459.112 772.777,461.112 771.5,463C 771.735,463.873 772.069,464.707 772.5,465.5C 774.969,466.168 777.302,466.835 779.5,467.5C 778.167,467.5 776.833,467.5 775.5,467.5C 774.167,467.5 772.833,467.5 771.5,467.5C 767.366,466.515 763.032,466.182 758.5,466.5C 758.5,423.5 758.5,380.5 758.5,337.5 Z"/></g>
<g><path style="opacity:1" fill="#ae281a" d="M 646.5,355.5 C 651.827,356.387 656.827,358.053 661.5,360.5C 661.5,361.5 661.5,362.5 661.5,363.5C 656.24,361.201 651.24,358.534 646.5,355.5 Z"/></g>
<g><path style="opacity:1" fill="#f4acad" d="M 729.5,358.5 C 732.089,358.461 734.089,359.461 735.5,361.5C 733.181,361.008 731.181,360.008 729.5,358.5 Z"/></g>
<g><path style="opacity:1" fill="#f1ccd2" d="M 736.5,361.5 C 738.027,361.427 739.027,362.094 739.5,363.5C 737.973,363.573 736.973,362.906 736.5,361.5 Z"/></g>
<g><path style="opacity:1" fill="#80180f" d="M 661.5,363.5 C 662.167,363.5 662.833,363.5 663.5,363.5C 663.489,365.017 662.823,366.184 661.5,367C 658.439,369.035 655.105,370.201 651.5,370.5C 655.26,368.633 658.593,366.3 661.5,363.5 Z"/></g>
<g><path style="opacity:1" fill="#ed9f9a" d="M 741.5,365.5 C 742.906,365.973 743.573,366.973 743.5,368.5C 742.094,368.027 741.427,367.027 741.5,365.5 Z"/></g>
<g><path style="opacity:1" fill="#af1301" d="M 663.5,363.5 C 665.094,363.92 666.594,364.586 668,365.5C 671.522,363.842 674.022,364.842 675.5,368.5C 674.833,368.5 674.167,368.5 673.5,368.5C 672.791,367.596 671.791,367.263 670.5,367.5C 670.5,382.833 670.5,398.167 670.5,413.5C 666.277,415.979 661.944,418.313 657.5,420.5C 623.385,435.344 589.385,451.01 555.5,467.5C 552.132,467.655 549.465,468.988 547.5,471.5C 530.367,478.338 513.7,486.005 497.5,494.5C 477.606,503.492 457.606,512.492 437.5,521.5C 437.5,512.833 437.5,504.167 437.5,495.5C 438.813,487.599 438.813,479.599 437.5,471.5C 442.506,470.829 446.839,468.829 450.5,465.5C 457.225,464.721 462.891,462.055 467.5,457.5C 468.873,457.657 470.207,457.49 471.5,457C 477.046,454.06 482.713,451.394 488.5,449C 490.112,448.28 491.612,448.446 493,449.5C 493.483,448.552 493.649,447.552 493.5,446.5C 498.286,443.944 503.286,441.61 508.5,439.5C 509.298,439.043 509.631,438.376 509.5,437.5C 512.088,435.408 515.088,434.075 518.5,433.5C 521.875,433.233 525.042,432.233 528,430.5C 529.368,431.703 530.868,432.703 532.5,433.5C 533.635,431.293 534.301,428.96 534.5,426.5C 536.527,426.662 538.527,426.495 540.5,426C 541.337,424.989 541.67,423.822 541.5,422.5C 547.344,421.243 552.677,418.909 557.5,415.5C 565.088,410.952 573.088,406.952 581.5,403.5C 585.836,403.163 589.503,401.496 592.5,398.5C 594.185,396.182 596.519,395.182 599.5,395.5C 600.873,395.657 602.207,395.49 603.5,395C 611.901,389.823 620.568,385.323 629.5,381.5C 636.198,376.818 643.531,373.151 651.5,370.5C 655.105,370.201 658.439,369.035 661.5,367C 662.823,366.184 663.489,365.017 663.5,363.5 Z"/></g>
<g><path style="opacity:1" fill="#c44335" d="M 206.5,359.5 C 216.443,362.982 225.777,367.649 234.5,373.5C 229.521,372.481 225.188,370.314 221.5,367C 217.238,365.191 212.904,363.691 208.5,362.5C 208.334,370.174 208.5,377.841 209,385.5C 210.729,385.974 211.895,386.974 212.5,388.5C 211.833,388.5 211.167,388.5 210.5,388.5C 209.469,387.751 208.302,387.085 207,386.5C 206.5,377.506 206.334,368.506 206.5,359.5 Z"/></g>
<g><path style="opacity:1" fill="#f7d9d5" d="M 673.5,368.5 C 674.167,368.5 674.833,368.5 675.5,368.5C 677.564,370.589 679.897,372.256 682.5,373.5C 678.929,372.358 675.262,371.691 671.5,371.5C 671.285,369.821 671.952,368.821 673.5,368.5 Z"/></g>
<g><path style="opacity:1" fill="#df827e" d="M 743.5,368.5 C 745.047,370.807 745.713,373.473 745.5,376.5C 745.713,379.527 745.047,382.193 743.5,384.5C 744.761,379.175 744.761,373.842 743.5,368.5 Z"/></g>
<g><path style="opacity:1" fill="#bf2115" d="M 787.5,307.5 C 788.162,362.51 787.496,417.177 785.5,471.5C 781.851,470.733 778.518,469.4 775.5,467.5C 776.833,467.5 778.167,467.5 779.5,467.5C 781.22,468.864 783.22,469.864 785.5,470.5C 786.5,417.171 786.833,363.837 786.5,310.5C 784.194,310.993 781.861,311.326 779.5,311.5C 781.849,309.659 784.515,308.326 787.5,307.5 Z"/></g>
<g><path style="opacity:1" fill="#dd645c" d="M 686.5,375.5 C 689.216,375.678 691.883,376.178 694.5,377C 695.252,377.671 695.586,378.504 695.5,379.5C 692.256,378.537 689.256,377.204 686.5,375.5 Z"/></g>
<g><path style="opacity:1" fill="#f69f93" d="M 673.5,368.5 C 671.952,368.821 671.285,369.821 671.5,371.5C 671.5,385.5 671.5,399.5 671.5,413.5C 671.167,413.5 670.833,413.5 670.5,413.5C 670.5,398.167 670.5,382.833 670.5,367.5C 671.791,367.263 672.791,367.596 673.5,368.5 Z"/></g>
<g><path style="opacity:1" fill="#efa6ad" d="M 743.5,384.5 C 743.446,386.632 742.446,387.965 740.5,388.5C 741.026,386.77 742.026,385.436 743.5,384.5 Z"/></g>
<g><path style="opacity:1" fill="#d26d69" d="M 787.5,307.5 C 787.833,307.5 788.167,307.5 788.5,307.5C 788.5,362.833 788.5,418.167 788.5,473.5C 787.29,473.068 786.29,472.401 785.5,471.5C 787.496,417.177 788.162,362.51 787.5,307.5 Z"/></g>
<g><path style="opacity:1" fill="#fcfbfb" d="M 210.5,388.5 C 211.167,388.5 211.833,388.5 212.5,388.5C 269.614,416.391 326.947,443.724 384.5,470.5C 401.977,479.07 419.643,487.403 437.5,495.5C 437.5,504.167 437.5,512.833 437.5,521.5C 360.584,486.877 284.251,450.877 208.5,413.5C 207.833,419.319 207.167,424.986 206.5,430.5C 206.779,424.285 205.779,418.285 203.5,412.5C 206.997,404.839 209.331,396.839 210.5,388.5 Z"/></g>
<g><path style="opacity:1" fill="#851e14" d="M 629.5,381.5 C 620.568,385.323 611.901,389.823 603.5,395C 602.207,395.49 600.873,395.657 599.5,395.5C 605.803,392.014 612.136,388.514 618.5,385C 622.009,383.241 625.675,382.074 629.5,381.5 Z"/></g>
<g><path style="opacity:1" fill="#f2c3c3" d="M 740.5,388.5 C 739.608,391.292 737.608,392.625 734.5,392.5C 736.463,391.18 738.463,389.846 740.5,388.5 Z"/></g>
<g><path style="opacity:1" fill="#d96662" d="M 715.5,389.5 C 718.407,389.575 721.073,390.409 723.5,392C 726.482,392.498 729.482,392.665 732.5,392.5C 726.352,394.318 720.686,393.318 715.5,389.5 Z"/></g>
<g><path style="opacity:1" fill="#d62818" d="M 234.5,373.5 C 254.463,382.201 274.13,391.201 293.5,400.5C 303.491,405.498 313.491,410.498 323.5,415.5C 327.831,417.496 332.164,419.496 336.5,421.5C 341.718,425.034 347.385,427.701 353.5,429.5C 361.238,433.791 369.238,437.791 377.5,441.5C 378.1,442.9 379.1,443.9 380.5,444.5C 375.713,442.609 370.713,441.609 365.5,441.5C 364.603,446.272 366.603,448.605 371.5,448.5C 372.938,451.823 374.771,452.156 377,449.5C 377.497,452.146 377.664,454.813 377.5,457.5C 373.481,457.354 369.481,457.021 365.5,456.5C 365.5,455.5 365.5,454.5 365.5,453.5C 364.167,453.5 362.833,453.5 361.5,453.5C 361.5,454.833 361.5,456.167 361.5,457.5C 362.833,457.5 364.167,457.5 365.5,457.5C 365.281,458.675 365.614,459.675 366.5,460.5C 371.051,462.395 375.718,463.895 380.5,465C 381.721,467.034 383.055,468.867 384.5,470.5C 326.947,443.724 269.614,416.391 212.5,388.5C 211.895,386.974 210.729,385.974 209,385.5C 208.5,377.841 208.334,370.174 208.5,362.5C 212.904,363.691 217.238,365.191 221.5,367C 225.188,370.314 229.521,372.481 234.5,373.5 Z"/></g>
<g><path style="opacity:1" fill="#811d15" d="M 592.5,398.5 C 589.503,401.496 585.836,403.163 581.5,403.5C 584.74,401.049 588.407,399.382 592.5,398.5 Z"/></g>
<g><path style="opacity:1" fill="#290907" d="M 293.5,400.5 C 294.873,400.343 296.207,400.51 297.5,401C 305.531,405.054 313.531,409.054 321.5,413C 322.381,413.708 323.047,414.542 323.5,415.5C 313.491,410.498 303.491,405.498 293.5,400.5 Z"/></g>
<g><path style="opacity:1" fill="#020c11" d="M 437.5,521.5 C 457.606,512.492 477.606,503.492 497.5,494.5C 501.857,495.204 505.357,493.87 508,490.5C 509.158,490.998 509.991,491.831 510.5,493C 509.852,494.44 509.519,495.94 509.5,497.5C 512.167,497.5 514.833,497.5 517.5,497.5C 517.232,494.881 517.565,492.381 518.5,490C 521.527,490.84 524.527,490.507 527.5,489C 525.941,488.02 524.274,487.187 522.5,486.5C 526.107,485.511 529.774,485.177 533.5,485.5C 533.5,483.167 533.5,480.833 533.5,478.5C 536.066,478.656 538.566,478.322 541,477.5C 542.713,478.137 542.879,479.137 541.5,480.5C 544.086,481.48 546.753,481.813 549.5,481.5C 549.5,484.167 549.5,486.833 549.5,489.5C 544.167,489.5 538.833,489.5 533.5,489.5C 533.5,492.167 533.5,494.833 533.5,497.5C 530.833,497.5 528.167,497.5 525.5,497.5C 525.5,500.167 525.5,502.833 525.5,505.5C 522.833,505.5 520.167,505.5 517.5,505.5C 517.5,508.167 517.5,510.833 517.5,513.5C 514.833,513.5 512.167,513.5 509.5,513.5C 509.5,518.833 509.5,524.167 509.5,529.5C 512.167,529.5 514.833,529.5 517.5,529.5C 517.5,526.833 517.5,524.167 517.5,521.5C 520.167,521.5 522.833,521.5 525.5,521.5C 525.5,518.833 525.5,516.167 525.5,513.5C 528.167,513.5 530.833,513.5 533.5,513.5C 533.5,516.167 533.5,518.833 533.5,521.5C 536.167,521.5 538.833,521.5 541.5,521.5C 541.5,524.167 541.5,526.833 541.5,529.5C 538.833,529.5 536.167,529.5 533.5,529.5C 533.5,534.833 533.5,540.167 533.5,545.5C 541.167,545.5 548.833,545.5 556.5,545.5C 556.5,548.167 556.5,550.833 556.5,553.5C 554.167,553.5 551.833,553.5 549.5,553.5C 549.5,556.167 549.5,558.833 549.5,561.5C 552.167,561.5 554.833,561.5 557.5,561.5C 557.5,564.167 557.5,566.833 557.5,569.5C 558.833,569.5 560.167,569.5 561.5,569.5C 559.545,558.605 558.379,545.605 558,530.5C 554.93,527.55 554.763,524.383 557.5,521C 556.498,519.234 556.832,517.567 558.5,516C 558.153,514.431 557.986,512.598 558,510.5C 559.232,513.3 559.899,516.3 560,519.5C 560.177,515.644 560.677,511.977 561.5,508.5C 562.334,527.851 563.501,547.185 565,566.5C 565.333,590.167 565.667,613.833 566,637.5C 570.287,645.729 576.454,647.563 584.5,643C 586.894,641.048 588.394,638.548 589,635.5C 590.521,593.069 589.188,550.735 585,508.5C 583.341,504.342 580.508,501.342 576.5,499.5C 576.56,498.957 576.893,498.624 577.5,498.5C 582.719,500.135 588.053,501.135 593.5,501.5C 593.5,509.5 593.5,517.5 593.5,525.5C 592.167,525.5 590.833,525.5 589.5,525.5C 590.886,530.217 591.886,535.051 592.5,540C 592.135,542.261 591.469,544.427 590.5,546.5C 591.183,549.461 592.016,549.795 593,547.5C 593.729,550.855 594.562,554.188 595.5,557.5C 593.121,570.589 592.454,583.756 593.5,597C 593.833,598.5 594.167,600 594.5,601.5C 595.97,596.27 596.637,590.937 596.5,585.5C 599.5,585.5 602.5,585.5 605.5,585.5C 605.5,588.167 605.5,590.833 605.5,593.5C 602.833,593.5 600.167,593.5 597.5,593.5C 597.825,598.599 597.325,603.599 596,608.5C 595.751,607.376 595.251,606.376 594.5,605.5C 593.669,612.142 593.169,618.809 593,625.5C 592.161,630.308 590.994,634.974 589.5,639.5C 590.32,641.111 591.654,641.778 593.5,641.5C 593.5,642.833 593.5,644.167 593.5,645.5C 591.143,645.337 588.81,645.503 586.5,646C 585.401,650.418 583.901,650.585 582,646.5C 579.825,647.255 577.659,648.088 575.5,649C 577.473,649.495 579.473,649.662 581.5,649.5C 581.5,652.167 581.5,654.833 581.5,657.5C 576.167,657.5 570.833,657.5 565.5,657.5C 565.5,660.167 565.5,662.833 565.5,665.5C 562.833,665.5 560.167,665.5 557.5,665.5C 557.5,662.833 557.5,660.167 557.5,657.5C 554.833,657.5 552.167,657.5 549.5,657.5C 549.5,660.167 549.5,662.833 549.5,665.5C 542.5,663.833 539.833,666.5 541.5,673.5C 539.5,673.5 537.5,673.5 535.5,673.5C 535.5,670.833 535.5,668.167 535.5,665.5C 532.167,665.5 528.833,665.5 525.5,665.5C 525.5,668.167 525.5,670.833 525.5,673.5C 522.833,673.5 520.167,673.5 517.5,673.5C 517.5,676.167 517.5,678.833 517.5,681.5C 506.833,681.5 496.167,681.5 485.5,681.5C 485.5,684.167 485.5,686.833 485.5,689.5C 482.833,689.5 480.167,689.5 477.5,689.5C 477.5,686.833 477.5,684.167 477.5,681.5C 472.167,681.5 466.833,681.5 461.5,681.5C 461.5,684.167 461.5,686.833 461.5,689.5C 458.833,689.5 456.167,689.5 453.5,689.5C 453.5,686.833 453.5,684.167 453.5,681.5C 450.833,681.5 448.167,681.5 445.5,681.5C 445.5,684.167 445.5,686.833 445.5,689.5C 437.5,689.5 429.5,689.5 421.5,689.5C 421.5,688.167 421.5,686.833 421.5,685.5C 413.5,685.5 405.5,685.5 397.5,685.5C 397.5,684.167 397.5,682.833 397.5,681.5C 394.833,681.5 392.167,681.5 389.5,681.5C 389.5,678.833 389.5,676.167 389.5,673.5C 386.833,673.5 384.167,673.5 381.5,673.5C 381.5,676.167 381.5,678.833 381.5,681.5C 376.167,681.5 370.833,681.5 365.5,681.5C 365.5,684.167 365.5,686.833 365.5,689.5C 362.833,689.5 360.167,689.5 357.5,689.5C 357.5,692.167 357.5,694.833 357.5,697.5C 354.833,697.5 352.167,697.5 349.5,697.5C 349.5,694.833 349.5,692.167 349.5,689.5C 346.833,689.5 344.167,689.5 341.5,689.5C 341.5,686.833 341.5,684.167 341.5,681.5C 338.833,681.5 336.167,681.5 333.5,681.5C 333.5,684.167 333.5,686.833 333.5,689.5C 330.833,689.5 328.167,689.5 325.5,689.5C 325.714,691.144 325.38,692.644 324.5,694C 326.107,695.049 326.773,696.549 326.5,698.5C 328.467,698.739 330.301,698.406 332,697.5C 334.742,701.414 338.408,702.747 343,701.5C 345.241,701.68 345.741,702.513 344.5,704C 356.499,706.435 368.499,708.602 380.5,710.5C 383.103,709.438 385.77,709.272 388.5,710C 389.949,711.117 391.616,711.784 393.5,712C 392.167,712.333 390.833,712.667 389.5,713C 393.62,714.66 397.786,714.827 402,713.5C 414.276,715.016 426.609,715.682 439,715.5C 451.44,715.683 463.773,715.016 476,713.5C 476.71,714.973 477.876,715.64 479.5,715.5C 479.5,715.833 479.5,716.167 479.5,716.5C 471.33,716.899 463.33,717.565 455.5,718.5C 439.491,718.5 423.491,718.166 407.5,717.5C 391.388,715.481 375.388,712.815 359.5,709.5C 355.761,707.898 351.761,706.898 347.5,706.5C 312.241,697.2 279.908,682.033 250.5,661C 228.031,643.385 212.031,621.218 202.5,594.5C 202.59,591.848 201.924,589.515 200.5,587.5C 198.513,576.937 197.513,566.271 197.5,555.5C 198.236,540.812 199.236,526.145 200.5,511.5C 201.972,507.081 202.638,502.414 202.5,497.5C 205.256,475.404 206.59,453.071 206.5,430.5C 207.167,424.986 207.833,419.319 208.5,413.5C 284.251,450.877 360.584,486.877 437.5,521.5 Z"/></g>
<g><path style="opacity:1" fill="#821d13" d="M 557.5,415.5 C 552.677,418.909 547.344,421.243 541.5,422.5C 546.323,419.091 551.656,416.757 557.5,415.5 Z"/></g>
<g><path style="opacity:1" fill="#2b0d0a" d="M 336.5,421.5 C 343.034,422.538 348.701,425.205 353.5,429.5C 347.385,427.701 341.718,425.034 336.5,421.5 Z"/></g>
<g><path style="opacity:1" fill="#070b0f" d="M 657.5,420.5 C 656.119,422.274 656.452,423.774 658.5,425C 657.584,425.374 656.75,425.874 656,426.5C 655.503,428.81 655.337,431.143 655.5,433.5C 652.266,434.576 648.932,435.243 645.5,435.5C 645.5,437.5 645.5,439.5 645.5,441.5C 640.167,441.5 634.833,441.5 629.5,441.5C 629.5,446.833 629.5,452.167 629.5,457.5C 626.833,457.5 624.167,457.5 621.5,457.5C 621.5,460.167 621.5,462.833 621.5,465.5C 624.247,465.187 626.914,465.52 629.5,466.5C 625.463,467.509 621.463,468.509 617.5,469.5C 617.815,471.226 617.981,472.893 618,474.5C 616.644,473.62 615.144,473.286 613.5,473.5C 613.5,470.833 613.5,468.167 613.5,465.5C 598.666,465.32 584,465.654 569.5,466.5C 569.5,468.833 569.5,471.167 569.5,473.5C 566.373,474.391 563.373,474.725 560.5,474.5C 558.426,473.006 556.26,471.673 554,470.5C 553.153,473.49 554.32,474.824 557.5,474.5C 557.5,476.833 557.5,479.167 557.5,481.5C 554.833,481.5 552.167,481.5 549.5,481.5C 546.753,481.813 544.086,481.48 541.5,480.5C 542.879,479.137 542.713,478.137 541,477.5C 538.566,478.322 536.066,478.656 533.5,478.5C 533.5,480.833 533.5,483.167 533.5,485.5C 529.774,485.177 526.107,485.511 522.5,486.5C 524.274,487.187 525.941,488.02 527.5,489C 524.527,490.507 521.527,490.84 518.5,490C 517.565,492.381 517.232,494.881 517.5,497.5C 514.833,497.5 512.167,497.5 509.5,497.5C 509.519,495.94 509.852,494.44 510.5,493C 509.991,491.831 509.158,490.998 508,490.5C 505.357,493.87 501.857,495.204 497.5,494.5C 513.7,486.005 530.367,478.338 547.5,471.5C 550.391,470.459 553.058,469.126 555.5,467.5C 589.385,451.01 623.385,435.344 657.5,420.5 Z"/></g>
<g><path style="opacity:1" fill="#9d1b0d" d="M 541.5,422.5 C 541.67,423.822 541.337,424.989 540.5,426C 538.527,426.495 536.527,426.662 534.5,426.5C 534.301,428.96 533.635,431.293 532.5,433.5C 530.868,432.703 529.368,431.703 528,430.5C 525.042,432.233 521.875,433.233 518.5,433.5C 525.763,429.035 533.43,425.369 541.5,422.5 Z"/></g>
<g><path style="opacity:1" fill="#761915" d="M 377.5,441.5 C 380.545,442.279 383.211,443.613 385.5,445.5C 383.883,444.962 382.216,444.629 380.5,444.5C 379.1,443.9 378.1,442.9 377.5,441.5 Z"/></g>
<g><path style="opacity:1" fill="#e38e81" d="M 754.5,323.5 C 754.842,322.662 755.508,322.328 756.5,322.5C 757.499,370.664 757.832,418.997 757.5,467.5C 757.158,468.338 756.492,468.672 755.5,468.5C 755.833,467.833 756.167,467.167 756.5,466.5C 757.162,418.488 756.495,370.822 754.5,323.5 Z"/></g>
<g><path style="opacity:1" fill="#da2716" d="M 380.5,444.5 C 382.216,444.629 383.883,444.962 385.5,445.5C 385.5,446.5 385.5,447.5 385.5,448.5C 388.167,448.833 390.833,449.167 393.5,449.5C 395.687,451.949 398.353,453.949 401.5,455.5C 410.867,459.52 420.201,463.52 429.5,467.5C 432.406,467.957 435.072,468.957 437.5,470.5C 437.5,470.833 437.5,471.167 437.5,471.5C 438.813,479.599 438.813,487.599 437.5,495.5C 419.643,487.403 401.977,479.07 384.5,470.5C 383.055,468.867 381.721,467.034 380.5,465C 375.718,463.895 371.051,462.395 366.5,460.5C 365.614,459.675 365.281,458.675 365.5,457.5C 364.167,457.5 362.833,457.5 361.5,457.5C 361.5,456.167 361.5,454.833 361.5,453.5C 362.833,453.5 364.167,453.5 365.5,453.5C 365.5,454.5 365.5,455.5 365.5,456.5C 369.481,457.021 373.481,457.354 377.5,457.5C 377.664,454.813 377.497,452.146 377,449.5C 374.771,452.156 372.938,451.823 371.5,448.5C 366.603,448.605 364.603,446.272 365.5,441.5C 370.713,441.609 375.713,442.609 380.5,444.5 Z"/></g>
<g><path style="opacity:1" fill="#a7251d" d="M 385.5,445.5 C 388.391,446.541 391.058,447.874 393.5,449.5C 390.833,449.167 388.167,448.833 385.5,448.5C 385.5,447.5 385.5,446.5 385.5,445.5 Z"/></g>
<g><path style="opacity:1" fill="#861b12" d="M 509.5,437.5 C 509.631,438.376 509.298,439.043 508.5,439.5C 503.286,441.61 498.286,443.944 493.5,446.5C 493.649,447.552 493.483,448.552 493,449.5C 491.612,448.446 490.112,448.28 488.5,449C 482.713,451.394 477.046,454.06 471.5,457C 470.207,457.49 468.873,457.657 467.5,457.5C 481.316,450.538 495.316,443.871 509.5,437.5 Z"/></g>
<g><path style="opacity:1" fill="#a72419" d="M 393.5,449.5 C 404.8,454.765 416.133,459.932 427.5,465C 428.381,465.708 429.047,466.542 429.5,467.5C 420.201,463.52 410.867,459.52 401.5,455.5C 398.353,453.949 395.687,451.949 393.5,449.5 Z"/></g>
<g><path style="opacity:1" fill="#7e1a10" d="M 467.5,457.5 C 462.891,462.055 457.225,464.721 450.5,465.5C 455.702,461.995 461.369,459.328 467.5,457.5 Z"/></g>
<g><path style="opacity:0.034" fill="#a3a5a1" d="M 79.5,469.5 C 81.3675,470.786 81.5342,472.119 80,473.5C 79.51,472.207 79.3433,470.873 79.5,469.5 Z"/></g>
<g><path style="opacity:1" fill="#62120e" d="M 555.5,467.5 C 553.058,469.126 550.391,470.459 547.5,471.5C 549.465,468.988 552.132,467.655 555.5,467.5 Z"/></g>
<g><path style="opacity:1" fill="#801910" d="M 450.5,465.5 C 446.839,468.829 442.506,470.829 437.5,471.5C 437.5,471.167 437.5,470.833 437.5,470.5C 441.723,468.556 446.056,466.889 450.5,465.5 Z"/></g>
<g><path style="opacity:1" fill="#fcfcfc" d="M 242.5,503.5 C 243.889,498.731 244.556,493.731 244.5,488.5C 244.891,482.272 246.224,476.272 248.5,470.5C 264.459,482.565 281.959,491.898 301,498.5C 298.118,540.426 296.118,582.426 295,624.5C 292.406,629.134 288.406,631.467 283,631.5C 273.155,629.075 264.822,624.075 258,616.5C 244.105,598.65 237.272,578.316 237.5,555.5C 238.066,538.033 239.733,520.7 242.5,503.5 Z"/></g>
<g><path style="opacity:1" fill="#c35e52" d="M 732.5,487.5 C 732.5,489.5 732.5,491.5 732.5,493.5C 730.938,493.733 729.605,494.4 728.5,495.5C 728.896,492.279 730.229,489.612 732.5,487.5 Z"/></g>
<g><path style="opacity:1" fill="#aeb3b6" d="M 244.5,488.5 C 244.556,493.731 243.889,498.731 242.5,503.5C 242.444,498.269 243.111,493.269 244.5,488.5 Z"/></g>
<g><path style="opacity:1" fill="#c45c54" d="M 804.5,493.5 C 805.674,494.514 806.34,495.847 806.5,497.5C 806.5,498.167 806.5,498.833 806.5,499.5C 804.926,497.898 804.259,495.898 804.5,493.5 Z"/></g>
<g><path style="opacity:1" fill="#020b11" d="M 757.5,467.5 C 762.167,467.5 766.833,467.5 771.5,467.5C 772.833,467.5 774.167,467.5 775.5,467.5C 778.518,469.4 781.851,470.733 785.5,471.5C 786.29,472.401 787.29,473.068 788.5,473.5C 793.992,477.476 798.325,482.476 801.5,488.5C 801.303,492.622 800.47,496.622 799,500.5C 797.349,503.971 795.516,507.304 793.5,510.5C 790.732,512.087 788.065,513.92 785.5,516C 781.504,517.82 777.504,519.32 773.5,520.5C 768.463,520.587 763.463,520.254 758.5,519.5C 755.5,518.833 752.5,518.167 749.5,517.5C 746.192,514.529 742.859,511.529 739.5,508.5C 736.582,503.735 734.249,498.735 732.5,493.5C 732.5,491.5 732.5,489.5 732.5,487.5C 737.899,478.606 745.566,472.273 755.5,468.5C 756.492,468.672 757.158,468.338 757.5,467.5 Z"/></g>
<g><path style="opacity:1" fill="#bfc1c4" d="M 202.5,497.5 C 202.638,502.414 201.972,507.081 200.5,511.5C 200.532,506.609 201.199,501.943 202.5,497.5 Z"/></g>
<g><path style="opacity:1" fill="#fbfcfc" d="M 576.5,499.5 C 580.508,501.342 583.341,504.342 585,508.5C 589.188,550.735 590.521,593.069 589,635.5C 588.394,638.548 586.894,641.048 584.5,643C 576.454,647.563 570.287,645.729 566,637.5C 565.667,613.833 565.333,590.167 565,566.5C 563.501,547.185 562.334,527.851 561.5,508.5C 564.135,501.678 569.135,498.678 576.5,499.5 Z"/></g>
<g><path style="opacity:1" fill="#f3ada6" d="M 727.5,497.5 C 727.59,500.152 726.924,502.485 725.5,504.5C 725.41,501.848 726.076,499.515 727.5,497.5 Z"/></g>
<g><path style="opacity:1" fill="#f5b8b2" d="M 806.5,497.5 C 808.04,499.838 808.706,502.505 808.5,505.5C 807.833,504.167 807.167,502.833 806.5,501.5C 806.5,500.833 806.5,500.167 806.5,499.5C 806.5,498.833 806.5,498.167 806.5,497.5 Z"/></g>
<g><path style="opacity:1" fill="#a22822" d="M 732.5,493.5 C 734.249,498.735 736.582,503.735 739.5,508.5C 737.771,507.883 736.271,506.883 735,505.5C 733.215,501.695 732.382,497.695 732.5,493.5 Z"/></g>
<g><path style="opacity:1" fill="#d22816" d="M 732.5,493.5 C 732.382,497.695 733.215,501.695 735,505.5C 736.271,506.883 737.771,507.883 739.5,508.5C 741.596,512.932 744.929,515.932 749.5,517.5C 749.804,518.15 750.137,518.817 750.5,519.5C 753.304,520.105 755.971,520.938 758.5,522C 761.5,522.333 764.5,522.667 767.5,523C 757.208,527.457 750.208,534.957 746.5,545.5C 745.583,544.873 744.583,544.539 743.5,544.5C 742.395,543.4 741.062,542.733 739.5,542.5C 737.833,541.5 736.5,540.167 735.5,538.5C 734.833,537.167 733.833,536.167 732.5,535.5C 731.737,533.632 730.737,531.965 729.5,530.5C 729.598,528.447 728.931,526.78 727.5,525.5C 727.741,523.102 727.074,521.102 725.5,519.5C 725.5,514.5 725.5,509.5 725.5,504.5C 726.924,502.485 727.59,500.152 727.5,497.5C 727.328,496.508 727.662,495.842 728.5,495.5C 729.605,494.4 730.938,493.733 732.5,493.5 Z"/></g>
<g><path style="opacity:1" fill="#a52b1e" d="M 806.5,501.5 C 807.167,502.833 807.833,504.167 808.5,505.5C 808.553,511.196 808.22,516.862 807.5,522.5C 806.833,523.5 806.167,524.5 805.5,525.5C 806.323,517.529 806.656,509.529 806.5,501.5 Z"/></g>
<g><path style="opacity:1" fill="#8c1e17" d="M 801.5,488.5 C 803.25,489.659 804.25,491.326 804.5,493.5C 803.25,493.577 802.417,494.244 802,495.5C 799.732,500.339 797.899,505.339 796.5,510.5C 795.5,510.5 794.5,510.5 793.5,510.5C 795.516,507.304 797.349,503.971 799,500.5C 800.47,496.622 801.303,492.622 801.5,488.5 Z"/></g>
<g><path style="opacity:1" fill="#9d2921" d="M 739.5,508.5 C 742.859,511.529 746.192,514.529 749.5,517.5C 744.929,515.932 741.596,512.932 739.5,508.5 Z"/></g>
<g><path style="opacity:1" fill="#7e1812" d="M 793.5,510.5 C 788.605,517.283 781.938,520.95 773.5,521.5C 773.5,521.167 773.5,520.833 773.5,520.5C 777.504,519.32 781.504,517.82 785.5,516C 788.065,513.92 790.732,512.087 793.5,510.5 Z"/></g>
<g><path style="opacity:1" fill="#af1403" d="M 804.5,493.5 C 804.259,495.898 804.926,497.898 806.5,499.5C 806.5,500.167 806.5,500.833 806.5,501.5C 806.656,509.529 806.323,517.529 805.5,525.5C 805.5,526.5 805.5,527.5 805.5,528.5C 802.317,535.02 797.983,540.687 792.5,545.5C 791.391,545.557 790.391,545.89 789.5,546.5C 787.195,547.989 784.862,549.489 782.5,551C 783.285,552.543 783.285,554.21 782.5,556C 783.937,558.701 784.937,561.534 785.5,564.5C 782.979,560.646 780.312,556.812 777.5,553C 770.087,552.204 762.754,552.37 755.5,553.5C 755.719,552.325 755.386,551.325 754.5,550.5C 751.38,549.642 748.38,548.642 745.5,547.5C 744.833,546.5 744.167,545.5 743.5,544.5C 744.583,544.539 745.583,544.873 746.5,545.5C 750.208,534.957 757.208,527.457 767.5,523C 764.5,522.667 761.5,522.333 758.5,522C 755.971,520.938 753.304,520.105 750.5,519.5C 750.137,518.817 749.804,518.15 749.5,517.5C 752.5,518.167 755.5,518.833 758.5,519.5C 759.263,520.268 760.263,520.768 761.5,521C 765.486,521.499 769.486,521.666 773.5,521.5C 781.938,520.95 788.605,517.283 793.5,510.5C 794.5,510.5 795.5,510.5 796.5,510.5C 797.899,505.339 799.732,500.339 802,495.5C 802.417,494.244 803.25,493.577 804.5,493.5 Z"/></g>
<g><path style="opacity:1" fill="#4f1011" d="M 758.5,519.5 C 763.463,520.254 768.463,520.587 773.5,520.5C 773.5,520.833 773.5,521.167 773.5,521.5C 769.486,521.666 765.486,521.499 761.5,521C 760.263,520.768 759.263,520.268 758.5,519.5 Z"/></g>
<g><path style="opacity:1" fill="#f7cacd" d="M 807.5,522.5 C 807.741,524.898 807.074,526.898 805.5,528.5C 805.5,527.5 805.5,526.5 805.5,525.5C 806.167,524.5 806.833,523.5 807.5,522.5 Z"/></g>
<g><path style="opacity:1" fill="#f8c2bd" d="M 725.5,519.5 C 727.074,521.102 727.741,523.102 727.5,525.5C 725.926,523.898 725.259,521.898 725.5,519.5 Z"/></g>
<g><path style="opacity:1" fill="#f7afa9" d="M 727.5,525.5 C 728.931,526.78 729.598,528.447 729.5,530.5C 728.069,529.22 727.402,527.553 727.5,525.5 Z"/></g>
<g><path style="opacity:1" fill="#010c13" d="M 670.5,413.5 C 670.833,413.5 671.167,413.5 671.5,413.5C 670.783,454.459 673.616,495.125 680,535.5C 680.743,546.86 680.577,558.193 679.5,569.5C 677.707,577.019 676.041,584.686 674.5,592.5C 672.382,598.171 670.048,603.838 667.5,609.5C 665.992,611.181 664.992,613.181 664.5,615.5C 659.426,623.304 654.092,630.971 648.5,638.5C 646.413,639.585 645.08,641.251 644.5,643.5C 641.167,646.167 638.167,649.167 635.5,652.5C 633.251,653.08 631.585,654.413 630.5,656.5C 595.947,683.139 557.28,701.139 514.5,710.5C 511.447,710.111 508.78,710.777 506.5,712.5C 501.609,712.532 496.943,713.199 492.5,714.5C 488.158,714.739 483.824,715.073 479.5,715.5C 477.876,715.64 476.71,714.973 476,713.5C 463.773,715.016 451.44,715.683 439,715.5C 426.609,715.682 414.276,715.016 402,713.5C 397.786,714.827 393.62,714.66 389.5,713C 390.833,712.667 392.167,712.333 393.5,712C 391.616,711.784 389.949,711.117 388.5,710C 385.77,709.272 383.103,709.438 380.5,710.5C 368.499,708.602 356.499,706.435 344.5,704C 345.741,702.513 345.241,701.68 343,701.5C 338.408,702.747 334.742,701.414 332,697.5C 330.301,698.406 328.467,698.739 326.5,698.5C 326.773,696.549 326.107,695.049 324.5,694C 325.38,692.644 325.714,691.144 325.5,689.5C 328.167,689.5 330.833,689.5 333.5,689.5C 333.5,686.833 333.5,684.167 333.5,681.5C 336.167,681.5 338.833,681.5 341.5,681.5C 341.5,684.167 341.5,686.833 341.5,689.5C 344.167,689.5 346.833,689.5 349.5,689.5C 349.5,692.167 349.5,694.833 349.5,697.5C 352.167,697.5 354.833,697.5 357.5,697.5C 357.5,694.833 357.5,692.167 357.5,689.5C 360.167,689.5 362.833,689.5 365.5,689.5C 365.5,686.833 365.5,684.167 365.5,681.5C 370.833,681.5 376.167,681.5 381.5,681.5C 381.5,678.833 381.5,676.167 381.5,673.5C 384.167,673.5 386.833,673.5 389.5,673.5C 389.5,676.167 389.5,678.833 389.5,681.5C 392.167,681.5 394.833,681.5 397.5,681.5C 397.5,682.833 397.5,684.167 397.5,685.5C 405.5,685.5 413.5,685.5 421.5,685.5C 421.5,686.833 421.5,688.167 421.5,689.5C 429.5,689.5 437.5,689.5 445.5,689.5C 445.5,686.833 445.5,684.167 445.5,681.5C 448.167,681.5 450.833,681.5 453.5,681.5C 453.5,684.167 453.5,686.833 453.5,689.5C 456.167,689.5 458.833,689.5 461.5,689.5C 461.5,686.833 461.5,684.167 461.5,681.5C 466.833,681.5 472.167,681.5 477.5,681.5C 477.5,684.167 477.5,686.833 477.5,689.5C 480.167,689.5 482.833,689.5 485.5,689.5C 485.5,686.833 485.5,684.167 485.5,681.5C 496.167,681.5 506.833,681.5 517.5,681.5C 517.5,678.833 517.5,676.167 517.5,673.5C 520.167,673.5 522.833,673.5 525.5,673.5C 525.5,670.833 525.5,668.167 525.5,665.5C 528.833,665.5 532.167,665.5 535.5,665.5C 535.5,668.167 535.5,670.833 535.5,673.5C 537.5,673.5 539.5,673.5 541.5,673.5C 539.833,666.5 542.5,663.833 549.5,665.5C 549.5,662.833 549.5,660.167 549.5,657.5C 552.167,657.5 554.833,657.5 557.5,657.5C 557.5,660.167 557.5,662.833 557.5,665.5C 560.167,665.5 562.833,665.5 565.5,665.5C 565.5,662.833 565.5,660.167 565.5,657.5C 570.833,657.5 576.167,657.5 581.5,657.5C 581.5,654.833 581.5,652.167 581.5,649.5C 579.473,649.662 577.473,649.495 575.5,649C 577.659,648.088 579.825,647.255 582,646.5C 583.901,650.585 585.401,650.418 586.5,646C 588.81,645.503 591.143,645.337 593.5,645.5C 593.5,644.167 593.5,642.833 593.5,641.5C 591.654,641.778 590.32,641.111 589.5,639.5C 590.994,634.974 592.161,630.308 593,625.5C 593.169,618.809 593.669,612.142 594.5,605.5C 595.251,606.376 595.751,607.376 596,608.5C 597.325,603.599 597.825,598.599 597.5,593.5C 600.167,593.5 602.833,593.5 605.5,593.5C 605.5,590.833 605.5,588.167 605.5,585.5C 602.5,585.5 599.5,585.5 596.5,585.5C 596.637,590.937 595.97,596.27 594.5,601.5C 594.167,600 593.833,598.5 593.5,597C 592.454,583.756 593.121,570.589 595.5,557.5C 594.562,554.188 593.729,550.855 593,547.5C 592.016,549.795 591.183,549.461 590.5,546.5C 591.469,544.427 592.135,542.261 592.5,540C 591.886,535.051 590.886,530.217 589.5,525.5C 590.833,525.5 592.167,525.5 593.5,525.5C 593.5,517.5 593.5,509.5 593.5,501.5C 588.053,501.135 582.719,500.135 577.5,498.5C 576.893,498.624 576.56,498.957 576.5,499.5C 569.135,498.678 564.135,501.678 561.5,508.5C 560.677,511.977 560.177,515.644 560,519.5C 559.899,516.3 559.232,513.3 558,510.5C 557.986,512.598 558.153,514.431 558.5,516C 556.832,517.567 556.498,519.234 557.5,521C 554.763,524.383 554.93,527.55 558,530.5C 558.379,545.605 559.545,558.605 561.5,569.5C 560.167,569.5 558.833,569.5 557.5,569.5C 557.5,566.833 557.5,564.167 557.5,561.5C 554.833,561.5 552.167,561.5 549.5,561.5C 549.5,558.833 549.5,556.167 549.5,553.5C 551.833,553.5 554.167,553.5 556.5,553.5C 556.5,550.833 556.5,548.167 556.5,545.5C 548.833,545.5 541.167,545.5 533.5,545.5C 533.5,540.167 533.5,534.833 533.5,529.5C 536.167,529.5 538.833,529.5 541.5,529.5C 541.5,526.833 541.5,524.167 541.5,521.5C 538.833,521.5 536.167,521.5 533.5,521.5C 533.5,518.833 533.5,516.167 533.5,513.5C 530.833,513.5 528.167,513.5 525.5,513.5C 525.5,516.167 525.5,518.833 525.5,521.5C 522.833,521.5 520.167,521.5 517.5,521.5C 517.5,524.167 517.5,526.833 517.5,529.5C 514.833,529.5 512.167,529.5 509.5,529.5C 509.5,524.167 509.5,518.833 509.5,513.5C 512.167,513.5 514.833,513.5 517.5,513.5C 517.5,510.833 517.5,508.167 517.5,505.5C 520.167,505.5 522.833,505.5 525.5,505.5C 525.5,502.833 525.5,500.167 525.5,497.5C 528.167,497.5 530.833,497.5 533.5,497.5C 533.5,494.833 533.5,492.167 533.5,489.5C 538.833,489.5 544.167,489.5 549.5,489.5C 549.5,486.833 549.5,484.167 549.5,481.5C 552.167,481.5 554.833,481.5 557.5,481.5C 557.5,479.167 557.5,476.833 557.5,474.5C 554.32,474.824 553.153,473.49 554,470.5C 556.26,471.673 558.426,473.006 560.5,474.5C 563.373,474.725 566.373,474.391 569.5,473.5C 569.5,471.167 569.5,468.833 569.5,466.5C 584,465.654 598.666,465.32 613.5,465.5C 613.5,468.167 613.5,470.833 613.5,473.5C 615.144,473.286 616.644,473.62 618,474.5C 617.981,472.893 617.815,471.226 617.5,469.5C 621.463,468.509 625.463,467.509 629.5,466.5C 626.914,465.52 624.247,465.187 621.5,465.5C 621.5,462.833 621.5,460.167 621.5,457.5C 624.167,457.5 626.833,457.5 629.5,457.5C 629.5,452.167 629.5,446.833 629.5,441.5C 634.833,441.5 640.167,441.5 645.5,441.5C 645.5,439.5 645.5,437.5 645.5,435.5C 648.932,435.243 652.266,434.576 655.5,433.5C 655.337,431.143 655.503,428.81 656,426.5C 656.75,425.874 657.584,425.374 658.5,425C 656.452,423.774 656.119,422.274 657.5,420.5C 661.944,418.313 666.277,415.979 670.5,413.5 Z"/></g>
<g><path style="opacity:1" fill="#3b474e" d="M 623.5,470.5 C 627.603,469.769 631.103,470.769 634,473.5C 640.409,511.9 642.743,550.567 641,589.5C 640.319,593.518 637.986,595.184 634,594.5C 630.468,595.192 628.135,593.859 627,590.5C 628,552.464 625.834,514.63 620.5,477C 620.884,474.479 621.884,472.312 623.5,470.5 Z"/></g>
<g><path style="opacity:1" fill="#f6cbca" d="M 732.5,535.5 C 733.833,536.167 734.833,537.167 735.5,538.5C 733.5,538.5 732.5,537.5 732.5,535.5 Z"/></g>
<g><path style="opacity:1" fill="#e07d71" d="M 739.5,542.5 C 741.062,542.733 742.395,543.4 743.5,544.5C 744.167,545.5 744.833,546.5 745.5,547.5C 744.329,548.345 742.995,549.011 741.5,549.5C 741.577,548.25 742.244,547.417 743.5,547C 741.959,545.629 740.625,544.129 739.5,542.5 Z"/></g>
<g><path style="opacity:1" fill="#f1beba" d="M 792.5,545.5 C 791.167,546.833 791.167,548.167 792.5,549.5C 791.5,549.5 790.5,549.5 789.5,549.5C 789.5,548.5 789.5,547.5 789.5,546.5C 790.391,545.89 791.391,545.557 792.5,545.5 Z"/></g>
<g><path style="opacity:1" fill="#dd7971" d="M 741.5,549.5 C 739.966,551.369 737.966,552.702 735.5,553.5C 736.802,551.178 738.802,549.845 741.5,549.5 Z"/></g>
<g><path style="opacity:1" fill="#df6e62" d="M 735.5,553.5 C 734.089,555.914 732.089,557.581 729.5,558.5C 730.911,556.086 732.911,554.419 735.5,553.5 Z"/></g>
<g><path style="opacity:1" fill="#efa0a1" d="M 801.5,555.5 C 803.167,556.5 804.5,557.833 805.5,559.5C 803.167,559.167 801.833,557.833 801.5,555.5 Z"/></g>
<g><path style="opacity:1" fill="#e49292" d="M 805.5,559.5 C 807.262,560.262 808.262,561.596 808.5,563.5C 806.738,562.738 805.738,561.404 805.5,559.5 Z"/></g>
<g><path style="opacity:1" fill="#db705b" d="M 729.5,558.5 C 728.766,559.708 728.433,561.041 728.5,562.5C 727.5,562.5 726.5,562.5 725.5,562.5C 726.167,560.5 727.5,559.167 729.5,558.5 Z"/></g>
<g><path style="opacity:1" fill="#d35241" d="M 808.5,563.5 C 810.9,565.296 812.567,567.63 813.5,570.5C 809.88,569.548 808.213,567.215 808.5,563.5 Z"/></g>
<g><path style="opacity:1" fill="#ef918c" d="M 721.5,569.5 C 721.573,571.027 720.906,572.027 719.5,572.5C 719.427,570.973 720.094,569.973 721.5,569.5 Z"/></g>
<g><path style="opacity:1" fill="#9ea3a3" d="M 679.5,569.5 C 679.219,577.58 677.553,585.247 674.5,592.5C 676.041,584.686 677.707,577.019 679.5,569.5 Z"/></g>
<g><path style="opacity:1" fill="#d15746" d="M 813.5,570.5 C 816.594,576.565 819.261,582.898 821.5,589.5C 817.488,583.856 814.821,577.523 813.5,570.5 Z"/></g>
<g><path style="opacity:1" fill="#c94132" d="M 725.5,562.5 C 723.72,570.061 720.386,576.728 715.5,582.5C 715.5,582.167 715.5,581.833 715.5,581.5C 716.462,578.261 717.795,575.261 719.5,572.5C 720.906,572.027 721.573,571.027 721.5,569.5C 722.079,566.669 723.412,564.336 725.5,562.5 Z"/></g>
<g><path style="opacity:1" fill="#d82617" d="M 745.5,547.5 C 748.38,548.642 751.38,549.642 754.5,550.5C 755.386,551.325 755.719,552.325 755.5,553.5C 750.458,561.08 745.958,569.08 742,577.5C 740.486,582.243 738.986,586.91 737.5,591.5C 736.542,591.953 735.708,592.619 735,593.5C 733.07,598.671 731.903,604.005 731.5,609.5C 731.5,610.167 731.5,610.833 731.5,611.5C 727.985,616.854 725.985,622.854 725.5,629.5C 723.821,636.182 722.155,642.849 720.5,649.5C 719.918,652.313 718.918,654.98 717.5,657.5C 714.947,664.813 713.28,672.48 712.5,680.5C 712.037,683.33 711.371,685.997 710.5,688.5C 709.5,688.833 708.833,689.5 708.5,690.5C 708.167,690.5 707.833,690.5 707.5,690.5C 705.08,690.292 702.747,690.626 700.5,691.5C 698.941,690.926 697.441,690.26 696,689.5C 695.749,680.48 695.249,671.48 694.5,662.5C 696.219,657.716 697.886,652.883 699.5,648C 698.483,645.213 698.316,642.38 699,639.5C 701.685,632.729 703.518,625.729 704.5,618.5C 704.5,616.833 704.5,615.167 704.5,613.5C 707.14,608.915 708.806,603.915 709.5,598.5C 709.5,598.167 709.5,597.833 709.5,597.5C 712.253,592.928 714.253,587.928 715.5,582.5C 720.386,576.728 723.72,570.061 725.5,562.5C 726.5,562.5 727.5,562.5 728.5,562.5C 728.433,561.041 728.766,559.708 729.5,558.5C 732.089,557.581 734.089,555.914 735.5,553.5C 737.966,552.702 739.966,551.369 741.5,549.5C 742.995,549.011 744.329,548.345 745.5,547.5 Z"/></g>
<g><path style="opacity:1" fill="#a7acb1" d="M 200.5,587.5 C 201.924,589.515 202.59,591.848 202.5,594.5C 201.076,592.485 200.41,590.152 200.5,587.5 Z"/></g>
<g><path style="opacity:1" fill="#f1b2ac" d="M 715.5,581.5 C 715.5,581.833 715.5,582.167 715.5,582.5C 714.253,587.928 712.253,592.928 709.5,597.5C 710.418,591.681 712.418,586.347 715.5,581.5 Z"/></g>
<g><path style="opacity:1" fill="#b72f23" d="M 790.5,575.5 C 791.978,577.645 793.312,579.979 794.5,582.5C 795.651,583.731 796.817,583.731 798,582.5C 796.721,584.231 796.388,586.897 797,590.5C 802.525,602.929 806.359,615.929 808.5,629.5C 802.73,611.523 796.73,593.523 790.5,575.5 Z"/></g>
<g><path style="opacity:1" fill="#ea9c92" d="M 823.5,596.5 C 826.407,602.099 828.407,608.099 829.5,614.5C 826.527,608.915 824.527,602.915 823.5,596.5 Z"/></g>
<g><path style="opacity:1" fill="#e89690" d="M 709.5,598.5 C 708.806,603.915 707.14,608.915 704.5,613.5C 705.589,608.233 707.256,603.233 709.5,598.5 Z"/></g>
<g><path style="opacity:1" fill="#ac2c24" d="M 737.5,591.5 C 735.93,597.743 733.93,603.743 731.5,609.5C 731.903,604.005 733.07,598.671 735,593.5C 735.708,592.619 736.542,591.953 737.5,591.5 Z"/></g>
<g><path style="opacity:1" fill="#000c12" d="M 485.5,561.5 C 490.833,561.5 496.167,561.5 501.5,561.5C 501.5,564.167 501.5,566.833 501.5,569.5C 502.833,569.5 504.167,569.5 505.5,569.5C 505.5,570.833 505.5,572.167 505.5,573.5C 509.5,573.5 513.5,573.5 517.5,573.5C 517.5,577.5 517.5,581.5 517.5,585.5C 520.167,585.5 522.833,585.5 525.5,585.5C 525.5,582.833 525.5,580.167 525.5,577.5C 528.167,577.5 530.833,577.5 533.5,577.5C 533.5,580.167 533.5,582.833 533.5,585.5C 536.167,585.5 538.833,585.5 541.5,585.5C 541.5,582.833 541.5,580.167 541.5,577.5C 544.167,577.5 546.833,577.5 549.5,577.5C 549.5,580.167 549.5,582.833 549.5,585.5C 551.5,585.5 553.5,585.5 555.5,585.5C 555.5,588.167 555.5,590.833 555.5,593.5C 553.5,593.5 551.5,593.5 549.5,593.5C 549.5,598.833 549.5,604.167 549.5,609.5C 546.833,609.5 544.167,609.5 541.5,609.5C 541.5,606.833 541.5,604.167 541.5,601.5C 538.833,601.5 536.167,601.5 533.5,601.5C 533.5,604.167 533.5,606.833 533.5,609.5C 530.833,609.5 528.167,609.5 525.5,609.5C 525.5,606.833 525.5,604.167 525.5,601.5C 522.833,601.5 520.167,601.5 517.5,601.5C 517.5,604.167 517.5,606.833 517.5,609.5C 512.167,609.5 506.833,609.5 501.5,609.5C 501.5,616.167 501.5,622.833 501.5,629.5C 500.167,629.5 498.833,629.5 497.5,629.5C 497.5,630.833 497.5,632.167 497.5,633.5C 493.5,633.5 489.5,633.5 485.5,633.5C 485.5,630.833 485.5,628.167 485.5,625.5C 482.833,625.5 480.167,625.5 477.5,625.5C 477.5,628.167 477.5,630.833 477.5,633.5C 474.833,633.5 472.167,633.5 469.5,633.5C 469.5,630.833 469.5,628.167 469.5,625.5C 466.833,625.5 464.167,625.5 461.5,625.5C 461.5,630.833 461.5,636.167 461.5,641.5C 458.833,641.5 456.167,641.5 453.5,641.5C 453.663,643.857 453.497,646.19 453,648.5C 451.301,649.406 449.467,649.739 447.5,649.5C 447.5,652.167 447.5,654.833 447.5,657.5C 438.833,657.5 430.167,657.5 421.5,657.5C 421.5,660.167 421.5,662.833 421.5,665.5C 419.143,665.663 416.81,665.497 414.5,665C 413.594,663.301 413.261,661.467 413.5,659.5C 408.167,658.833 402.833,658.167 397.5,657.5C 397.5,654.833 397.5,652.167 397.5,649.5C 394.833,649.5 392.167,649.5 389.5,649.5C 389.5,652.167 389.5,654.833 389.5,657.5C 384.167,657.5 378.833,657.5 373.5,657.5C 373.5,646.833 373.5,636.167 373.5,625.5C 368.167,626.167 362.833,626.833 357.5,627.5C 357.739,629.467 357.406,631.301 356.5,633C 354.19,633.497 351.857,633.663 349.5,633.5C 349.5,630.833 349.5,628.167 349.5,625.5C 346.833,625.5 344.167,625.5 341.5,625.5C 341.5,614.833 341.5,604.167 341.5,593.5C 344.167,593.5 346.833,593.5 349.5,593.5C 349.5,590.833 349.5,588.167 349.5,585.5C 354.833,585.5 360.167,585.5 365.5,585.5C 365.5,582.833 365.5,580.167 365.5,577.5C 368.167,577.5 370.833,577.5 373.5,577.5C 373.5,582.833 373.5,588.167 373.5,593.5C 370.833,593.5 368.167,593.5 365.5,593.5C 365.5,596.167 365.5,598.833 365.5,601.5C 368.167,601.5 370.833,601.5 373.5,601.5C 373.5,604.167 373.5,606.833 373.5,609.5C 376.167,609.5 378.833,609.5 381.5,609.5C 381.5,612.167 381.5,614.833 381.5,617.5C 384.167,617.5 386.833,617.5 389.5,617.5C 389.5,614.833 389.5,612.167 389.5,609.5C 392.167,609.5 394.833,609.5 397.5,609.5C 397.5,614.833 397.5,620.167 397.5,625.5C 402.833,625.5 408.167,625.5 413.5,625.5C 413.5,628.167 413.5,630.833 413.5,633.5C 418.833,633.5 424.167,633.5 429.5,633.5C 429.5,636.167 429.5,638.833 429.5,641.5C 432.167,641.5 434.833,641.5 437.5,641.5C 437.5,638.833 437.5,636.167 437.5,633.5C 440.167,633.5 442.833,633.5 445.5,633.5C 445.5,630.833 445.5,628.167 445.5,625.5C 448.167,625.5 450.833,625.5 453.5,625.5C 453.5,617.5 453.5,609.5 453.5,601.5C 448.167,601.5 442.833,601.5 437.5,601.5C 437.5,598.833 437.5,596.167 437.5,593.5C 432.167,593.5 426.833,593.5 421.5,593.5C 421.5,590.833 421.5,588.167 421.5,585.5C 426.833,585.5 432.167,585.5 437.5,585.5C 437.5,582.833 437.5,580.167 437.5,577.5C 442.833,577.5 448.167,577.5 453.5,577.5C 453.5,574.833 453.5,572.167 453.5,569.5C 464.167,569.5 474.833,569.5 485.5,569.5C 485.5,566.833 485.5,564.167 485.5,561.5 Z"/></g>
<g><path style="opacity:1" fill="#d82617" d="M 789.5,546.5 C 789.5,547.5 789.5,548.5 789.5,549.5C 790.5,549.5 791.5,549.5 792.5,549.5C 795.945,550.73 798.945,552.73 801.5,555.5C 801.833,557.833 803.167,559.167 805.5,559.5C 805.738,561.404 806.738,562.738 808.5,563.5C 808.213,567.215 809.88,569.548 813.5,570.5C 814.821,577.523 817.488,583.856 821.5,589.5C 822.449,591.737 823.116,594.071 823.5,596.5C 824.527,602.915 826.527,608.915 829.5,614.5C 829.263,615.791 829.596,616.791 830.5,617.5C 830.259,619.898 830.926,621.898 832.5,623.5C 832.171,626.228 832.837,628.562 834.5,630.5C 835.434,631.568 835.768,632.901 835.5,634.5C 835.41,637.152 836.076,639.485 837.5,641.5C 837.66,643.153 838.326,644.486 839.5,645.5C 839.5,645.833 839.5,646.167 839.5,646.5C 839.41,649.152 840.076,651.485 841.5,653.5C 841.898,657.761 842.898,661.761 844.5,665.5C 845.241,671.471 845.575,677.471 845.5,683.5C 841.975,690.596 836.308,693.429 828.5,692C 827.058,691.623 826.058,690.79 825.5,689.5C 823.323,685.164 821.99,680.498 821.5,675.5C 821.253,674.287 820.586,673.62 819.5,673.5C 819.5,672.833 819.5,672.167 819.5,671.5C 819.073,666.477 818.407,661.477 817.5,656.5C 817.062,653.705 816.062,651.372 814.5,649.5C 814.663,647.143 814.497,644.81 814,642.5C 812.037,638.079 810.204,633.746 808.5,629.5C 806.359,615.929 802.525,602.929 797,590.5C 796.388,586.897 796.721,584.231 798,582.5C 796.817,583.731 795.651,583.731 794.5,582.5C 793.312,579.979 791.978,577.645 790.5,575.5C 788.574,571.98 786.908,568.313 785.5,564.5C 784.937,561.534 783.937,558.701 782.5,556C 783.285,554.21 783.285,552.543 782.5,551C 784.862,549.489 787.195,547.989 789.5,546.5 Z"/></g>
<g><path style="opacity:1" fill="#a7acb0" d="M 667.5,609.5 C 667.539,612.089 666.539,614.089 664.5,615.5C 664.992,613.181 665.992,611.181 667.5,609.5 Z"/></g>
<g><path style="opacity:1" fill="#030b12" d="M 785.5,564.5 C 786.908,568.313 788.574,571.98 790.5,575.5C 796.73,593.523 802.73,611.523 808.5,629.5C 809.901,636.456 811.901,643.123 814.5,649.5C 815.883,657.021 817.55,664.354 819.5,671.5C 819.5,672.167 819.5,672.833 819.5,673.5C 820.835,678.85 822.168,684.183 823.5,689.5C 823.916,692.406 824.582,695.239 825.5,698C 823.678,707.583 818.011,711.083 808.5,708.5C 808.5,707.833 808.167,707.5 807.5,707.5C 807.167,706.5 806.5,705.833 805.5,705.5C 805.327,696.787 804.66,688.12 803.5,679.5C 803.771,674.566 803.104,669.9 801.5,665.5C 801.5,664.833 801.5,664.167 801.5,663.5C 799.748,653.572 794.081,650.072 784.5,653C 782.622,654.543 781.122,656.376 780,658.5C 779.34,665.056 779.84,671.39 781.5,677.5C 781.5,681.5 781.5,685.5 781.5,689.5C 782.166,698.485 782.499,707.485 782.5,716.5C 777.751,727.775 769.751,730.608 758.5,725C 756.235,723.242 754.568,721.075 753.5,718.5C 752.962,716.883 752.629,715.216 752.5,713.5C 752.417,702.484 752.751,691.484 753.5,680.5C 753.5,678.5 753.5,676.5 753.5,674.5C 754.652,669.015 754.818,663.349 754,657.5C 753.292,656.619 752.458,655.953 751.5,655.5C 750.833,655.167 750.167,654.833 749.5,654.5C 747.969,652.32 745.802,651.32 743,651.5C 740.992,651.307 739.492,651.974 738.5,653.5C 735.151,654.684 732.985,657.017 732,660.5C 731.501,664.821 731.334,669.154 731.5,673.5C 729.896,677.9 729.229,682.566 729.5,687.5C 729.5,688.167 729.5,688.833 729.5,689.5C 727.864,693.21 727.198,697.21 727.5,701.5C 727.5,703.167 727.5,704.833 727.5,706.5C 726.29,706.932 725.29,707.599 724.5,708.5C 719.205,710.617 714.705,709.617 711,705.5C 709.621,700.964 709.121,696.297 709.5,691.5C 710.404,690.791 710.737,689.791 710.5,688.5C 711.371,685.997 712.037,683.33 712.5,680.5C 713.131,678.025 714.131,675.691 715.5,673.5C 716.652,668.468 718.152,663.468 720,658.5C 720.498,655.518 720.665,652.518 720.5,649.5C 722.155,642.849 723.821,636.182 725.5,629.5C 728.068,623.796 730.068,617.796 731.5,611.5C 731.5,610.833 731.5,610.167 731.5,609.5C 733.93,603.743 735.93,597.743 737.5,591.5C 738.986,586.91 740.486,582.243 742,577.5C 745.958,569.08 750.458,561.08 755.5,553.5C 762.754,552.37 770.087,552.204 777.5,553C 780.312,556.812 782.979,560.646 785.5,564.5 Z"/></g>
<g><path style="opacity:1" fill="#ef9e99" d="M 704.5,613.5 C 704.5,615.167 704.5,616.833 704.5,618.5C 703.833,619.5 703.167,620.5 702.5,621.5C 702.565,618.572 703.232,615.905 704.5,613.5 Z"/></g>
<g><path style="opacity:1" fill="#972a22" d="M 731.5,611.5 C 730.068,617.796 728.068,623.796 725.5,629.5C 725.985,622.854 727.985,616.854 731.5,611.5 Z"/></g>
<g><path style="opacity:1" fill="#fbbbb2" d="M 830.5,617.5 C 831.738,619.214 832.405,621.214 832.5,623.5C 830.926,621.898 830.259,619.898 830.5,617.5 Z"/></g>
<g><path style="opacity:1" fill="#f3a298" d="M 832.5,623.5 C 833.612,625.599 834.279,627.933 834.5,630.5C 832.837,628.562 832.171,626.228 832.5,623.5 Z"/></g>
<g><path style="opacity:1" fill="#efaaa6" d="M 701.5,625.5 C 701.139,629.915 699.806,633.915 697.5,637.5C 697.926,633.098 699.26,629.098 701.5,625.5 Z"/></g>
<g><path style="opacity:1" fill="#a72e23" d="M 808.5,629.5 C 810.204,633.746 812.037,638.079 814,642.5C 814.497,644.81 814.663,647.143 814.5,649.5C 811.901,643.123 809.901,636.456 808.5,629.5 Z"/></g>
<g><path style="opacity:1" fill="#e88e86" d="M 835.5,634.5 C 836.924,636.515 837.59,638.848 837.5,641.5C 836.076,639.485 835.41,637.152 835.5,634.5 Z"/></g>
<g><path style="opacity:1" fill="#afb3b6" d="M 648.5,638.5 C 647.92,640.749 646.587,642.415 644.5,643.5C 645.08,641.251 646.413,639.585 648.5,638.5 Z"/></g>
<g><path style="opacity:1" fill="#f0b1ad" d="M 697.5,637.5 C 697.706,640.495 697.04,643.162 695.5,645.5C 695.565,642.572 696.232,639.905 697.5,637.5 Z"/></g>
<g><path style="opacity:1" fill="#fcd7d0" d="M 837.5,641.5 C 839.104,642.287 839.771,643.62 839.5,645.5C 838.326,644.486 837.66,643.153 837.5,641.5 Z"/></g>
<g><path style="opacity:1" fill="#f4bbb1" d="M 695.5,645.5 C 695.741,647.898 695.074,649.898 693.5,651.5C 693.595,649.214 694.262,647.214 695.5,645.5 Z"/></g>
<g><path style="opacity:1" fill="#f5b7ab" d="M 839.5,646.5 C 840.924,648.515 841.59,650.848 841.5,653.5C 840.076,651.485 839.41,649.152 839.5,646.5 Z"/></g>
<g><path style="opacity:1" fill="#a12b24" d="M 749.5,654.5 C 745.881,653.756 742.215,653.423 738.5,653.5C 739.492,651.974 740.992,651.307 743,651.5C 745.802,651.32 747.969,652.32 749.5,654.5 Z"/></g>
<g><path style="opacity:1" fill="#972f26" d="M 801.5,663.5 C 801.167,663.5 800.833,663.5 800.5,663.5C 798.407,654.62 793.074,651.787 784.5,655C 782.393,656.264 781.393,658.097 781.5,660.5C 780.996,665.98 780.996,671.647 781.5,677.5C 779.84,671.39 779.34,665.056 780,658.5C 781.122,656.376 782.622,654.543 784.5,653C 794.081,650.072 799.748,653.572 801.5,663.5 Z"/></g>
<g><path style="opacity:1" fill="#c5c6ca" d="M 635.5,652.5 C 634.415,654.587 632.749,655.92 630.5,656.5C 631.585,654.413 633.251,653.08 635.5,652.5 Z"/></g>
<g><path style="opacity:1" fill="#f1aaa3" d="M 693.5,653.5 C 693.277,657.162 692.277,660.495 690.5,663.5C 690.59,659.786 691.59,656.452 693.5,653.5 Z"/></g>
<g><path style="opacity:1" fill="#a4281f" d="M 814.5,649.5 C 816.062,651.372 817.062,653.705 817.5,656.5C 818.407,661.477 819.073,666.477 819.5,671.5C 817.55,664.354 815.883,657.021 814.5,649.5 Z"/></g>
<g><path style="opacity:1" fill="#cc2d20" d="M 704.5,618.5 C 703.518,625.729 701.685,632.729 699,639.5C 698.316,642.38 698.483,645.213 699.5,648C 697.886,652.883 696.219,657.716 694.5,662.5C 695.249,671.48 695.749,680.48 696,689.5C 697.441,690.26 698.941,690.926 700.5,691.5C 702.747,690.626 705.08,690.292 707.5,690.5C 707.082,691.222 706.416,691.722 705.5,692C 702.518,692.498 699.518,692.665 696.5,692.5C 695.415,690.413 693.749,689.08 691.5,688.5C 691.573,686.973 690.906,685.973 689.5,685.5C 689.5,685.167 689.5,684.833 689.5,684.5C 688.312,678.848 688.312,673.181 689.5,667.5C 690.434,666.432 690.768,665.099 690.5,663.5C 692.277,660.495 693.277,657.162 693.5,653.5C 693.5,652.833 693.5,652.167 693.5,651.5C 695.074,649.898 695.741,647.898 695.5,645.5C 697.04,643.162 697.706,640.495 697.5,637.5C 699.806,633.915 701.139,629.915 701.5,625.5C 701.232,623.901 701.566,622.568 702.5,621.5C 703.167,620.5 703.833,619.5 704.5,618.5 Z"/></g>
<g><path style="opacity:1" fill="#ba2f23" d="M 717.5,657.5 C 716.355,662.704 715.689,668.037 715.5,673.5C 714.131,675.691 713.131,678.025 712.5,680.5C 713.28,672.48 714.947,664.813 717.5,657.5 Z"/></g>
<g><path style="opacity:1" fill="#dc2712" d="M 800.5,663.5 C 801.236,675.829 801.903,688.162 802.5,700.5C 800.641,700.539 799.308,699.706 798.5,698C 795.518,697.502 792.518,697.335 789.5,697.5C 789.5,696.167 789.5,694.833 789.5,693.5C 787.446,693.365 785.779,694.032 784.5,695.5C 783.17,683.868 782.17,672.201 781.5,660.5C 781.393,658.097 782.393,656.264 784.5,655C 793.074,651.787 798.407,654.62 800.5,663.5 Z"/></g>
<g><path style="opacity:1" fill="#2c0b08" d="M 720.5,649.5 C 720.665,652.518 720.498,655.518 720,658.5C 718.152,663.468 716.652,668.468 715.5,673.5C 715.689,668.037 716.355,662.704 717.5,657.5C 718.918,654.98 719.918,652.313 720.5,649.5 Z"/></g>
<g><path style="opacity:0.063" fill="#a8a8a8" d="M 176.5,667.5 C 176.657,668.873 176.49,670.207 176,671.5C 175.235,669.934 175.402,668.601 176.5,667.5 Z"/></g>
<g><path style="opacity:1" fill="#4d0d10" d="M 751.5,655.5 C 752.458,655.953 753.292,656.619 754,657.5C 754.818,663.349 754.652,669.015 753.5,674.5C 754.031,667.922 753.365,661.588 751.5,655.5 Z"/></g>
<g><path style="opacity:1" fill="#8b8b8c" d="M 177.5,663.5 C 179.316,665.118 180.649,667.118 181.5,669.5C 183.192,671.205 184.525,673.205 185.5,675.5C 184.833,675.5 184.5,675.833 184.5,676.5C 181.833,673.5 179.167,670.5 176.5,667.5C 176.433,666.041 176.766,664.708 177.5,663.5 Z"/></g>
<g><path style="opacity:1" fill="#a3271e" d="M 738.5,653.5 C 737.542,654.962 736.376,656.295 735,657.5C 734.953,663.206 733.786,668.539 731.5,673.5C 731.334,669.154 731.501,664.821 732,660.5C 732.985,657.017 735.151,654.684 738.5,653.5 Z"/></g>
<g><path style="opacity:1" fill="#6e1917" d="M 801.5,665.5 C 803.104,669.9 803.771,674.566 803.5,679.5C 802.028,675.081 801.362,670.414 801.5,665.5 Z"/></g>
<g><path style="opacity:1" fill="#d72614" d="M 738.5,653.5 C 742.215,653.423 745.881,653.756 749.5,654.5C 750.167,654.833 750.833,655.167 751.5,655.5C 753.365,661.588 754.031,667.922 753.5,674.5C 753.5,676.5 753.5,678.5 753.5,680.5C 752.778,680.918 752.278,681.584 752,682.5C 751.5,692.828 751.334,703.161 751.5,713.5C 751.296,715.685 750.63,717.685 749.5,719.5C 748.5,720.833 747.5,722.167 746.5,723.5C 743.193,724.051 739.86,724.384 736.5,724.5C 733.933,723.283 731.6,721.616 729.5,719.5C 729.068,718.29 728.401,717.29 727.5,716.5C 727.5,713.167 727.5,709.833 727.5,706.5C 727.5,704.833 727.5,703.167 727.5,701.5C 729.136,697.79 729.802,693.79 729.5,689.5C 729.5,688.833 729.5,688.167 729.5,687.5C 731.104,683.1 731.771,678.434 731.5,673.5C 733.786,668.539 734.953,663.206 735,657.5C 736.376,656.295 737.542,654.962 738.5,653.5 Z"/></g>
<g><path style="opacity:1" fill="#9b9d9d" d="M 185.5,675.5 C 186.488,676.795 187.488,678.128 188.5,679.5C 187.883,679.611 187.383,679.944 187,680.5C 186.338,679.016 185.504,677.683 184.5,676.5C 185.167,676.5 185.5,676.167 185.5,675.5 Z"/></g>
<g><path style="opacity:1" fill="#e29089" d="M 844.5,665.5 C 845.97,668.886 846.637,672.553 846.5,676.5C 846.497,679.025 846.163,681.359 845.5,683.5C 845.575,677.471 845.241,671.471 844.5,665.5 Z"/></g>
<g><path style="opacity:1" fill="#aa3c2f" d="M 819.5,673.5 C 820.586,673.62 821.253,674.287 821.5,675.5C 821.99,680.498 823.323,685.164 825.5,689.5C 824.833,689.5 824.167,689.5 823.5,689.5C 822.168,684.183 820.835,678.85 819.5,673.5 Z"/></g>
<g><path style="opacity:0.075" fill="#a9aaa9" d="M 175.5,678.5 C 176.833,679.167 176.833,679.167 175.5,678.5 Z"/></g>
<g><path style="opacity:1" fill="#fbd0c9" d="M 689.5,667.5 C 688.312,673.181 688.312,678.848 689.5,684.5C 687.967,682.366 687.3,679.866 687.5,677C 687.421,673.549 688.087,670.382 689.5,667.5 Z"/></g>
<g><path style="opacity:0.325" fill="#929493" d="M 190.5,684.5 C 190.833,684.5 191.167,684.5 191.5,684.5C 191.167,687.167 190.833,687.167 190.5,684.5 Z"/></g>
<g><path style="opacity:1" fill="#fbcfca" d="M 689.5,685.5 C 690.906,685.973 691.573,686.973 691.5,688.5C 690.094,688.027 689.427,687.027 689.5,685.5 Z"/></g>
<g><path style="opacity:1" fill="#99271e" d="M 731.5,673.5 C 731.771,678.434 731.104,683.1 729.5,687.5C 729.229,682.566 729.896,677.9 731.5,673.5 Z"/></g>
<g><path style="opacity:1" fill="#e89d91" d="M 691.5,688.5 C 693.749,689.08 695.415,690.413 696.5,692.5C 694.251,691.92 692.585,690.587 691.5,688.5 Z"/></g>
<g><path style="opacity:1" fill="#e9bfbc" d="M 710.5,688.5 C 710.737,689.791 710.404,690.791 709.5,691.5C 709.5,690.833 709.167,690.5 708.5,690.5C 708.833,689.5 709.5,688.833 710.5,688.5 Z"/></g>
<g><path style="opacity:1" fill="#641514" d="M 753.5,680.5 C 752.751,691.484 752.417,702.484 752.5,713.5C 752.167,713.5 751.833,713.5 751.5,713.5C 751.334,703.161 751.5,692.828 752,682.5C 752.278,681.584 752.778,680.918 753.5,680.5 Z"/></g>
<g><path style="opacity:1" fill="#d52615" d="M 800.5,663.5 C 800.833,663.5 801.167,663.5 801.5,663.5C 801.5,664.167 801.5,664.833 801.5,665.5C 801.362,670.414 802.028,675.081 803.5,679.5C 804.66,688.12 805.327,696.787 805.5,705.5C 805.5,709.5 805.5,713.5 805.5,717.5C 805.167,718.167 804.833,718.833 804.5,719.5C 803.167,720.167 802.167,721.167 801.5,722.5C 800.29,722.932 799.29,723.599 798.5,724.5C 795.098,724.658 791.764,724.324 788.5,723.5C 786.457,722.421 785.124,720.754 784.5,718.5C 784.5,710.833 784.5,703.167 784.5,695.5C 785.779,694.032 787.446,693.365 789.5,693.5C 789.5,694.833 789.5,696.167 789.5,697.5C 792.518,697.335 795.518,697.502 798.5,698C 799.308,699.706 800.641,700.539 802.5,700.5C 801.903,688.162 801.236,675.829 800.5,663.5 Z"/></g>
<g><path style="opacity:1" fill="#c42f1e" d="M 781.5,660.5 C 782.17,672.201 783.17,683.868 784.5,695.5C 784.5,703.167 784.5,710.833 784.5,718.5C 783.662,718.158 783.328,717.492 783.5,716.5C 783.877,707.273 783.211,698.273 781.5,689.5C 781.5,685.5 781.5,681.5 781.5,677.5C 780.996,671.647 780.996,665.98 781.5,660.5 Z"/></g>
<g><path style="opacity:1" fill="#791b16" d="M 729.5,689.5 C 729.802,693.79 729.136,697.79 727.5,701.5C 727.198,697.21 727.864,693.21 729.5,689.5 Z"/></g>
<g><path style="opacity:1" fill="#781f18" d="M 781.5,689.5 C 783.211,698.273 783.877,707.273 783.5,716.5C 783.167,716.5 782.833,716.5 782.5,716.5C 782.499,707.485 782.166,698.485 781.5,689.5 Z"/></g>
<g><path style="opacity:1" fill="#8e9296" d="M 347.5,706.5 C 351.761,706.898 355.761,707.898 359.5,709.5C 355.163,709.416 351.163,708.416 347.5,706.5 Z"/></g>
<g><path style="opacity:1" fill="#f4c9cb" d="M 727.5,706.5 C 727.5,709.833 727.5,713.167 727.5,716.5C 727.098,713.523 726.098,710.857 724.5,708.5C 725.29,707.599 726.29,706.932 727.5,706.5 Z"/></g>
<g><path style="opacity:1" fill="#bf564b" d="M 805.5,705.5 C 806.5,705.833 807.167,706.5 807.5,707.5C 806.527,709.948 806.194,712.615 806.5,715.5C 806.672,716.492 806.338,717.158 805.5,717.5C 805.5,713.5 805.5,709.5 805.5,705.5 Z"/></g>
<g><path style="opacity:1" fill="#fcd9d3" d="M 807.5,707.5 C 808.167,707.5 808.5,707.833 808.5,708.5C 807.833,710.833 807.167,713.167 806.5,715.5C 806.194,712.615 806.527,709.948 807.5,707.5 Z"/></g>
<g><path style="opacity:1" fill="#94979b" d="M 514.5,710.5 C 512.039,711.531 509.373,712.198 506.5,712.5C 508.78,710.777 511.447,710.111 514.5,710.5 Z"/></g>
<g><path style="opacity:1" fill="#a5acbb" d="M 492.5,714.5 C 488.433,716.054 484.1,716.72 479.5,716.5C 479.5,716.167 479.5,715.833 479.5,715.5C 483.824,715.073 488.158,714.739 492.5,714.5 Z"/></g>
<g><path style="opacity:1" fill="#d3b5b6" d="M 751.5,713.5 C 751.833,713.5 752.167,713.5 752.5,713.5C 752.629,715.216 752.962,716.883 753.5,718.5C 752.038,717.529 750.705,717.862 749.5,719.5C 750.63,717.685 751.296,715.685 751.5,713.5 Z"/></g>
<g><path style="opacity:1" fill="#c5c7cc" d="M 407.5,717.5 C 423.491,718.166 439.491,718.5 455.5,718.5C 450.01,719.166 444.343,719.499 438.5,719.5C 427.966,719.558 417.633,718.892 407.5,717.5 Z"/></g>
<g><path style="opacity:1" fill="#f1bcbc" d="M 729.5,719.5 C 731.6,721.616 733.933,723.283 736.5,724.5C 732.763,724.759 730.43,723.093 729.5,719.5 Z"/></g>
<g><path style="opacity:1" fill="#edbcc6" d="M 804.5,719.5 C 804.5,721.5 803.5,722.5 801.5,722.5C 802.167,721.167 803.167,720.167 804.5,719.5 Z"/></g>
<g><path style="opacity:1" fill="#ffd5d0" d="M 801.5,722.5 C 801.179,724.048 800.179,724.715 798.5,724.5C 799.29,723.599 800.29,722.932 801.5,722.5 Z"/></g>
<g><path style="opacity:1" fill="#f7babd" d="M 746.5,723.5 C 743.292,725.531 739.959,725.865 736.5,724.5C 739.86,724.384 743.193,724.051 746.5,723.5 Z"/></g>
<g><path style="opacity:1" fill="#fec3c1" d="M 788.5,723.5 C 791.764,724.324 795.098,724.658 798.5,724.5C 795.696,725.638 792.696,725.805 789.5,725C 788.944,724.617 788.611,724.117 788.5,723.5 Z"/></g>
</svg>
