<?xml version="1.0" encoding="UTF-8"?>
<!DOCTYPE svg PUBLIC "-//W3C//DTD SVG 1.1//EN" "http://www.w3.org/Graphics/SVG/1.1/DTD/svg11.dtd">
<svg xmlns="http://www.w3.org/2000/svg" version="1.1" width="814px" height="814px" style="shape-rendering:geometricPrecision; text-rendering:geometricPrecision; image-rendering:optimizeQuality; fill-rule:evenodd; clip-rule:evenodd" xmlns:xlink="http://www.w3.org/1999/xlink">
<g><path style="opacity:1" fill="#91affe" d="M -0.5,-0.5 C 270.833,-0.5 542.167,-0.5 813.5,-0.5C 813.5,270.833 813.5,542.167 813.5,813.5C 542.167,813.5 270.833,813.5 -0.5,813.5C -0.5,635.167 -0.5,456.833 -0.5,278.5C 1.86958,283.709 5.53625,287.876 10.5,291C 18.6509,293.94 26.6509,297.273 34.5,301C 75.3076,320.237 115.974,339.737 156.5,359.5C 156.334,368.506 156.5,377.506 157,386.5C 158.302,387.085 159.469,387.751 160.5,388.5C 159.331,396.839 156.997,404.839 153.5,412.5C 155.779,418.285 156.779,424.285 156.5,430.5C 156.59,453.071 155.256,475.404 152.5,497.5C 151.199,501.943 150.532,506.609 150.5,511.5C 149.236,526.145 148.236,540.812 147.5,555.5C 147.513,566.271 148.513,576.937 150.5,587.5C 150.41,590.152 151.076,592.485 152.5,594.5C 162.031,621.218 178.031,643.385 200.5,661C 229.908,682.033 262.241,697.2 297.5,706.5C 301.163,708.416 305.163,709.416 309.5,709.5C 325.388,712.815 341.388,715.481 357.5,717.5C 367.633,718.892 377.966,719.558 388.5,719.5C 394.343,719.499 400.01,719.166 405.5,718.5C 413.33,717.565 421.33,716.899 429.5,716.5C 434.1,716.72 438.433,716.054 442.5,714.5C 446.943,713.199 451.609,712.532 456.5,712.5C 459.373,712.198 462.039,711.531 464.5,710.5C 507.28,701.139 545.947,683.139 580.5,656.5C 582.749,655.92 584.415,654.587 585.5,652.5C 588.167,649.167 591.167,646.167 594.5,643.5C 596.587,642.415 597.92,640.749 598.5,638.5C 604.092,630.971 609.426,623.304 614.5,615.5C 616.539,614.089 617.539,612.089 617.5,609.5C 620.048,603.838 622.382,598.171 624.5,592.5C 627.553,585.247 629.219,577.58 629.5,569.5C 629.667,557.495 629.5,545.495 629,533.5C 623.513,493.685 621.013,453.685 621.5,413.5C 621.5,399.5 621.5,385.5 621.5,371.5C 625.262,371.691 628.929,372.358 632.5,373.5C 634.153,373.66 635.486,374.326 636.5,375.5C 639.256,377.204 642.256,378.537 645.5,379.5C 652.404,382.285 659.071,385.619 665.5,389.5C 670.686,393.318 676.352,394.318 682.5,392.5C 683.167,392.5 683.833,392.5 684.5,392.5C 687.608,392.625 689.608,391.292 690.5,388.5C 692.446,387.965 693.446,386.632 693.5,384.5C 695.047,382.193 695.713,379.527 695.5,376.5C 695.713,373.473 695.047,370.807 693.5,368.5C 693.573,366.973 692.906,365.973 691.5,365.5C 691.167,364.5 690.5,363.833 689.5,363.5C 689.027,362.094 688.027,361.427 686.5,361.5C 686.167,361.5 685.833,361.5 685.5,361.5C 684.089,359.461 682.089,358.461 679.5,358.5C 681.927,354.895 684.593,351.395 687.5,348C 684.272,344.044 682.272,339.544 681.5,334.5C 685.709,332.229 690.042,330.229 694.5,328.5C 697.937,327.866 701.104,326.533 704,324.5C 704.333,324.833 704.667,325.167 705,325.5C 705.167,372.668 705.667,419.668 706.5,466.5C 706.167,467.167 705.833,467.833 705.5,468.5C 695.566,472.273 687.899,478.606 682.5,487.5C 680.229,489.612 678.896,492.279 678.5,495.5C 677.662,495.842 677.328,496.508 677.5,497.5C 676.076,499.515 675.41,501.848 675.5,504.5C 675.5,509.5 675.5,514.5 675.5,519.5C 675.259,521.898 675.926,523.898 677.5,525.5C 677.402,527.553 678.069,529.22 679.5,530.5C 680.737,531.965 681.737,533.632 682.5,535.5C 682.5,537.5 683.5,538.5 685.5,538.5C 686.5,540.167 687.833,541.5 689.5,542.5C 690.625,544.129 691.959,545.629 693.5,547C 692.244,547.417 691.577,548.25 691.5,549.5C 688.802,549.845 686.802,551.178 685.5,553.5C 682.911,554.419 680.911,556.086 679.5,558.5C 677.5,559.167 676.167,560.5 675.5,562.5C 673.412,564.336 672.079,566.669 671.5,569.5C 670.094,569.973 669.427,570.973 669.5,572.5C 667.795,575.261 666.462,578.261 665.5,581.5C 662.418,586.347 660.418,591.681 659.5,597.5C 659.5,597.833 659.5,598.167 659.5,598.5C 657.256,603.233 655.589,608.233 654.5,613.5C 653.232,615.905 652.565,618.572 652.5,621.5C 651.566,622.568 651.232,623.901 651.5,625.5C 649.26,629.098 647.926,633.098 647.5,637.5C 646.232,639.905 645.565,642.572 645.5,645.5C 644.262,647.214 643.595,649.214 643.5,651.5C 643.5,652.167 643.5,652.833 643.5,653.5C 641.59,656.452 640.59,659.786 640.5,663.5C 640.768,665.099 640.434,666.432 639.5,667.5C 638.087,670.382 637.421,673.549 637.5,677C 637.3,679.866 637.967,682.366 639.5,684.5C 639.5,684.833 639.5,685.167 639.5,685.5C 639.427,687.027 640.094,688.027 641.5,688.5C 642.585,690.587 644.251,691.92 646.5,692.5C 649.518,692.665 652.518,692.498 655.5,692C 656.416,691.722 657.082,691.222 657.5,690.5C 657.833,690.5 658.167,690.5 658.5,690.5C 659.167,690.5 659.5,690.833 659.5,691.5C 659.121,696.297 659.621,700.964 661,705.5C 664.705,709.617 669.205,710.617 674.5,708.5C 676.098,710.857 677.098,713.523 677.5,716.5C 678.401,717.29 679.068,718.29 679.5,719.5C 680.43,723.093 682.763,724.759 686.5,724.5C 689.959,725.865 693.292,725.531 696.5,723.5C 697.5,722.167 698.5,720.833 699.5,719.5C 700.705,717.862 702.038,717.529 703.5,718.5C 707.837,726.495 714.503,729.329 723.5,727C 728.253,724.99 731.253,721.49 732.5,716.5C 732.833,716.5 733.167,716.5 733.5,716.5C 733.328,717.492 733.662,718.158 734.5,718.5C 735.124,720.754 736.457,722.421 738.5,723.5C 738.611,724.117 738.944,724.617 739.5,725C 742.696,725.805 745.696,725.638 748.5,724.5C 750.179,724.715 751.179,724.048 751.5,722.5C 753.5,722.5 754.5,721.5 754.5,719.5C 754.833,718.833 755.167,718.167 755.5,717.5C 756.338,717.158 756.672,716.492 756.5,715.5C 757.167,713.167 757.833,710.833 758.5,708.5C 768.011,711.083 773.678,707.583 775.5,698C 774.582,695.239 773.916,692.406 773.5,689.5C 774.167,689.5 774.833,689.5 775.5,689.5C 776.058,690.79 777.058,691.623 778.5,692C 786.308,693.429 791.975,690.596 795.5,683.5C 796.163,681.359 796.497,679.025 796.5,676.5C 796.637,672.553 795.97,668.886 794.5,665.5C 792.898,661.761 791.898,657.761 791.5,653.5C 791.59,650.848 790.924,648.515 789.5,646.5C 789.5,646.167 789.5,645.833 789.5,645.5C 789.771,643.62 789.104,642.287 787.5,641.5C 787.59,638.848 786.924,636.515 785.5,634.5C 785.768,632.901 785.434,631.568 784.5,630.5C 784.279,627.933 783.612,625.599 782.5,623.5C 782.405,621.214 781.738,619.214 780.5,617.5C 779.596,616.791 779.263,615.791 779.5,614.5C 778.407,608.099 776.407,602.099 773.5,596.5C 773.116,594.071 772.449,591.737 771.5,589.5C 769.261,582.898 766.594,576.565 763.5,570.5C 762.567,567.63 760.9,565.296 758.5,563.5C 758.262,561.596 757.262,560.262 755.5,559.5C 754.5,557.833 753.167,556.5 751.5,555.5C 751.167,555.5 750.833,555.5 750.5,555.5C 748.513,552.515 745.846,550.515 742.5,549.5C 741.167,548.167 741.167,546.833 742.5,545.5C 747.983,540.687 752.317,535.02 755.5,528.5C 757.074,526.898 757.741,524.898 757.5,522.5C 758.22,516.862 758.553,511.196 758.5,505.5C 758.706,502.505 758.04,499.838 756.5,497.5C 756.34,495.847 755.674,494.514 754.5,493.5C 754.25,491.326 753.25,489.659 751.5,488.5C 748.325,482.476 743.992,477.476 738.5,473.5C 738.5,418.167 738.5,362.833 738.5,307.5C 751.474,301.347 764.474,295.181 777.5,289C 780.067,286.604 782.4,284.104 784.5,281.5C 786.033,279.366 786.7,276.866 786.5,274C 786.494,271.967 786.161,270.134 785.5,268.5C 784.452,264.618 782.119,261.785 778.5,260C 650.637,194.571 523.304,128.404 396.5,61.5C 396.082,60.7784 395.416,60.2784 394.5,60C 388.984,59.1826 383.65,59.3493 378.5,60.5C 254.198,127.319 129.865,194.152 5.5,261C 3.59981,263.335 1.59981,265.502 -0.5,267.5C -0.5,178.167 -0.5,88.8333 -0.5,-0.5 Z"/></g>
<g><path style="opacity:1" fill="#595b5f" d="M 378.5,60.5 C 383.65,59.3493 388.984,59.1826 394.5,60C 395.416,60.2784 396.082,60.7784 396.5,61.5C 390.545,60.6365 384.545,60.3032 378.5,60.5 Z"/></g>
<g><path style="opacity:1" fill="#010c11" d="M 378.5,60.5 C 384.545,60.3032 390.545,60.6365 396.5,61.5C 523.304,128.404 650.637,194.571 778.5,260C 782.119,261.785 784.452,264.618 785.5,268.5C 785.628,272.881 785.295,277.215 784.5,281.5C 782.4,284.104 780.067,286.604 777.5,289C 764.474,295.181 751.474,301.347 738.5,307.5C 738.167,307.5 737.833,307.5 737.5,307.5C 734.515,308.326 731.849,309.659 729.5,311.5C 721.556,314.975 713.889,318.642 706.5,322.5C 705.508,322.328 704.842,322.662 704.5,323.5C 700.849,324.659 697.515,326.326 694.5,328.5C 690.042,330.229 685.709,332.229 681.5,334.5C 679.545,335.323 677.545,335.49 675.5,335C 659.123,327.978 643.123,320.145 627.5,311.5C 649.383,301.433 671.383,291.766 693.5,282.5C 698.02,280.074 702.687,277.907 707.5,276C 709.79,274.223 711.457,272.056 712.5,269.5C 714.869,263.189 713.202,258.023 707.5,254C 703.625,252.48 699.625,252.146 695.5,253C 662.62,268.126 629.62,282.959 596.5,297.5C 545.273,272.889 493.94,248.222 442.5,223.5C 442.593,217.137 442.26,210.804 441.5,204.5C 441.139,200.085 439.806,196.085 437.5,192.5C 436.921,189.669 435.588,187.336 433.5,185.5C 432.246,182.907 430.58,180.573 428.5,178.5C 426.984,174.323 423.984,171.989 419.5,171.5C 401.038,160.461 382.038,159.627 362.5,169C 356.336,172.665 351.336,177.498 347.5,183.5C 342.851,186.865 340.184,191.532 339.5,197.5C 337.926,199.102 337.259,201.102 337.5,203.5C 335.981,206.526 335.315,209.859 335.5,213.5C 335.503,216.025 335.837,218.359 336.5,220.5C 336.808,226.353 337.975,232.019 340,237.5C 340.949,239.093 342.115,240.426 343.5,241.5C 344.956,246.293 347.623,250.293 351.5,253.5C 363.827,266.93 379.16,272.097 397.5,269C 400.251,268.057 402.917,267.224 405.5,266.5C 407.435,265.85 409.435,265.517 411.5,265.5C 411.369,266.376 411.702,267.043 412.5,267.5C 420.169,271.32 427.836,274.987 435.5,278.5C 437.456,279.492 439.456,280.492 441.5,281.5C 444.378,283.105 447.378,284.439 450.5,285.5C 455.201,288.404 460.201,290.737 465.5,292.5C 466.514,293.674 467.847,294.34 469.5,294.5C 474.696,297.514 480.029,300.347 485.5,303C 487.518,303.505 489.518,304.005 491.5,304.5C 499.787,309.31 508.453,313.643 517.5,317.5C 528.926,324.211 540.926,329.878 553.5,334.5C 556.144,336.723 559.144,338.389 562.5,339.5C 573.752,345.027 585.085,350.361 596.5,355.5C 601.24,358.534 606.24,361.201 611.5,363.5C 608.593,366.3 605.26,368.633 601.5,370.5C 593.531,373.151 586.198,376.818 579.5,381.5C 575.675,382.074 572.009,383.241 568.5,385C 562.136,388.514 555.803,392.014 549.5,395.5C 546.519,395.182 544.185,396.182 542.5,398.5C 538.407,399.382 534.74,401.049 531.5,403.5C 523.088,406.952 515.088,410.952 507.5,415.5C 501.656,416.757 496.323,419.091 491.5,422.5C 483.43,425.369 475.763,429.035 468.5,433.5C 465.088,434.075 462.088,435.408 459.5,437.5C 445.316,443.871 431.316,450.538 417.5,457.5C 411.369,459.328 405.702,461.995 400.5,465.5C 396.056,466.889 391.723,468.556 387.5,470.5C 385.072,468.957 382.406,467.957 379.5,467.5C 379.047,466.542 378.381,465.708 377.5,465C 366.133,459.932 354.8,454.765 343.5,449.5C 341.058,447.874 338.391,446.541 335.5,445.5C 333.211,443.613 330.545,442.279 327.5,441.5C 319.238,437.791 311.238,433.791 303.5,429.5C 298.701,425.205 293.034,422.538 286.5,421.5C 282.164,419.496 277.831,417.496 273.5,415.5C 273.047,414.542 272.381,413.708 271.5,413C 263.531,409.054 255.531,405.054 247.5,401C 246.207,400.51 244.873,400.343 243.5,400.5C 242.833,400.5 242.5,400.167 242.5,399.5C 236.733,396.041 230.733,392.874 224.5,390C 224.833,389.667 225.167,389.333 225.5,389C 221.649,388.586 217.983,387.752 214.5,386.5C 204.524,382.18 194.524,377.847 184.5,373.5C 175.777,367.649 166.443,362.982 156.5,359.5C 115.974,339.737 75.3076,320.237 34.5,301C 26.6509,297.273 18.6509,293.94 10.5,291C 5.53625,287.876 1.86958,283.709 -0.5,278.5C -0.5,274.833 -0.5,271.167 -0.5,267.5C 1.59981,265.502 3.59981,263.335 5.5,261C 129.865,194.152 254.198,127.319 378.5,60.5 Z"/></g>
<g><path style="opacity:1" fill="#fdfaf9" d="M 419.5,171.5 C 419.833,172.5 420.5,173.167 421.5,173.5C 422.512,176.257 423.512,178.924 424.5,181.5C 425.194,191.124 420.861,196.457 411.5,197.5C 398.615,189.417 385.948,189.584 373.5,198C 370.619,200.279 368.619,203.112 367.5,206.5C 364.965,210.355 363.965,214.688 364.5,219.5C 364.039,227.131 360.039,230.631 352.5,230C 350.677,229.003 349.01,227.836 347.5,226.5C 342.079,217.643 340.079,207.976 341.5,197.5C 343.463,192.897 345.463,188.23 347.5,183.5C 351.336,177.498 356.336,172.665 362.5,169C 382.038,159.627 401.038,160.461 419.5,171.5 Z"/></g>
<g><path style="opacity:1" fill="#370a07" d="M 419.5,171.5 C 423.984,171.989 426.984,174.323 428.5,178.5C 426.427,176.42 424.093,174.754 421.5,173.5C 420.5,173.167 419.833,172.5 419.5,171.5 Z"/></g>
<g><path style="opacity:1" fill="#9b1d15" d="M 421.5,173.5 C 424.093,174.754 426.427,176.42 428.5,178.5C 430.58,180.573 432.246,182.907 433.5,185.5C 430.536,183.038 427.703,180.371 425,177.5C 424.51,178.793 424.343,180.127 424.5,181.5C 423.512,178.924 422.512,176.257 421.5,173.5 Z"/></g>
<g><path style="opacity:1" fill="#902a26" d="M 347.5,183.5 C 345.463,188.23 343.463,192.897 341.5,197.5C 341.631,196.761 341.464,196.094 341,195.5C 340.722,196.416 340.222,197.082 339.5,197.5C 340.184,191.532 342.851,186.865 347.5,183.5 Z"/></g>
<g><path style="opacity:1" fill="#681412" d="M 437.5,192.5 C 439.806,196.085 441.139,200.085 441.5,204.5C 439.589,200.767 438.256,196.767 437.5,192.5 Z"/></g>
<g><path style="opacity:1" fill="#db2817" d="M 411.5,197.5 C 409.213,200.616 406.38,203.283 403,205.5C 399.393,211.663 397.393,218.33 397,225.5C 388.699,244.276 374.199,253.609 353.5,253.5C 352.833,253.5 352.167,253.5 351.5,253.5C 347.623,250.293 344.956,246.293 343.5,241.5C 342.014,237.188 340.514,232.854 339,228.5C 338.333,225.5 338.333,222.5 339,219.5C 340.135,219.727 341.302,220.06 342.5,220.5C 343.747,222.042 343.747,223.542 342.5,225C 343.74,227.473 345.407,227.973 347.5,226.5C 349.01,227.836 350.677,229.003 352.5,230C 360.039,230.631 364.039,227.131 364.5,219.5C 365.402,215.245 366.402,210.911 367.5,206.5C 368.619,203.112 370.619,200.279 373.5,198C 385.948,189.584 398.615,189.417 411.5,197.5 Z"/></g>
<g><path style="opacity:1" fill="#600b0e" d="M 337.5,203.5 C 336.708,209.13 336.375,214.797 336.5,220.5C 335.837,218.359 335.503,216.025 335.5,213.5C 335.315,209.859 335.981,206.526 337.5,203.5 Z"/></g>
<g><path style="opacity:1" fill="#d46a5b" d="M 367.5,206.5 C 366.402,210.911 365.402,215.245 364.5,219.5C 363.965,214.688 364.965,210.355 367.5,206.5 Z"/></g>
<g><path style="opacity:1" fill="#c73425" d="M 341.5,197.5 C 340.079,207.976 342.079,217.643 347.5,226.5C 345.407,227.973 343.74,227.473 342.5,225C 343.747,223.542 343.747,222.042 342.5,220.5C 341.302,220.06 340.135,219.727 339,219.5C 338.333,222.5 338.333,225.5 339,228.5C 340.514,232.854 342.014,237.188 343.5,241.5C 342.115,240.426 340.949,239.093 340,237.5C 337.975,232.019 336.808,226.353 336.5,220.5C 336.375,214.797 336.708,209.13 337.5,203.5C 337.259,201.102 337.926,199.102 339.5,197.5C 340.222,197.082 340.722,196.416 341,195.5C 341.464,196.094 341.631,196.761 341.5,197.5 Z"/></g>
<g><path style="opacity:1" fill="#ae1001" d="M 433.5,185.5 C 435.588,187.336 436.921,189.669 437.5,192.5C 438.256,196.767 439.589,200.767 441.5,204.5C 442.26,210.804 442.593,217.137 442.5,223.5C 441.434,229.642 439.767,235.642 437.5,241.5C 431.066,251.935 422.399,259.935 411.5,265.5C 409.435,265.517 407.435,265.85 405.5,266.5C 400.146,266.471 394.813,266.805 389.5,267.5C 381.713,267.502 374.379,266.002 367.5,263C 368.579,262.044 369.745,261.211 371,260.5C 371.688,259.668 371.521,259.002 370.5,258.5C 366.223,258.079 361.89,257.912 357.5,258C 355.959,256.629 354.625,255.129 353.5,253.5C 374.199,253.609 388.699,244.276 397,225.5C 397.393,218.33 399.393,211.663 403,205.5C 406.38,203.283 409.213,200.616 411.5,197.5C 420.861,196.457 425.194,191.124 424.5,181.5C 424.343,180.127 424.51,178.793 425,177.5C 427.703,180.371 430.536,183.038 433.5,185.5 Z"/></g>
<g><path style="opacity:1" fill="#fcfafa" d="M 442.5,223.5 C 493.94,248.222 545.273,272.889 596.5,297.5C 629.62,282.959 662.62,268.126 695.5,253C 699.625,252.146 703.625,252.48 707.5,254C 713.202,258.023 714.869,263.189 712.5,269.5C 712.565,269.062 712.399,268.728 712,268.5C 707.129,270.352 702.629,272.852 698.5,276C 696.21,277.777 694.543,279.944 693.5,282.5C 671.383,291.766 649.383,301.433 627.5,311.5C 643.123,320.145 659.123,327.978 675.5,335C 677.545,335.49 679.545,335.323 681.5,334.5C 682.272,339.544 684.272,344.044 687.5,348C 684.593,351.395 681.927,354.895 679.5,358.5C 598.355,319.924 517.688,280.924 437.5,241.5C 439.767,235.642 441.434,229.642 442.5,223.5 Z"/></g>
<g><path style="opacity:1" fill="#fafbfb" d="M 160.5,260.5 C 166.233,259.895 171.566,261.062 176.5,264C 245.646,298.404 315.312,332.071 385.5,365C 387.5,365.667 389.5,365.667 391.5,365C 421.336,351.72 451.003,338.054 480.5,324C 495.622,324.766 500.122,331.932 494,345.5C 461.301,361.932 428.134,377.432 394.5,392C 390.833,392.667 387.167,392.667 383.5,392C 308.185,355.88 232.852,319.547 157.5,283C 150.232,274.374 151.232,266.874 160.5,260.5 Z"/></g>
<g><path style="opacity:1" fill="#9c140a" d="M 351.5,253.5 C 352.167,253.5 352.833,253.5 353.5,253.5C 354.625,255.129 355.959,256.629 357.5,258C 361.89,257.912 366.223,258.079 370.5,258.5C 371.521,259.002 371.688,259.668 371,260.5C 369.745,261.211 368.579,262.044 367.5,263C 374.379,266.002 381.713,267.502 389.5,267.5C 394.813,266.805 400.146,266.471 405.5,266.5C 402.917,267.224 400.251,268.057 397.5,269C 379.16,272.097 363.827,266.93 351.5,253.5 Z"/></g>
<g><path style="opacity:1" fill="#96aef2" d="M 712.5,269.5 C 711.457,272.056 709.79,274.223 707.5,276C 702.687,277.907 698.02,280.074 693.5,282.5C 694.543,279.944 696.21,277.777 698.5,276C 702.629,272.852 707.129,270.352 712,268.5C 712.399,268.728 712.565,269.062 712.5,269.5 Z"/></g>
<g><path style="opacity:1" fill="#888b94" d="M 785.5,268.5 C 786.161,270.134 786.494,271.967 786.5,274C 786.7,276.866 786.033,279.366 784.5,281.5C 785.295,277.215 785.628,272.881 785.5,268.5 Z"/></g>
<g><path style="opacity:1" fill="#791611" d="M 435.5,278.5 C 438.313,278.025 440.313,279.025 441.5,281.5C 439.456,280.492 437.456,279.492 435.5,278.5 Z"/></g>
<g><path style="opacity:1" fill="#b0291b" d="M 450.5,285.5 C 454.75,285.791 458.75,286.957 462.5,289C 463.71,290.039 464.71,291.206 465.5,292.5C 460.201,290.737 455.201,288.404 450.5,285.5 Z"/></g>
<g><path style="opacity:1" fill="#a82319" d="M 469.5,294.5 C 477.72,296.118 485.054,299.452 491.5,304.5C 489.518,304.005 487.518,303.505 485.5,303C 480.029,300.347 474.696,297.514 469.5,294.5 Z"/></g>
<g><path style="opacity:1" fill="#d72817" d="M 437.5,241.5 C 517.688,280.924 598.355,319.924 679.5,358.5C 681.181,360.008 683.181,361.008 685.5,361.5C 685.833,361.5 686.167,361.5 686.5,361.5C 686.973,362.906 687.973,363.573 689.5,363.5C 690.5,363.833 691.167,364.5 691.5,365.5C 691.427,367.027 692.094,368.027 693.5,368.5C 694.761,373.842 694.761,379.175 693.5,384.5C 692.026,385.436 691.026,386.77 690.5,388.5C 688.463,389.846 686.463,391.18 684.5,392.5C 683.833,392.5 683.167,392.5 682.5,392.5C 679.482,392.665 676.482,392.498 673.5,392C 671.073,390.409 668.407,389.575 665.5,389.5C 659.071,385.619 652.404,382.285 645.5,379.5C 645.586,378.504 645.252,377.671 644.5,377C 641.883,376.178 639.216,375.678 636.5,375.5C 635.486,374.326 634.153,373.66 632.5,373.5C 629.897,372.256 627.564,370.589 625.5,368.5C 624.022,364.842 621.522,363.842 618,365.5C 616.594,364.586 615.094,363.92 613.5,363.5C 612.833,363.5 612.167,363.5 611.5,363.5C 611.5,362.5 611.5,361.5 611.5,360.5C 606.827,358.053 601.827,356.387 596.5,355.5C 585.085,350.361 573.752,345.027 562.5,339.5C 560.168,336.728 557.168,335.061 553.5,334.5C 549.126,331.659 544.459,328.992 539.5,326.5C 532.389,322.944 525.056,319.944 517.5,317.5C 508.453,313.643 499.787,309.31 491.5,304.5C 485.054,299.452 477.72,296.118 469.5,294.5C 467.847,294.34 466.514,293.674 465.5,292.5C 464.71,291.206 463.71,290.039 462.5,289C 458.75,286.957 454.75,285.791 450.5,285.5C 447.378,284.439 444.378,283.105 441.5,281.5C 440.313,279.025 438.313,278.025 435.5,278.5C 427.836,274.987 420.169,271.32 412.5,267.5C 411.702,267.043 411.369,266.376 411.5,265.5C 422.399,259.935 431.066,251.935 437.5,241.5 Z"/></g>
<g><path style="opacity:1" fill="#dc2514" d="M 729.5,467.5 C 727.302,466.835 724.969,466.168 722.5,465.5C 722.069,464.707 721.735,463.873 721.5,463C 722.777,461.112 723.777,459.112 724.5,457C 723.365,452.252 723.198,447.419 724,442.5C 724.333,442.167 724.667,441.833 725,441.5C 725.49,442.793 725.657,444.127 725.5,445.5C 727.5,445.5 729.5,445.5 731.5,445.5C 731.681,440.041 732.348,434.708 733.5,429.5C 733.565,426.375 733.065,423.375 732,420.5C 731.501,425.489 731.334,430.489 731.5,435.5C 730.167,435.5 728.833,435.5 727.5,435.5C 727.62,432.795 726.62,432.128 724.5,433.5C 723.167,429.5 723.167,425.5 724.5,421.5C 726.127,430.744 727.127,430.744 727.5,421.5C 731.5,420.833 731.5,420.167 727.5,419.5C 727.688,417.897 727.188,416.563 726,415.5C 724.951,417.107 723.451,417.773 721.5,417.5C 721.5,414.833 721.5,412.167 721.5,409.5C 722.833,409.5 724.167,409.5 725.5,409.5C 725.343,410.873 725.51,412.207 726,413.5C 727.375,411.063 727.875,408.397 727.5,405.5C 731.5,404.833 731.5,404.167 727.5,403.5C 727.688,401.897 727.188,400.563 726,399.5C 724.951,401.107 723.451,401.773 721.5,401.5C 721.917,398.657 722.917,395.99 724.5,393.5C 725.281,394.729 725.781,396.062 726,397.5C 727.375,395.063 727.875,392.397 727.5,389.5C 731.5,388.833 731.5,388.167 727.5,387.5C 727.529,384.227 726.196,383.56 723.5,385.5C 721.666,384.246 719.666,383.579 717.5,383.5C 717.5,378.833 717.5,374.167 717.5,369.5C 719.5,369.5 721.5,369.5 723.5,369.5C 723.827,364.786 723.493,360.12 722.5,355.5C 720.483,352.45 719.483,349.117 719.5,345.5C 720.833,345.5 722.167,345.5 723.5,345.5C 723.5,342.833 723.5,340.167 723.5,337.5C 718.5,337.5 713.5,337.5 708.5,337.5C 708.173,332.456 708.506,327.456 709.5,322.5C 716.079,320.081 722.412,317.081 728.5,313.5C 729.298,313.043 729.631,312.376 729.5,311.5C 731.861,311.326 734.194,310.993 736.5,310.5C 736.833,363.837 736.5,417.171 735.5,470.5C 733.22,469.864 731.22,468.864 729.5,467.5 Z"/></g>
<g><path style="opacity:1" fill="#aa231a" d="M 517.5,317.5 C 525.056,319.944 532.389,322.944 539.5,326.5C 544.459,328.992 549.126,331.659 553.5,334.5C 540.926,329.878 528.926,324.211 517.5,317.5 Z"/></g>
<g><path style="opacity:1" fill="#dcd8e6" d="M 704.5,323.5 C 706.495,370.822 707.162,418.488 706.5,466.5C 705.667,419.668 705.167,372.668 705,325.5C 704.667,325.167 704.333,324.833 704,324.5C 701.104,326.533 697.937,327.866 694.5,328.5C 697.515,326.326 700.849,324.659 704.5,323.5 Z"/></g>
<g><path style="opacity:1" fill="#bb291c" d="M 729.5,311.5 C 729.631,312.376 729.298,313.043 728.5,313.5C 722.412,317.081 716.079,320.081 709.5,322.5C 708.506,327.456 708.173,332.456 708.5,337.5C 708.5,380.5 708.5,423.5 708.5,466.5C 713.032,466.182 717.366,466.515 721.5,467.5C 716.833,467.5 712.167,467.5 707.5,467.5C 707.832,418.997 707.499,370.664 706.5,322.5C 713.889,318.642 721.556,314.975 729.5,311.5 Z"/></g>
<g><path style="opacity:1" fill="#a7271e" d="M 553.5,334.5 C 557.168,335.061 560.168,336.728 562.5,339.5C 559.144,338.389 556.144,336.723 553.5,334.5 Z"/></g>
<g><path style="opacity:0.927" fill="#a8a8a6" d="M 786.5,340.5 C 788.179,338.825 790.179,337.992 792.5,338C 789.673,342.492 787.506,347.325 786,352.5C 785.188,348.311 785.355,344.311 786.5,340.5 Z"/></g>
<g><path style="opacity:1" fill="#d72616" d="M 708.5,337.5 C 713.5,337.5 718.5,337.5 723.5,337.5C 723.5,340.167 723.5,342.833 723.5,345.5C 722.167,345.5 720.833,345.5 719.5,345.5C 719.483,349.117 720.483,352.45 722.5,355.5C 723.493,360.12 723.827,364.786 723.5,369.5C 721.5,369.5 719.5,369.5 717.5,369.5C 717.5,374.167 717.5,378.833 717.5,383.5C 719.666,383.579 721.666,384.246 723.5,385.5C 726.196,383.56 727.529,384.227 727.5,387.5C 731.5,388.167 731.5,388.833 727.5,389.5C 727.875,392.397 727.375,395.063 726,397.5C 725.781,396.062 725.281,394.729 724.5,393.5C 722.917,395.99 721.917,398.657 721.5,401.5C 723.451,401.773 724.951,401.107 726,399.5C 727.188,400.563 727.688,401.897 727.5,403.5C 731.5,404.167 731.5,404.833 727.5,405.5C 727.875,408.397 727.375,411.063 726,413.5C 725.51,412.207 725.343,410.873 725.5,409.5C 724.167,409.5 722.833,409.5 721.5,409.5C 721.5,412.167 721.5,414.833 721.5,417.5C 723.451,417.773 724.951,417.107 726,415.5C 727.188,416.563 727.688,417.897 727.5,419.5C 731.5,420.167 731.5,420.833 727.5,421.5C 727.127,430.744 726.127,430.744 724.5,421.5C 723.167,425.5 723.167,429.5 724.5,433.5C 726.62,432.128 727.62,432.795 727.5,435.5C 728.833,435.5 730.167,435.5 731.5,435.5C 731.334,430.489 731.501,425.489 732,420.5C 733.065,423.375 733.565,426.375 733.5,429.5C 732.348,434.708 731.681,440.041 731.5,445.5C 729.5,445.5 727.5,445.5 725.5,445.5C 725.657,444.127 725.49,442.793 725,441.5C 724.667,441.833 724.333,442.167 724,442.5C 723.198,447.419 723.365,452.252 724.5,457C 723.777,459.112 722.777,461.112 721.5,463C 721.735,463.873 722.069,464.707 722.5,465.5C 724.969,466.168 727.302,466.835 729.5,467.5C 728.167,467.5 726.833,467.5 725.5,467.5C 724.167,467.5 722.833,467.5 721.5,467.5C 717.366,466.515 713.032,466.182 708.5,466.5C 708.5,423.5 708.5,380.5 708.5,337.5 Z"/></g>
<g><path style="opacity:1" fill="#ae281a" d="M 596.5,355.5 C 601.827,356.387 606.827,358.053 611.5,360.5C 611.5,361.5 611.5,362.5 611.5,363.5C 606.24,361.201 601.24,358.534 596.5,355.5 Z"/></g>
<g><path style="opacity:1" fill="#f4acad" d="M 679.5,358.5 C 682.089,358.461 684.089,359.461 685.5,361.5C 683.181,361.008 681.181,360.008 679.5,358.5 Z"/></g>
<g><path style="opacity:1" fill="#f1ccd2" d="M 686.5,361.5 C 688.027,361.427 689.027,362.094 689.5,363.5C 687.973,363.573 686.973,362.906 686.5,361.5 Z"/></g>
<g><path style="opacity:1" fill="#80180f" d="M 611.5,363.5 C 612.167,363.5 612.833,363.5 613.5,363.5C 613.489,365.017 612.823,366.184 611.5,367C 608.439,369.035 605.105,370.201 601.5,370.5C 605.26,368.633 608.593,366.3 611.5,363.5 Z"/></g>
<g><path style="opacity:1" fill="#ed9f9a" d="M 691.5,365.5 C 692.906,365.973 693.573,366.973 693.5,368.5C 692.094,368.027 691.427,367.027 691.5,365.5 Z"/></g>
<g><path style="opacity:1" fill="#af1301" d="M 613.5,363.5 C 615.094,363.92 616.594,364.586 618,365.5C 621.522,363.842 624.022,364.842 625.5,368.5C 624.833,368.5 624.167,368.5 623.5,368.5C 622.791,367.596 621.791,367.263 620.5,367.5C 620.5,382.833 620.5,398.167 620.5,413.5C 616.277,415.979 611.944,418.313 607.5,420.5C 573.385,435.344 539.385,451.01 505.5,467.5C 502.132,467.655 499.465,468.988 497.5,471.5C 480.367,478.338 463.7,486.005 447.5,494.5C 427.606,503.492 407.606,512.492 387.5,521.5C 387.5,512.833 387.5,504.167 387.5,495.5C 388.813,487.599 388.813,479.599 387.5,471.5C 392.506,470.829 396.839,468.829 400.5,465.5C 407.225,464.721 412.891,462.055 417.5,457.5C 418.873,457.657 420.207,457.49 421.5,457C 427.046,454.06 432.713,451.394 438.5,449C 440.112,448.28 441.612,448.446 443,449.5C 443.483,448.552 443.649,447.552 443.5,446.5C 448.286,443.944 453.286,441.61 458.5,439.5C 459.298,439.043 459.631,438.376 459.5,437.5C 462.088,435.408 465.088,434.075 468.5,433.5C 471.875,433.233 475.042,432.233 478,430.5C 479.368,431.703 480.868,432.703 482.5,433.5C 483.635,431.293 484.301,428.96 484.5,426.5C 486.527,426.662 488.527,426.495 490.5,426C 491.337,424.989 491.67,423.822 491.5,422.5C 497.344,421.243 502.677,418.909 507.5,415.5C 515.088,410.952 523.088,406.952 531.5,403.5C 535.836,403.163 539.503,401.496 542.5,398.5C 544.185,396.182 546.519,395.182 549.5,395.5C 550.873,395.657 552.207,395.49 553.5,395C 561.901,389.823 570.568,385.323 579.5,381.5C 586.198,376.818 593.531,373.151 601.5,370.5C 605.105,370.201 608.439,369.035 611.5,367C 612.823,366.184 613.489,365.017 613.5,363.5 Z"/></g>
<g><path style="opacity:1" fill="#c44335" d="M 156.5,359.5 C 166.443,362.982 175.777,367.649 184.5,373.5C 179.521,372.481 175.188,370.314 171.5,367C 167.238,365.191 162.904,363.691 158.5,362.5C 158.334,370.174 158.5,377.841 159,385.5C 160.729,385.974 161.895,386.974 162.5,388.5C 161.833,388.5 161.167,388.5 160.5,388.5C 159.469,387.751 158.302,387.085 157,386.5C 156.5,377.506 156.334,368.506 156.5,359.5 Z"/></g>
<g><path style="opacity:1" fill="#f7d9d5" d="M 623.5,368.5 C 624.167,368.5 624.833,368.5 625.5,368.5C 627.564,370.589 629.897,372.256 632.5,373.5C 628.929,372.358 625.262,371.691 621.5,371.5C 621.285,369.821 621.952,368.821 623.5,368.5 Z"/></g>
<g><path style="opacity:1" fill="#df827e" d="M 693.5,368.5 C 695.047,370.807 695.713,373.473 695.5,376.5C 695.713,379.527 695.047,382.193 693.5,384.5C 694.761,379.175 694.761,373.842 693.5,368.5 Z"/></g>
<g><path style="opacity:1" fill="#bf2115" d="M 737.5,307.5 C 738.162,362.51 737.496,417.177 735.5,471.5C 731.851,470.733 728.518,469.4 725.5,467.5C 726.833,467.5 728.167,467.5 729.5,467.5C 731.22,468.864 733.22,469.864 735.5,470.5C 736.5,417.171 736.833,363.837 736.5,310.5C 734.194,310.993 731.861,311.326 729.5,311.5C 731.849,309.659 734.515,308.326 737.5,307.5 Z"/></g>
<g><path style="opacity:1" fill="#dd645c" d="M 636.5,375.5 C 639.216,375.678 641.883,376.178 644.5,377C 645.252,377.671 645.586,378.504 645.5,379.5C 642.256,378.537 639.256,377.204 636.5,375.5 Z"/></g>
<g><path style="opacity:1" fill="#f69f93" d="M 623.5,368.5 C 621.952,368.821 621.285,369.821 621.5,371.5C 621.5,385.5 621.5,399.5 621.5,413.5C 621.167,413.5 620.833,413.5 620.5,413.5C 620.5,398.167 620.5,382.833 620.5,367.5C 621.791,367.263 622.791,367.596 623.5,368.5 Z"/></g>
<g><path style="opacity:1" fill="#efa6ad" d="M 693.5,384.5 C 693.446,386.632 692.446,387.965 690.5,388.5C 691.026,386.77 692.026,385.436 693.5,384.5 Z"/></g>
<g><path style="opacity:1" fill="#d26d69" d="M 737.5,307.5 C 737.833,307.5 738.167,307.5 738.5,307.5C 738.5,362.833 738.5,418.167 738.5,473.5C 737.29,473.068 736.29,472.401 735.5,471.5C 737.496,417.177 738.162,362.51 737.5,307.5 Z"/></g>
<g><path style="opacity:1" fill="#fcfbfb" d="M 160.5,388.5 C 161.167,388.5 161.833,388.5 162.5,388.5C 219.614,416.391 276.947,443.724 334.5,470.5C 351.977,479.07 369.643,487.403 387.5,495.5C 387.5,504.167 387.5,512.833 387.5,521.5C 310.584,486.877 234.251,450.877 158.5,413.5C 157.833,419.319 157.167,424.986 156.5,430.5C 156.779,424.285 155.779,418.285 153.5,412.5C 156.997,404.839 159.331,396.839 160.5,388.5 Z"/></g>
<g><path style="opacity:1" fill="#851e14" d="M 579.5,381.5 C 570.568,385.323 561.901,389.823 553.5,395C 552.207,395.49 550.873,395.657 549.5,395.5C 555.803,392.014 562.136,388.514 568.5,385C 572.009,383.241 575.675,382.074 579.5,381.5 Z"/></g>
<g><path style="opacity:1" fill="#f2c3c3" d="M 690.5,388.5 C 689.608,391.292 687.608,392.625 684.5,392.5C 686.463,391.18 688.463,389.846 690.5,388.5 Z"/></g>
<g><path style="opacity:1" fill="#d96662" d="M 665.5,389.5 C 668.407,389.575 671.073,390.409 673.5,392C 676.482,392.498 679.482,392.665 682.5,392.5C 676.352,394.318 670.686,393.318 665.5,389.5 Z"/></g>
<g><path style="opacity:1" fill="#230907" d="M 214.5,386.5 C 217.983,387.752 221.649,388.586 225.5,389C 225.167,389.333 224.833,389.667 224.5,390C 230.733,392.874 236.733,396.041 242.5,399.5C 239.445,398.964 236.445,398.131 233.5,397C 227.218,393.203 220.884,389.703 214.5,386.5 Z"/></g>
<g><path style="opacity:1" fill="#d62818" d="M 184.5,373.5 C 194.524,377.847 204.524,382.18 214.5,386.5C 220.884,389.703 227.218,393.203 233.5,397C 236.445,398.131 239.445,398.964 242.5,399.5C 242.5,400.167 242.833,400.5 243.5,400.5C 253.491,405.498 263.491,410.498 273.5,415.5C 277.831,417.496 282.164,419.496 286.5,421.5C 291.718,425.034 297.385,427.701 303.5,429.5C 311.238,433.791 319.238,437.791 327.5,441.5C 328.1,442.9 329.1,443.9 330.5,444.5C 325.713,442.609 320.713,441.609 315.5,441.5C 314.603,446.272 316.603,448.605 321.5,448.5C 322.938,451.823 324.771,452.156 327,449.5C 327.497,452.146 327.664,454.813 327.5,457.5C 323.481,457.354 319.481,457.021 315.5,456.5C 315.5,455.5 315.5,454.5 315.5,453.5C 314.167,453.5 312.833,453.5 311.5,453.5C 311.5,454.833 311.5,456.167 311.5,457.5C 312.833,457.5 314.167,457.5 315.5,457.5C 315.281,458.675 315.614,459.675 316.5,460.5C 321.051,462.395 325.718,463.895 330.5,465C 331.721,467.034 333.055,468.867 334.5,470.5C 276.947,443.724 219.614,416.391 162.5,388.5C 161.895,386.974 160.729,385.974 159,385.5C 158.5,377.841 158.334,370.174 158.5,362.5C 162.904,363.691 167.238,365.191 171.5,367C 175.188,370.314 179.521,372.481 184.5,373.5 Z"/></g>
<g><path style="opacity:1" fill="#811d15" d="M 542.5,398.5 C 539.503,401.496 535.836,403.163 531.5,403.5C 534.74,401.049 538.407,399.382 542.5,398.5 Z"/></g>
<g><path style="opacity:1" fill="#290907" d="M 243.5,400.5 C 244.873,400.343 246.207,400.51 247.5,401C 255.531,405.054 263.531,409.054 271.5,413C 272.381,413.708 273.047,414.542 273.5,415.5C 263.491,410.498 253.491,405.498 243.5,400.5 Z"/></g>
<g><path style="opacity:1" fill="#020c11" d="M 387.5,521.5 C 407.606,512.492 427.606,503.492 447.5,494.5C 451.857,495.204 455.357,493.87 458,490.5C 459.158,490.998 459.991,491.831 460.5,493C 459.852,494.44 459.519,495.94 459.5,497.5C 462.167,497.5 464.833,497.5 467.5,497.5C 467.232,494.881 467.565,492.381 468.5,490C 471.527,490.84 474.527,490.507 477.5,489C 475.941,488.02 474.274,487.187 472.5,486.5C 476.107,485.511 479.774,485.177 483.5,485.5C 483.5,483.167 483.5,480.833 483.5,478.5C 486.066,478.656 488.566,478.322 491,477.5C 492.713,478.137 492.879,479.137 491.5,480.5C 494.086,481.48 496.753,481.813 499.5,481.5C 499.5,484.167 499.5,486.833 499.5,489.5C 494.167,489.5 488.833,489.5 483.5,489.5C 483.5,492.167 483.5,494.833 483.5,497.5C 480.833,497.5 478.167,497.5 475.5,497.5C 475.5,500.167 475.5,502.833 475.5,505.5C 472.833,505.5 470.167,505.5 467.5,505.5C 467.5,508.167 467.5,510.833 467.5,513.5C 464.833,513.5 462.167,513.5 459.5,513.5C 459.5,518.833 459.5,524.167 459.5,529.5C 462.167,529.5 464.833,529.5 467.5,529.5C 467.5,526.833 467.5,524.167 467.5,521.5C 470.167,521.5 472.833,521.5 475.5,521.5C 475.5,518.833 475.5,516.167 475.5,513.5C 478.167,513.5 480.833,513.5 483.5,513.5C 483.5,516.167 483.5,518.833 483.5,521.5C 486.167,521.5 488.833,521.5 491.5,521.5C 491.5,524.167 491.5,526.833 491.5,529.5C 488.833,529.5 486.167,529.5 483.5,529.5C 483.5,534.833 483.5,540.167 483.5,545.5C 491.167,545.5 498.833,545.5 506.5,545.5C 506.5,548.167 506.5,550.833 506.5,553.5C 504.167,553.5 501.833,553.5 499.5,553.5C 499.5,556.167 499.5,558.833 499.5,561.5C 502.167,561.5 504.833,561.5 507.5,561.5C 507.5,564.167 507.5,566.833 507.5,569.5C 508.833,569.5 510.167,569.5 511.5,569.5C 509.545,558.605 508.379,545.605 508,530.5C 504.93,527.55 504.763,524.383 507.5,521C 506.498,519.234 506.832,517.567 508.5,516C 508.153,514.431 507.986,512.598 508,510.5C 509.232,513.3 509.899,516.3 510,519.5C 510.177,515.644 510.677,511.977 511.5,508.5C 512.334,527.851 513.501,547.185 515,566.5C 515.333,590.167 515.667,613.833 516,637.5C 520.287,645.729 526.454,647.563 534.5,643C 536.894,641.048 538.394,638.548 539,635.5C 540.521,593.069 539.188,550.735 535,508.5C 533.341,504.342 530.508,501.342 526.5,499.5C 526.56,498.957 526.893,498.624 527.5,498.5C 532.719,500.135 538.053,501.135 543.5,501.5C 543.5,509.5 543.5,517.5 543.5,525.5C 542.167,525.5 540.833,525.5 539.5,525.5C 540.886,530.217 541.886,535.051 542.5,540C 542.135,542.261 541.469,544.427 540.5,546.5C 541.183,549.461 542.016,549.795 543,547.5C 543.729,550.855 544.562,554.188 545.5,557.5C 543.121,570.589 542.454,583.756 543.5,597C 543.833,598.5 544.167,600 544.5,601.5C 545.97,596.27 546.637,590.937 546.5,585.5C 549.5,585.5 552.5,585.5 555.5,585.5C 555.5,588.167 555.5,590.833 555.5,593.5C 552.833,593.5 550.167,593.5 547.5,593.5C 547.825,598.599 547.325,603.599 546,608.5C 545.751,607.376 545.251,606.376 544.5,605.5C 543.669,612.142 543.169,618.809 543,625.5C 542.161,630.308 540.994,634.974 539.5,639.5C 540.32,641.111 541.654,641.778 543.5,641.5C 543.5,642.833 543.5,644.167 543.5,645.5C 541.143,645.337 538.81,645.503 536.5,646C 535.401,650.418 533.901,650.585 532,646.5C 529.825,647.255 527.659,648.088 525.5,649C 527.473,649.495 529.473,649.662 531.5,649.5C 531.5,652.167 531.5,654.833 531.5,657.5C 526.167,657.5 520.833,657.5 515.5,657.5C 515.5,660.167 515.5,662.833 515.5,665.5C 512.833,665.5 510.167,665.5 507.5,665.5C 507.5,662.833 507.5,660.167 507.5,657.5C 504.833,657.5 502.167,657.5 499.5,657.5C 499.5,660.167 499.5,662.833 499.5,665.5C 492.5,663.833 489.833,666.5 491.5,673.5C 489.5,673.5 487.5,673.5 485.5,673.5C 485.5,670.833 485.5,668.167 485.5,665.5C 482.167,665.5 478.833,665.5 475.5,665.5C 475.5,668.167 475.5,670.833 475.5,673.5C 472.833,673.5 470.167,673.5 467.5,673.5C 467.5,676.167 467.5,678.833 467.5,681.5C 456.833,681.5 446.167,681.5 435.5,681.5C 435.5,684.167 435.5,686.833 435.5,689.5C 432.833,689.5 430.167,689.5 427.5,689.5C 427.5,686.833 427.5,684.167 427.5,681.5C 422.167,681.5 416.833,681.5 411.5,681.5C 411.5,684.167 411.5,686.833 411.5,689.5C 408.833,689.5 406.167,689.5 403.5,689.5C 403.5,686.833 403.5,684.167 403.5,681.5C 400.833,681.5 398.167,681.5 395.5,681.5C 395.5,684.167 395.5,686.833 395.5,689.5C 387.5,689.5 379.5,689.5 371.5,689.5C 371.5,688.167 371.5,686.833 371.5,685.5C 363.5,685.5 355.5,685.5 347.5,685.5C 347.5,684.167 347.5,682.833 347.5,681.5C 344.833,681.5 342.167,681.5 339.5,681.5C 339.5,678.833 339.5,676.167 339.5,673.5C 336.833,673.5 334.167,673.5 331.5,673.5C 331.5,676.167 331.5,678.833 331.5,681.5C 326.167,681.5 320.833,681.5 315.5,681.5C 315.5,684.167 315.5,686.833 315.5,689.5C 312.833,689.5 310.167,689.5 307.5,689.5C 307.5,692.167 307.5,694.833 307.5,697.5C 304.833,697.5 302.167,697.5 299.5,697.5C 299.5,694.833 299.5,692.167 299.5,689.5C 296.833,689.5 294.167,689.5 291.5,689.5C 291.5,686.833 291.5,684.167 291.5,681.5C 288.833,681.5 286.167,681.5 283.5,681.5C 283.5,684.167 283.5,686.833 283.5,689.5C 280.833,689.5 278.167,689.5 275.5,689.5C 275.714,691.144 275.38,692.644 274.5,694C 276.107,695.049 276.773,696.549 276.5,698.5C 278.467,698.739 280.301,698.406 282,697.5C 284.742,701.414 288.408,702.747 293,701.5C 295.241,701.68 295.741,702.513 294.5,704C 306.499,706.435 318.499,708.602 330.5,710.5C 333.103,709.438 335.77,709.272 338.5,710C 339.949,711.117 341.616,711.784 343.5,712C 342.167,712.333 340.833,712.667 339.5,713C 343.62,714.66 347.786,714.827 352,713.5C 364.276,715.016 376.609,715.682 389,715.5C 401.44,715.683 413.773,715.016 426,713.5C 426.71,714.973 427.876,715.64 429.5,715.5C 429.5,715.833 429.5,716.167 429.5,716.5C 421.33,716.899 413.33,717.565 405.5,718.5C 389.491,718.5 373.491,718.166 357.5,717.5C 341.388,715.481 325.388,712.815 309.5,709.5C 305.761,707.898 301.761,706.898 297.5,706.5C 262.241,697.2 229.908,682.033 200.5,661C 178.031,643.385 162.031,621.218 152.5,594.5C 152.59,591.848 151.924,589.515 150.5,587.5C 148.513,576.937 147.513,566.271 147.5,555.5C 148.236,540.812 149.236,526.145 150.5,511.5C 151.972,507.081 152.638,502.414 152.5,497.5C 155.256,475.404 156.59,453.071 156.5,430.5C 157.167,424.986 157.833,419.319 158.5,413.5C 234.251,450.877 310.584,486.877 387.5,521.5 Z"/></g>
<g><path style="opacity:1" fill="#821d13" d="M 507.5,415.5 C 502.677,418.909 497.344,421.243 491.5,422.5C 496.323,419.091 501.656,416.757 507.5,415.5 Z"/></g>
<g><path style="opacity:1" fill="#2b0d0a" d="M 286.5,421.5 C 293.034,422.538 298.701,425.205 303.5,429.5C 297.385,427.701 291.718,425.034 286.5,421.5 Z"/></g>
<g><path style="opacity:1" fill="#070b0f" d="M 607.5,420.5 C 606.119,422.274 606.452,423.774 608.5,425C 607.584,425.374 606.75,425.874 606,426.5C 605.503,428.81 605.337,431.143 605.5,433.5C 602.266,434.576 598.932,435.243 595.5,435.5C 595.5,437.5 595.5,439.5 595.5,441.5C 590.167,441.5 584.833,441.5 579.5,441.5C 579.5,446.833 579.5,452.167 579.5,457.5C 576.833,457.5 574.167,457.5 571.5,457.5C 571.5,460.167 571.5,462.833 571.5,465.5C 574.247,465.187 576.914,465.52 579.5,466.5C 575.463,467.509 571.463,468.509 567.5,469.5C 567.815,471.226 567.981,472.893 568,474.5C 566.644,473.62 565.144,473.286 563.5,473.5C 563.5,470.833 563.5,468.167 563.5,465.5C 548.666,465.32 534,465.654 519.5,466.5C 519.5,468.833 519.5,471.167 519.5,473.5C 516.373,474.391 513.373,474.725 510.5,474.5C 508.426,473.006 506.26,471.673 504,470.5C 503.153,473.49 504.32,474.824 507.5,474.5C 507.5,476.833 507.5,479.167 507.5,481.5C 504.833,481.5 502.167,481.5 499.5,481.5C 496.753,481.813 494.086,481.48 491.5,480.5C 492.879,479.137 492.713,478.137 491,477.5C 488.566,478.322 486.066,478.656 483.5,478.5C 483.5,480.833 483.5,483.167 483.5,485.5C 479.774,485.177 476.107,485.511 472.5,486.5C 474.274,487.187 475.941,488.02 477.5,489C 474.527,490.507 471.527,490.84 468.5,490C 467.565,492.381 467.232,494.881 467.5,497.5C 464.833,497.5 462.167,497.5 459.5,497.5C 459.519,495.94 459.852,494.44 460.5,493C 459.991,491.831 459.158,490.998 458,490.5C 455.357,493.87 451.857,495.204 447.5,494.5C 463.7,486.005 480.367,478.338 497.5,471.5C 500.391,470.459 503.058,469.126 505.5,467.5C 539.385,451.01 573.385,435.344 607.5,420.5 Z"/></g>
<g><path style="opacity:1" fill="#e58f82" d="M 704.5,323.5 C 704.842,322.662 705.508,322.328 706.5,322.5C 707.499,370.664 707.832,418.997 707.5,467.5C 707.158,468.338 706.492,468.672 705.5,468.5C 705.833,467.833 706.167,467.167 706.5,466.5C 707.162,418.488 706.495,370.822 704.5,323.5 Z"/></g>
<g><path style="opacity:1" fill="#9d1b0d" d="M 491.5,422.5 C 491.67,423.822 491.337,424.989 490.5,426C 488.527,426.495 486.527,426.662 484.5,426.5C 484.301,428.96 483.635,431.293 482.5,433.5C 480.868,432.703 479.368,431.703 478,430.5C 475.042,432.233 471.875,433.233 468.5,433.5C 475.763,429.035 483.43,425.369 491.5,422.5 Z"/></g>
<g><path style="opacity:1" fill="#761915" d="M 327.5,441.5 C 330.545,442.279 333.211,443.613 335.5,445.5C 333.883,444.962 332.216,444.629 330.5,444.5C 329.1,443.9 328.1,442.9 327.5,441.5 Z"/></g>
<g><path style="opacity:1" fill="#da2716" d="M 330.5,444.5 C 332.216,444.629 333.883,444.962 335.5,445.5C 335.5,446.5 335.5,447.5 335.5,448.5C 338.167,448.833 340.833,449.167 343.5,449.5C 345.687,451.949 348.353,453.949 351.5,455.5C 360.867,459.52 370.201,463.52 379.5,467.5C 382.406,467.957 385.072,468.957 387.5,470.5C 387.5,470.833 387.5,471.167 387.5,471.5C 388.813,479.599 388.813,487.599 387.5,495.5C 369.643,487.403 351.977,479.07 334.5,470.5C 333.055,468.867 331.721,467.034 330.5,465C 325.718,463.895 321.051,462.395 316.5,460.5C 315.614,459.675 315.281,458.675 315.5,457.5C 314.167,457.5 312.833,457.5 311.5,457.5C 311.5,456.167 311.5,454.833 311.5,453.5C 312.833,453.5 314.167,453.5 315.5,453.5C 315.5,454.5 315.5,455.5 315.5,456.5C 319.481,457.021 323.481,457.354 327.5,457.5C 327.664,454.813 327.497,452.146 327,449.5C 324.771,452.156 322.938,451.823 321.5,448.5C 316.603,448.605 314.603,446.272 315.5,441.5C 320.713,441.609 325.713,442.609 330.5,444.5 Z"/></g>
<g><path style="opacity:1" fill="#a7251d" d="M 335.5,445.5 C 338.391,446.541 341.058,447.874 343.5,449.5C 340.833,449.167 338.167,448.833 335.5,448.5C 335.5,447.5 335.5,446.5 335.5,445.5 Z"/></g>
<g><path style="opacity:1" fill="#861b12" d="M 459.5,437.5 C 459.631,438.376 459.298,439.043 458.5,439.5C 453.286,441.61 448.286,443.944 443.5,446.5C 443.649,447.552 443.483,448.552 443,449.5C 441.612,448.446 440.112,448.28 438.5,449C 432.713,451.394 427.046,454.06 421.5,457C 420.207,457.49 418.873,457.657 417.5,457.5C 431.316,450.538 445.316,443.871 459.5,437.5 Z"/></g>
<g><path style="opacity:1" fill="#a72419" d="M 343.5,449.5 C 354.8,454.765 366.133,459.932 377.5,465C 378.381,465.708 379.047,466.542 379.5,467.5C 370.201,463.52 360.867,459.52 351.5,455.5C 348.353,453.949 345.687,451.949 343.5,449.5 Z"/></g>
<g><path style="opacity:1" fill="#7e1a10" d="M 417.5,457.5 C 412.891,462.055 407.225,464.721 400.5,465.5C 405.702,461.995 411.369,459.328 417.5,457.5 Z"/></g>
<g><path style="opacity:1" fill="#62120e" d="M 505.5,467.5 C 503.058,469.126 500.391,470.459 497.5,471.5C 499.465,468.988 502.132,467.655 505.5,467.5 Z"/></g>
<g><path style="opacity:1" fill="#801910" d="M 400.5,465.5 C 396.839,468.829 392.506,470.829 387.5,471.5C 387.5,471.167 387.5,470.833 387.5,470.5C 391.723,468.556 396.056,466.889 400.5,465.5 Z"/></g>
<g><path style="opacity:1" fill="#fcfcfc" d="M 192.5,503.5 C 193.889,498.731 194.556,493.731 194.5,488.5C 194.891,482.272 196.224,476.272 198.5,470.5C 214.459,482.565 231.959,491.898 251,498.5C 248.118,540.426 246.118,582.426 245,624.5C 242.406,629.134 238.406,631.467 233,631.5C 223.155,629.075 214.822,624.075 208,616.5C 194.105,598.65 187.272,578.316 187.5,555.5C 188.066,538.033 189.733,520.7 192.5,503.5 Z"/></g>
<g><path style="opacity:1" fill="#c35e52" d="M 682.5,487.5 C 682.5,489.5 682.5,491.5 682.5,493.5C 680.938,493.733 679.605,494.4 678.5,495.5C 678.896,492.279 680.229,489.612 682.5,487.5 Z"/></g>
<g><path style="opacity:1" fill="#aeb3b6" d="M 194.5,488.5 C 194.556,493.731 193.889,498.731 192.5,503.5C 192.444,498.269 193.111,493.269 194.5,488.5 Z"/></g>
<g><path style="opacity:1" fill="#c45c54" d="M 754.5,493.5 C 755.674,494.514 756.34,495.847 756.5,497.5C 756.5,498.167 756.5,498.833 756.5,499.5C 754.926,497.898 754.259,495.898 754.5,493.5 Z"/></g>
<g><path style="opacity:1" fill="#020b11" d="M 707.5,467.5 C 712.167,467.5 716.833,467.5 721.5,467.5C 722.833,467.5 724.167,467.5 725.5,467.5C 728.518,469.4 731.851,470.733 735.5,471.5C 736.29,472.401 737.29,473.068 738.5,473.5C 743.992,477.476 748.325,482.476 751.5,488.5C 751.303,492.622 750.47,496.622 749,500.5C 747.349,503.971 745.516,507.304 743.5,510.5C 740.732,512.087 738.065,513.92 735.5,516C 731.504,517.82 727.504,519.32 723.5,520.5C 718.463,520.587 713.463,520.254 708.5,519.5C 705.5,518.833 702.5,518.167 699.5,517.5C 696.192,514.529 692.859,511.529 689.5,508.5C 686.582,503.735 684.249,498.735 682.5,493.5C 682.5,491.5 682.5,489.5 682.5,487.5C 687.899,478.606 695.566,472.273 705.5,468.5C 706.492,468.672 707.158,468.338 707.5,467.5 Z"/></g>
<g><path style="opacity:1" fill="#bfc1c4" d="M 152.5,497.5 C 152.638,502.414 151.972,507.081 150.5,511.5C 150.532,506.609 151.199,501.943 152.5,497.5 Z"/></g>
<g><path style="opacity:1" fill="#fbfcfc" d="M 526.5,499.5 C 530.508,501.342 533.341,504.342 535,508.5C 539.188,550.735 540.521,593.069 539,635.5C 538.394,638.548 536.894,641.048 534.5,643C 526.454,647.563 520.287,645.729 516,637.5C 515.667,613.833 515.333,590.167 515,566.5C 513.501,547.185 512.334,527.851 511.5,508.5C 514.135,501.678 519.135,498.678 526.5,499.5 Z"/></g>
<g><path style="opacity:1" fill="#f3ada6" d="M 677.5,497.5 C 677.59,500.152 676.924,502.485 675.5,504.5C 675.41,501.848 676.076,499.515 677.5,497.5 Z"/></g>
<g><path style="opacity:1" fill="#f5b8b2" d="M 756.5,497.5 C 758.04,499.838 758.706,502.505 758.5,505.5C 757.833,504.167 757.167,502.833 756.5,501.5C 756.5,500.833 756.5,500.167 756.5,499.5C 756.5,498.833 756.5,498.167 756.5,497.5 Z"/></g>
<g><path style="opacity:1" fill="#a22822" d="M 682.5,493.5 C 684.249,498.735 686.582,503.735 689.5,508.5C 687.771,507.883 686.271,506.883 685,505.5C 683.215,501.695 682.382,497.695 682.5,493.5 Z"/></g>
<g><path style="opacity:1" fill="#d22816" d="M 682.5,493.5 C 682.382,497.695 683.215,501.695 685,505.5C 686.271,506.883 687.771,507.883 689.5,508.5C 691.596,512.932 694.929,515.932 699.5,517.5C 699.804,518.15 700.137,518.817 700.5,519.5C 703.304,520.105 705.971,520.938 708.5,522C 711.5,522.333 714.5,522.667 717.5,523C 707.208,527.457 700.208,534.957 696.5,545.5C 695.583,544.873 694.583,544.539 693.5,544.5C 692.395,543.4 691.062,542.733 689.5,542.5C 687.833,541.5 686.5,540.167 685.5,538.5C 684.833,537.167 683.833,536.167 682.5,535.5C 681.737,533.632 680.737,531.965 679.5,530.5C 679.598,528.447 678.931,526.78 677.5,525.5C 677.741,523.102 677.074,521.102 675.5,519.5C 675.5,514.5 675.5,509.5 675.5,504.5C 676.924,502.485 677.59,500.152 677.5,497.5C 677.328,496.508 677.662,495.842 678.5,495.5C 679.605,494.4 680.938,493.733 682.5,493.5 Z"/></g>
<g><path style="opacity:1" fill="#a52b1e" d="M 756.5,501.5 C 757.167,502.833 757.833,504.167 758.5,505.5C 758.553,511.196 758.22,516.862 757.5,522.5C 756.833,523.5 756.167,524.5 755.5,525.5C 756.323,517.529 756.656,509.529 756.5,501.5 Z"/></g>
<g><path style="opacity:1" fill="#8c1e17" d="M 751.5,488.5 C 753.25,489.659 754.25,491.326 754.5,493.5C 753.25,493.577 752.417,494.244 752,495.5C 749.732,500.339 747.899,505.339 746.5,510.5C 745.5,510.5 744.5,510.5 743.5,510.5C 745.516,507.304 747.349,503.971 749,500.5C 750.47,496.622 751.303,492.622 751.5,488.5 Z"/></g>
<g><path style="opacity:1" fill="#9d2921" d="M 689.5,508.5 C 692.859,511.529 696.192,514.529 699.5,517.5C 694.929,515.932 691.596,512.932 689.5,508.5 Z"/></g>
<g><path style="opacity:1" fill="#7e1812" d="M 743.5,510.5 C 738.605,517.283 731.938,520.95 723.5,521.5C 723.5,521.167 723.5,520.833 723.5,520.5C 727.504,519.32 731.504,517.82 735.5,516C 738.065,513.92 740.732,512.087 743.5,510.5 Z"/></g>
<g><path style="opacity:1" fill="#b01503" d="M 754.5,493.5 C 754.259,495.898 754.926,497.898 756.5,499.5C 756.5,500.167 756.5,500.833 756.5,501.5C 756.656,509.529 756.323,517.529 755.5,525.5C 755.5,526.5 755.5,527.5 755.5,528.5C 752.317,535.02 747.983,540.687 742.5,545.5C 740.088,545.694 739.088,547.027 739.5,549.5C 740.5,549.5 741.5,549.5 742.5,549.5C 745.846,550.515 748.513,552.515 750.5,555.5C 745.243,552.924 740.076,550.924 735,549.5C 734.25,550.126 733.416,550.626 732.5,551C 733.285,552.543 733.285,554.21 732.5,556C 733.937,558.701 734.937,561.534 735.5,564.5C 732.979,560.646 730.312,556.812 727.5,553C 720.087,552.204 712.754,552.37 705.5,553.5C 705.719,552.325 705.386,551.325 704.5,550.5C 701.38,549.642 698.38,548.642 695.5,547.5C 694.833,546.5 694.167,545.5 693.5,544.5C 694.583,544.539 695.583,544.873 696.5,545.5C 700.208,534.957 707.208,527.457 717.5,523C 714.5,522.667 711.5,522.333 708.5,522C 705.971,520.938 703.304,520.105 700.5,519.5C 700.137,518.817 699.804,518.15 699.5,517.5C 702.5,518.167 705.5,518.833 708.5,519.5C 709.263,520.268 710.263,520.768 711.5,521C 715.486,521.499 719.486,521.666 723.5,521.5C 731.938,520.95 738.605,517.283 743.5,510.5C 744.5,510.5 745.5,510.5 746.5,510.5C 747.899,505.339 749.732,500.339 752,495.5C 752.417,494.244 753.25,493.577 754.5,493.5 Z"/></g>
<g><path style="opacity:1" fill="#4f1011" d="M 708.5,519.5 C 713.463,520.254 718.463,520.587 723.5,520.5C 723.5,520.833 723.5,521.167 723.5,521.5C 719.486,521.666 715.486,521.499 711.5,521C 710.263,520.768 709.263,520.268 708.5,519.5 Z"/></g>
<g><path style="opacity:1" fill="#f7cacd" d="M 757.5,522.5 C 757.741,524.898 757.074,526.898 755.5,528.5C 755.5,527.5 755.5,526.5 755.5,525.5C 756.167,524.5 756.833,523.5 757.5,522.5 Z"/></g>
<g><path style="opacity:1" fill="#f8c2bd" d="M 675.5,519.5 C 677.074,521.102 677.741,523.102 677.5,525.5C 675.926,523.898 675.259,521.898 675.5,519.5 Z"/></g>
<g><path style="opacity:1" fill="#f7afa9" d="M 677.5,525.5 C 678.931,526.78 679.598,528.447 679.5,530.5C 678.069,529.22 677.402,527.553 677.5,525.5 Z"/></g>
<g><path style="opacity:1" fill="#010c13" d="M 620.5,413.5 C 620.833,413.5 621.167,413.5 621.5,413.5C 621.013,453.685 623.513,493.685 629,533.5C 629.5,545.495 629.667,557.495 629.5,569.5C 627.707,577.019 626.041,584.686 624.5,592.5C 622.382,598.171 620.048,603.838 617.5,609.5C 615.992,611.181 614.992,613.181 614.5,615.5C 609.426,623.304 604.092,630.971 598.5,638.5C 596.413,639.585 595.08,641.251 594.5,643.5C 591.167,646.167 588.167,649.167 585.5,652.5C 583.251,653.08 581.585,654.413 580.5,656.5C 545.947,683.139 507.28,701.139 464.5,710.5C 461.447,710.111 458.78,710.777 456.5,712.5C 451.609,712.532 446.943,713.199 442.5,714.5C 438.158,714.739 433.824,715.073 429.5,715.5C 427.876,715.64 426.71,714.973 426,713.5C 413.773,715.016 401.44,715.683 389,715.5C 376.609,715.682 364.276,715.016 352,713.5C 347.786,714.827 343.62,714.66 339.5,713C 340.833,712.667 342.167,712.333 343.5,712C 341.616,711.784 339.949,711.117 338.5,710C 335.77,709.272 333.103,709.438 330.5,710.5C 318.499,708.602 306.499,706.435 294.5,704C 295.741,702.513 295.241,701.68 293,701.5C 288.408,702.747 284.742,701.414 282,697.5C 280.301,698.406 278.467,698.739 276.5,698.5C 276.773,696.549 276.107,695.049 274.5,694C 275.38,692.644 275.714,691.144 275.5,689.5C 278.167,689.5 280.833,689.5 283.5,689.5C 283.5,686.833 283.5,684.167 283.5,681.5C 286.167,681.5 288.833,681.5 291.5,681.5C 291.5,684.167 291.5,686.833 291.5,689.5C 294.167,689.5 296.833,689.5 299.5,689.5C 299.5,692.167 299.5,694.833 299.5,697.5C 302.167,697.5 304.833,697.5 307.5,697.5C 307.5,694.833 307.5,692.167 307.5,689.5C 310.167,689.5 312.833,689.5 315.5,689.5C 315.5,686.833 315.5,684.167 315.5,681.5C 320.833,681.5 326.167,681.5 331.5,681.5C 331.5,678.833 331.5,676.167 331.5,673.5C 334.167,673.5 336.833,673.5 339.5,673.5C 339.5,676.167 339.5,678.833 339.5,681.5C 342.167,681.5 344.833,681.5 347.5,681.5C 347.5,682.833 347.5,684.167 347.5,685.5C 355.5,685.5 363.5,685.5 371.5,685.5C 371.5,686.833 371.5,688.167 371.5,689.5C 379.5,689.5 387.5,689.5 395.5,689.5C 395.5,686.833 395.5,684.167 395.5,681.5C 398.167,681.5 400.833,681.5 403.5,681.5C 403.5,684.167 403.5,686.833 403.5,689.5C 406.167,689.5 408.833,689.5 411.5,689.5C 411.5,686.833 411.5,684.167 411.5,681.5C 416.833,681.5 422.167,681.5 427.5,681.5C 427.5,684.167 427.5,686.833 427.5,689.5C 430.167,689.5 432.833,689.5 435.5,689.5C 435.5,686.833 435.5,684.167 435.5,681.5C 446.167,681.5 456.833,681.5 467.5,681.5C 467.5,678.833 467.5,676.167 467.5,673.5C 470.167,673.5 472.833,673.5 475.5,673.5C 475.5,670.833 475.5,668.167 475.5,665.5C 478.833,665.5 482.167,665.5 485.5,665.5C 485.5,668.167 485.5,670.833 485.5,673.5C 487.5,673.5 489.5,673.5 491.5,673.5C 489.833,666.5 492.5,663.833 499.5,665.5C 499.5,662.833 499.5,660.167 499.5,657.5C 502.167,657.5 504.833,657.5 507.5,657.5C 507.5,660.167 507.5,662.833 507.5,665.5C 510.167,665.5 512.833,665.5 515.5,665.5C 515.5,662.833 515.5,660.167 515.5,657.5C 520.833,657.5 526.167,657.5 531.5,657.5C 531.5,654.833 531.5,652.167 531.5,649.5C 529.473,649.662 527.473,649.495 525.5,649C 527.659,648.088 529.825,647.255 532,646.5C 533.901,650.585 535.401,650.418 536.5,646C 538.81,645.503 541.143,645.337 543.5,645.5C 543.5,644.167 543.5,642.833 543.5,641.5C 541.654,641.778 540.32,641.111 539.5,639.5C 540.994,634.974 542.161,630.308 543,625.5C 543.169,618.809 543.669,612.142 544.5,605.5C 545.251,606.376 545.751,607.376 546,608.5C 547.325,603.599 547.825,598.599 547.5,593.5C 550.167,593.5 552.833,593.5 555.5,593.5C 555.5,590.833 555.5,588.167 555.5,585.5C 552.5,585.5 549.5,585.5 546.5,585.5C 546.637,590.937 545.97,596.27 544.5,601.5C 544.167,600 543.833,598.5 543.5,597C 542.454,583.756 543.121,570.589 545.5,557.5C 544.562,554.188 543.729,550.855 543,547.5C 542.016,549.795 541.183,549.461 540.5,546.5C 541.469,544.427 542.135,542.261 542.5,540C 541.886,535.051 540.886,530.217 539.5,525.5C 540.833,525.5 542.167,525.5 543.5,525.5C 543.5,517.5 543.5,509.5 543.5,501.5C 538.053,501.135 532.719,500.135 527.5,498.5C 526.893,498.624 526.56,498.957 526.5,499.5C 519.135,498.678 514.135,501.678 511.5,508.5C 510.677,511.977 510.177,515.644 510,519.5C 509.899,516.3 509.232,513.3 508,510.5C 507.986,512.598 508.153,514.431 508.5,516C 506.832,517.567 506.498,519.234 507.5,521C 504.763,524.383 504.93,527.55 508,530.5C 508.379,545.605 509.545,558.605 511.5,569.5C 510.167,569.5 508.833,569.5 507.5,569.5C 507.5,566.833 507.5,564.167 507.5,561.5C 504.833,561.5 502.167,561.5 499.5,561.5C 499.5,558.833 499.5,556.167 499.5,553.5C 501.833,553.5 504.167,553.5 506.5,553.5C 506.5,550.833 506.5,548.167 506.5,545.5C 498.833,545.5 491.167,545.5 483.5,545.5C 483.5,540.167 483.5,534.833 483.5,529.5C 486.167,529.5 488.833,529.5 491.5,529.5C 491.5,526.833 491.5,524.167 491.5,521.5C 488.833,521.5 486.167,521.5 483.5,521.5C 483.5,518.833 483.5,516.167 483.5,513.5C 480.833,513.5 478.167,513.5 475.5,513.5C 475.5,516.167 475.5,518.833 475.5,521.5C 472.833,521.5 470.167,521.5 467.5,521.5C 467.5,524.167 467.5,526.833 467.5,529.5C 464.833,529.5 462.167,529.5 459.5,529.5C 459.5,524.167 459.5,518.833 459.5,513.5C 462.167,513.5 464.833,513.5 467.5,513.5C 467.5,510.833 467.5,508.167 467.5,505.5C 470.167,505.5 472.833,505.5 475.5,505.5C 475.5,502.833 475.5,500.167 475.5,497.5C 478.167,497.5 480.833,497.5 483.5,497.5C 483.5,494.833 483.5,492.167 483.5,489.5C 488.833,489.5 494.167,489.5 499.5,489.5C 499.5,486.833 499.5,484.167 499.5,481.5C 502.167,481.5 504.833,481.5 507.5,481.5C 507.5,479.167 507.5,476.833 507.5,474.5C 504.32,474.824 503.153,473.49 504,470.5C 506.26,471.673 508.426,473.006 510.5,474.5C 513.373,474.725 516.373,474.391 519.5,473.5C 519.5,471.167 519.5,468.833 519.5,466.5C 534,465.654 548.666,465.32 563.5,465.5C 563.5,468.167 563.5,470.833 563.5,473.5C 565.144,473.286 566.644,473.62 568,474.5C 567.981,472.893 567.815,471.226 567.5,469.5C 571.463,468.509 575.463,467.509 579.5,466.5C 576.914,465.52 574.247,465.187 571.5,465.5C 571.5,462.833 571.5,460.167 571.5,457.5C 574.167,457.5 576.833,457.5 579.5,457.5C 579.5,452.167 579.5,446.833 579.5,441.5C 584.833,441.5 590.167,441.5 595.5,441.5C 595.5,439.5 595.5,437.5 595.5,435.5C 598.932,435.243 602.266,434.576 605.5,433.5C 605.337,431.143 605.503,428.81 606,426.5C 606.75,425.874 607.584,425.374 608.5,425C 606.452,423.774 606.119,422.274 607.5,420.5C 611.944,418.313 616.277,415.979 620.5,413.5 Z"/></g>
<g><path style="opacity:1" fill="#3b474e" d="M 573.5,470.5 C 577.603,469.769 581.103,470.769 584,473.5C 590.409,511.9 592.743,550.567 591,589.5C 590.319,593.518 587.986,595.184 584,594.5C 580.468,595.192 578.135,593.859 577,590.5C 578,552.464 575.834,514.63 570.5,477C 570.884,474.479 571.884,472.312 573.5,470.5 Z"/></g>
<g><path style="opacity:1" fill="#f6cbca" d="M 682.5,535.5 C 683.833,536.167 684.833,537.167 685.5,538.5C 683.5,538.5 682.5,537.5 682.5,535.5 Z"/></g>
<g><path style="opacity:1" fill="#e07d71" d="M 689.5,542.5 C 691.062,542.733 692.395,543.4 693.5,544.5C 694.167,545.5 694.833,546.5 695.5,547.5C 694.329,548.345 692.995,549.011 691.5,549.5C 691.577,548.25 692.244,547.417 693.5,547C 691.959,545.629 690.625,544.129 689.5,542.5 Z"/></g>
<g><path style="opacity:1" fill="#f1beba" d="M 742.5,545.5 C 741.167,546.833 741.167,548.167 742.5,549.5C 741.5,549.5 740.5,549.5 739.5,549.5C 739.088,547.027 740.088,545.694 742.5,545.5 Z"/></g>
<g><path style="opacity:1" fill="#dd7971" d="M 691.5,549.5 C 689.966,551.369 687.966,552.702 685.5,553.5C 686.802,551.178 688.802,549.845 691.5,549.5 Z"/></g>
<g><path style="opacity:1" fill="#df6e62" d="M 685.5,553.5 C 684.089,555.914 682.089,557.581 679.5,558.5C 680.911,556.086 682.911,554.419 685.5,553.5 Z"/></g>
<g><path style="opacity:1" fill="#efa0a1" d="M 751.5,555.5 C 753.167,556.5 754.5,557.833 755.5,559.5C 753.167,559.167 751.833,557.833 751.5,555.5 Z"/></g>
<g><path style="opacity:1" fill="#e49292" d="M 755.5,559.5 C 757.262,560.262 758.262,561.596 758.5,563.5C 756.738,562.738 755.738,561.404 755.5,559.5 Z"/></g>
<g><path style="opacity:1" fill="#db705b" d="M 679.5,558.5 C 678.766,559.708 678.433,561.041 678.5,562.5C 677.5,562.5 676.5,562.5 675.5,562.5C 676.167,560.5 677.5,559.167 679.5,558.5 Z"/></g>
<g><path style="opacity:1" fill="#d35241" d="M 758.5,563.5 C 760.9,565.296 762.567,567.63 763.5,570.5C 759.88,569.548 758.213,567.215 758.5,563.5 Z"/></g>
<g><path style="opacity:1" fill="#ef918c" d="M 671.5,569.5 C 671.573,571.027 670.906,572.027 669.5,572.5C 669.427,570.973 670.094,569.973 671.5,569.5 Z"/></g>
<g><path style="opacity:1" fill="#9ea3a3" d="M 629.5,569.5 C 629.219,577.58 627.553,585.247 624.5,592.5C 626.041,584.686 627.707,577.019 629.5,569.5 Z"/></g>
<g><path style="opacity:1" fill="#d15746" d="M 763.5,570.5 C 766.594,576.565 769.261,582.898 771.5,589.5C 767.488,583.856 764.821,577.523 763.5,570.5 Z"/></g>
<g><path style="opacity:1" fill="#c94132" d="M 675.5,562.5 C 673.72,570.061 670.386,576.728 665.5,582.5C 665.5,582.167 665.5,581.833 665.5,581.5C 666.462,578.261 667.795,575.261 669.5,572.5C 670.906,572.027 671.573,571.027 671.5,569.5C 672.079,566.669 673.412,564.336 675.5,562.5 Z"/></g>
<g><path style="opacity:1" fill="#d82617" d="M 695.5,547.5 C 698.38,548.642 701.38,549.642 704.5,550.5C 705.386,551.325 705.719,552.325 705.5,553.5C 700.458,561.08 695.958,569.08 692,577.5C 690.486,582.243 688.986,586.91 687.5,591.5C 686.542,591.953 685.708,592.619 685,593.5C 683.07,598.671 681.903,604.005 681.5,609.5C 681.5,610.167 681.5,610.833 681.5,611.5C 677.985,616.854 675.985,622.854 675.5,629.5C 673.821,636.182 672.155,642.849 670.5,649.5C 669.918,652.313 668.918,654.98 667.5,657.5C 664.947,664.813 663.28,672.48 662.5,680.5C 662.037,683.33 661.371,685.997 660.5,688.5C 659.5,688.833 658.833,689.5 658.5,690.5C 658.167,690.5 657.833,690.5 657.5,690.5C 655.08,690.292 652.747,690.626 650.5,691.5C 648.941,690.926 647.441,690.26 646,689.5C 645.749,680.48 645.249,671.48 644.5,662.5C 646.219,657.716 647.886,652.883 649.5,648C 648.483,645.213 648.316,642.38 649,639.5C 651.685,632.729 653.518,625.729 654.5,618.5C 654.5,616.833 654.5,615.167 654.5,613.5C 657.14,608.915 658.806,603.915 659.5,598.5C 659.5,598.167 659.5,597.833 659.5,597.5C 662.253,592.928 664.253,587.928 665.5,582.5C 670.386,576.728 673.72,570.061 675.5,562.5C 676.5,562.5 677.5,562.5 678.5,562.5C 678.433,561.041 678.766,559.708 679.5,558.5C 682.089,557.581 684.089,555.914 685.5,553.5C 687.966,552.702 689.966,551.369 691.5,549.5C 692.995,549.011 694.329,548.345 695.5,547.5 Z"/></g>
<g><path style="opacity:1" fill="#a7acb1" d="M 150.5,587.5 C 151.924,589.515 152.59,591.848 152.5,594.5C 151.076,592.485 150.41,590.152 150.5,587.5 Z"/></g>
<g><path style="opacity:1" fill="#f1b2ac" d="M 665.5,581.5 C 665.5,581.833 665.5,582.167 665.5,582.5C 664.253,587.928 662.253,592.928 659.5,597.5C 660.418,591.681 662.418,586.347 665.5,581.5 Z"/></g>
<g><path style="opacity:1" fill="#b72f23" d="M 740.5,575.5 C 741.978,577.645 743.312,579.979 744.5,582.5C 745.651,583.731 746.817,583.731 748,582.5C 746.721,584.231 746.388,586.897 747,590.5C 752.525,602.929 756.359,615.929 758.5,629.5C 752.73,611.523 746.73,593.523 740.5,575.5 Z"/></g>
<g><path style="opacity:1" fill="#ea9c92" d="M 773.5,596.5 C 776.407,602.099 778.407,608.099 779.5,614.5C 776.527,608.915 774.527,602.915 773.5,596.5 Z"/></g>
<g><path style="opacity:1" fill="#e89690" d="M 659.5,598.5 C 658.806,603.915 657.14,608.915 654.5,613.5C 655.589,608.233 657.256,603.233 659.5,598.5 Z"/></g>
<g><path style="opacity:1" fill="#ac2c24" d="M 687.5,591.5 C 685.93,597.743 683.93,603.743 681.5,609.5C 681.903,604.005 683.07,598.671 685,593.5C 685.708,592.619 686.542,591.953 687.5,591.5 Z"/></g>
<g><path style="opacity:1" fill="#000c12" d="M 435.5,561.5 C 440.833,561.5 446.167,561.5 451.5,561.5C 451.5,564.167 451.5,566.833 451.5,569.5C 452.833,569.5 454.167,569.5 455.5,569.5C 455.5,570.833 455.5,572.167 455.5,573.5C 459.5,573.5 463.5,573.5 467.5,573.5C 467.5,577.5 467.5,581.5 467.5,585.5C 470.167,585.5 472.833,585.5 475.5,585.5C 475.5,582.833 475.5,580.167 475.5,577.5C 478.167,577.5 480.833,577.5 483.5,577.5C 483.5,580.167 483.5,582.833 483.5,585.5C 486.167,585.5 488.833,585.5 491.5,585.5C 491.5,582.833 491.5,580.167 491.5,577.5C 494.167,577.5 496.833,577.5 499.5,577.5C 499.5,580.167 499.5,582.833 499.5,585.5C 501.5,585.5 503.5,585.5 505.5,585.5C 505.5,588.167 505.5,590.833 505.5,593.5C 503.5,593.5 501.5,593.5 499.5,593.5C 499.5,598.833 499.5,604.167 499.5,609.5C 496.833,609.5 494.167,609.5 491.5,609.5C 491.5,606.833 491.5,604.167 491.5,601.5C 488.833,601.5 486.167,601.5 483.5,601.5C 483.5,604.167 483.5,606.833 483.5,609.5C 480.833,609.5 478.167,609.5 475.5,609.5C 475.5,606.833 475.5,604.167 475.5,601.5C 472.833,601.5 470.167,601.5 467.5,601.5C 467.5,604.167 467.5,606.833 467.5,609.5C 462.167,609.5 456.833,609.5 451.5,609.5C 451.5,616.167 451.5,622.833 451.5,629.5C 450.167,629.5 448.833,629.5 447.5,629.5C 447.5,630.833 447.5,632.167 447.5,633.5C 443.5,633.5 439.5,633.5 435.5,633.5C 435.5,630.833 435.5,628.167 435.5,625.5C 432.833,625.5 430.167,625.5 427.5,625.5C 427.5,628.167 427.5,630.833 427.5,633.5C 424.833,633.5 422.167,633.5 419.5,633.5C 419.5,630.833 419.5,628.167 419.5,625.5C 416.833,625.5 414.167,625.5 411.5,625.5C 411.5,630.833 411.5,636.167 411.5,641.5C 408.833,641.5 406.167,641.5 403.5,641.5C 403.663,643.857 403.497,646.19 403,648.5C 401.301,649.406 399.467,649.739 397.5,649.5C 397.5,652.167 397.5,654.833 397.5,657.5C 388.833,657.5 380.167,657.5 371.5,657.5C 371.5,660.167 371.5,662.833 371.5,665.5C 369.143,665.663 366.81,665.497 364.5,665C 363.594,663.301 363.261,661.467 363.5,659.5C 358.167,658.833 352.833,658.167 347.5,657.5C 347.5,654.833 347.5,652.167 347.5,649.5C 344.833,649.5 342.167,649.5 339.5,649.5C 339.5,652.167 339.5,654.833 339.5,657.5C 334.167,657.5 328.833,657.5 323.5,657.5C 323.5,646.833 323.5,636.167 323.5,625.5C 318.167,626.167 312.833,626.833 307.5,627.5C 307.739,629.467 307.406,631.301 306.5,633C 304.19,633.497 301.857,633.663 299.5,633.5C 299.5,630.833 299.5,628.167 299.5,625.5C 296.833,625.5 294.167,625.5 291.5,625.5C 291.5,614.833 291.5,604.167 291.5,593.5C 294.167,593.5 296.833,593.5 299.5,593.5C 299.5,590.833 299.5,588.167 299.5,585.5C 304.833,585.5 310.167,585.5 315.5,585.5C 315.5,582.833 315.5,580.167 315.5,577.5C 318.167,577.5 320.833,577.5 323.5,577.5C 323.5,582.833 323.5,588.167 323.5,593.5C 320.833,593.5 318.167,593.5 315.5,593.5C 315.5,596.167 315.5,598.833 315.5,601.5C 318.167,601.5 320.833,601.5 323.5,601.5C 323.5,604.167 323.5,606.833 323.5,609.5C 326.167,609.5 328.833,609.5 331.5,609.5C 331.5,612.167 331.5,614.833 331.5,617.5C 334.167,617.5 336.833,617.5 339.5,617.5C 339.5,614.833 339.5,612.167 339.5,609.5C 342.167,609.5 344.833,609.5 347.5,609.5C 347.5,614.833 347.5,620.167 347.5,625.5C 352.833,625.5 358.167,625.5 363.5,625.5C 363.5,628.167 363.5,630.833 363.5,633.5C 368.833,633.5 374.167,633.5 379.5,633.5C 379.5,636.167 379.5,638.833 379.5,641.5C 382.167,641.5 384.833,641.5 387.5,641.5C 387.5,638.833 387.5,636.167 387.5,633.5C 390.167,633.5 392.833,633.5 395.5,633.5C 395.5,630.833 395.5,628.167 395.5,625.5C 398.167,625.5 400.833,625.5 403.5,625.5C 403.5,617.5 403.5,609.5 403.5,601.5C 398.167,601.5 392.833,601.5 387.5,601.5C 387.5,598.833 387.5,596.167 387.5,593.5C 382.167,593.5 376.833,593.5 371.5,593.5C 371.5,590.833 371.5,588.167 371.5,585.5C 376.833,585.5 382.167,585.5 387.5,585.5C 387.5,582.833 387.5,580.167 387.5,577.5C 392.833,577.5 398.167,577.5 403.5,577.5C 403.5,574.833 403.5,572.167 403.5,569.5C 414.167,569.5 424.833,569.5 435.5,569.5C 435.5,566.833 435.5,564.167 435.5,561.5 Z"/></g>
<g><path style="opacity:1" fill="#a7acb0" d="M 617.5,609.5 C 617.539,612.089 616.539,614.089 614.5,615.5C 614.992,613.181 615.992,611.181 617.5,609.5 Z"/></g>
<g><path style="opacity:1" fill="#030b12" d="M 735.5,564.5 C 736.908,568.313 738.574,571.98 740.5,575.5C 746.73,593.523 752.73,611.523 758.5,629.5C 759.901,636.456 761.901,643.123 764.5,649.5C 765.883,657.021 767.55,664.354 769.5,671.5C 769.5,672.167 769.5,672.833 769.5,673.5C 770.835,678.85 772.168,684.183 773.5,689.5C 773.916,692.406 774.582,695.239 775.5,698C 773.678,707.583 768.011,711.083 758.5,708.5C 758.5,707.833 758.167,707.5 757.5,707.5C 757.167,706.5 756.5,705.833 755.5,705.5C 755.327,696.787 754.66,688.12 753.5,679.5C 753.771,674.566 753.104,669.9 751.5,665.5C 751.5,664.833 751.5,664.167 751.5,663.5C 749.748,653.572 744.081,650.072 734.5,653C 732.622,654.543 731.122,656.376 730,658.5C 729.34,665.056 729.84,671.39 731.5,677.5C 731.5,681.5 731.5,685.5 731.5,689.5C 732.166,698.485 732.499,707.485 732.5,716.5C 731.253,721.49 728.253,724.99 723.5,727C 714.503,729.329 707.837,726.495 703.5,718.5C 702.962,716.883 702.629,715.216 702.5,713.5C 702.417,702.484 702.751,691.484 703.5,680.5C 703.5,678.5 703.5,676.5 703.5,674.5C 704.652,669.015 704.818,663.349 704,657.5C 703.292,656.619 702.458,655.953 701.5,655.5C 700.833,655.167 700.167,654.833 699.5,654.5C 697.969,652.32 695.802,651.32 693,651.5C 690.992,651.307 689.492,651.974 688.5,653.5C 685.151,654.684 682.985,657.017 682,660.5C 681.501,664.821 681.334,669.154 681.5,673.5C 679.896,677.9 679.229,682.566 679.5,687.5C 679.5,688.167 679.5,688.833 679.5,689.5C 677.864,693.21 677.198,697.21 677.5,701.5C 677.5,703.167 677.5,704.833 677.5,706.5C 676.29,706.932 675.29,707.599 674.5,708.5C 669.205,710.617 664.705,709.617 661,705.5C 659.621,700.964 659.121,696.297 659.5,691.5C 660.404,690.791 660.737,689.791 660.5,688.5C 661.371,685.997 662.037,683.33 662.5,680.5C 663.131,678.025 664.131,675.691 665.5,673.5C 666.652,668.468 668.152,663.468 670,658.5C 670.498,655.518 670.665,652.518 670.5,649.5C 672.155,642.849 673.821,636.182 675.5,629.5C 678.068,623.796 680.068,617.796 681.5,611.5C 681.5,610.833 681.5,610.167 681.5,609.5C 683.93,603.743 685.93,597.743 687.5,591.5C 688.986,586.91 690.486,582.243 692,577.5C 695.958,569.08 700.458,561.08 705.5,553.5C 712.754,552.37 720.087,552.204 727.5,553C 730.312,556.812 732.979,560.646 735.5,564.5 Z"/></g>
<g><path style="opacity:1" fill="#ef9e99" d="M 654.5,613.5 C 654.5,615.167 654.5,616.833 654.5,618.5C 653.833,619.5 653.167,620.5 652.5,621.5C 652.565,618.572 653.232,615.905 654.5,613.5 Z"/></g>
<g><path style="opacity:1" fill="#972a22" d="M 681.5,611.5 C 680.068,617.796 678.068,623.796 675.5,629.5C 675.985,622.854 677.985,616.854 681.5,611.5 Z"/></g>
<g><path style="opacity:1" fill="#fbbbb2" d="M 780.5,617.5 C 781.738,619.214 782.405,621.214 782.5,623.5C 780.926,621.898 780.259,619.898 780.5,617.5 Z"/></g>
<g><path style="opacity:1" fill="#f3a298" d="M 782.5,623.5 C 783.612,625.599 784.279,627.933 784.5,630.5C 782.837,628.562 782.171,626.228 782.5,623.5 Z"/></g>
<g><path style="opacity:1" fill="#efaaa6" d="M 651.5,625.5 C 651.139,629.915 649.806,633.915 647.5,637.5C 647.926,633.098 649.26,629.098 651.5,625.5 Z"/></g>
<g><path style="opacity:1" fill="#a72e23" d="M 758.5,629.5 C 760.204,633.746 762.037,638.079 764,642.5C 764.497,644.81 764.663,647.143 764.5,649.5C 761.901,643.123 759.901,636.456 758.5,629.5 Z"/></g>
<g><path style="opacity:1" fill="#e88e86" d="M 785.5,634.5 C 786.924,636.515 787.59,638.848 787.5,641.5C 786.076,639.485 785.41,637.152 785.5,634.5 Z"/></g>
<g><path style="opacity:1" fill="#afb3b6" d="M 598.5,638.5 C 597.92,640.749 596.587,642.415 594.5,643.5C 595.08,641.251 596.413,639.585 598.5,638.5 Z"/></g>
<g><path style="opacity:1" fill="#f0b1ad" d="M 647.5,637.5 C 647.706,640.495 647.04,643.162 645.5,645.5C 645.565,642.572 646.232,639.905 647.5,637.5 Z"/></g>
<g><path style="opacity:1" fill="#fcd7d0" d="M 787.5,641.5 C 789.104,642.287 789.771,643.62 789.5,645.5C 788.326,644.486 787.66,643.153 787.5,641.5 Z"/></g>
<g><path style="opacity:1" fill="#f4bbb1" d="M 645.5,645.5 C 645.741,647.898 645.074,649.898 643.5,651.5C 643.595,649.214 644.262,647.214 645.5,645.5 Z"/></g>
<g><path style="opacity:1" fill="#f5b7ab" d="M 789.5,646.5 C 790.924,648.515 791.59,650.848 791.5,653.5C 790.076,651.485 789.41,649.152 789.5,646.5 Z"/></g>
<g><path style="opacity:1" fill="#a12b24" d="M 699.5,654.5 C 695.881,653.756 692.215,653.423 688.5,653.5C 689.492,651.974 690.992,651.307 693,651.5C 695.802,651.32 697.969,652.32 699.5,654.5 Z"/></g>
<g><path style="opacity:1" fill="#972f26" d="M 751.5,663.5 C 751.167,663.5 750.833,663.5 750.5,663.5C 748.407,654.62 743.074,651.787 734.5,655C 732.393,656.264 731.393,658.097 731.5,660.5C 730.996,665.98 730.996,671.647 731.5,677.5C 729.84,671.39 729.34,665.056 730,658.5C 731.122,656.376 732.622,654.543 734.5,653C 744.081,650.072 749.748,653.572 751.5,663.5 Z"/></g>
<g><path style="opacity:1" fill="#c5c6ca" d="M 585.5,652.5 C 584.415,654.587 582.749,655.92 580.5,656.5C 581.585,654.413 583.251,653.08 585.5,652.5 Z"/></g>
<g><path style="opacity:1" fill="#f1aaa3" d="M 643.5,653.5 C 643.277,657.162 642.277,660.495 640.5,663.5C 640.59,659.786 641.59,656.452 643.5,653.5 Z"/></g>
<g><path style="opacity:1" fill="#a4281f" d="M 764.5,649.5 C 766.062,651.372 767.062,653.705 767.5,656.5C 768.407,661.477 769.073,666.477 769.5,671.5C 767.55,664.354 765.883,657.021 764.5,649.5 Z"/></g>
<g><path style="opacity:1" fill="#d72616" d="M 750.5,555.5 C 750.833,555.5 751.167,555.5 751.5,555.5C 751.833,557.833 753.167,559.167 755.5,559.5C 755.738,561.404 756.738,562.738 758.5,563.5C 758.213,567.215 759.88,569.548 763.5,570.5C 764.821,577.523 767.488,583.856 771.5,589.5C 772.449,591.737 773.116,594.071 773.5,596.5C 774.527,602.915 776.527,608.915 779.5,614.5C 779.263,615.791 779.596,616.791 780.5,617.5C 780.259,619.898 780.926,621.898 782.5,623.5C 782.171,626.228 782.837,628.562 784.5,630.5C 785.434,631.568 785.768,632.901 785.5,634.5C 785.41,637.152 786.076,639.485 787.5,641.5C 787.66,643.153 788.326,644.486 789.5,645.5C 789.5,645.833 789.5,646.167 789.5,646.5C 789.41,649.152 790.076,651.485 791.5,653.5C 791.898,657.761 792.898,661.761 794.5,665.5C 795.241,671.471 795.575,677.471 795.5,683.5C 791.975,690.596 786.308,693.429 778.5,692C 777.058,691.623 776.058,690.79 775.5,689.5C 773.323,685.164 771.99,680.498 771.5,675.5C 771.253,674.287 770.586,673.62 769.5,673.5C 769.5,672.833 769.5,672.167 769.5,671.5C 769.073,666.477 768.407,661.477 767.5,656.5C 767.062,653.705 766.062,651.372 764.5,649.5C 764.663,647.143 764.497,644.81 764,642.5C 762.037,638.079 760.204,633.746 758.5,629.5C 756.359,615.929 752.525,602.929 747,590.5C 746.388,586.897 746.721,584.231 748,582.5C 746.817,583.731 745.651,583.731 744.5,582.5C 743.312,579.979 741.978,577.645 740.5,575.5C 738.574,571.98 736.908,568.313 735.5,564.5C 734.937,561.534 733.937,558.701 732.5,556C 733.285,554.21 733.285,552.543 732.5,551C 733.416,550.626 734.25,550.126 735,549.5C 740.076,550.924 745.243,552.924 750.5,555.5 Z"/></g>
<g><path style="opacity:1" fill="#cc2d20" d="M 654.5,618.5 C 653.518,625.729 651.685,632.729 649,639.5C 648.316,642.38 648.483,645.213 649.5,648C 647.886,652.883 646.219,657.716 644.5,662.5C 645.249,671.48 645.749,680.48 646,689.5C 647.441,690.26 648.941,690.926 650.5,691.5C 652.747,690.626 655.08,690.292 657.5,690.5C 657.082,691.222 656.416,691.722 655.5,692C 652.518,692.498 649.518,692.665 646.5,692.5C 645.415,690.413 643.749,689.08 641.5,688.5C 641.573,686.973 640.906,685.973 639.5,685.5C 639.5,685.167 639.5,684.833 639.5,684.5C 638.312,678.848 638.312,673.181 639.5,667.5C 640.434,666.432 640.768,665.099 640.5,663.5C 642.277,660.495 643.277,657.162 643.5,653.5C 643.5,652.833 643.5,652.167 643.5,651.5C 645.074,649.898 645.741,647.898 645.5,645.5C 647.04,643.162 647.706,640.495 647.5,637.5C 649.806,633.915 651.139,629.915 651.5,625.5C 651.232,623.901 651.566,622.568 652.5,621.5C 653.167,620.5 653.833,619.5 654.5,618.5 Z"/></g>
<g><path style="opacity:1" fill="#ba2f23" d="M 667.5,657.5 C 666.355,662.704 665.689,668.037 665.5,673.5C 664.131,675.691 663.131,678.025 662.5,680.5C 663.28,672.48 664.947,664.813 667.5,657.5 Z"/></g>
<g><path style="opacity:1" fill="#dc2712" d="M 750.5,663.5 C 751.236,675.829 751.903,688.162 752.5,700.5C 750.641,700.539 749.308,699.706 748.5,698C 745.518,697.502 742.518,697.335 739.5,697.5C 739.5,696.167 739.5,694.833 739.5,693.5C 737.446,693.365 735.779,694.032 734.5,695.5C 733.17,683.868 732.17,672.201 731.5,660.5C 731.393,658.097 732.393,656.264 734.5,655C 743.074,651.787 748.407,654.62 750.5,663.5 Z"/></g>
<g><path style="opacity:1" fill="#2c0b08" d="M 670.5,649.5 C 670.665,652.518 670.498,655.518 670,658.5C 668.152,663.468 666.652,668.468 665.5,673.5C 665.689,668.037 666.355,662.704 667.5,657.5C 668.918,654.98 669.918,652.313 670.5,649.5 Z"/></g>
<g><path style="opacity:1" fill="#4d0d10" d="M 701.5,655.5 C 702.458,655.953 703.292,656.619 704,657.5C 704.818,663.349 704.652,669.015 703.5,674.5C 704.031,667.922 703.365,661.588 701.5,655.5 Z"/></g>
<g><path style="opacity:1" fill="#8b8b8c" d="M 131.5,669.5 C 133.192,671.205 134.525,673.205 135.5,675.5C 134.833,675.5 134.5,675.833 134.5,676.5C 131.864,673.69 129.364,670.69 127,667.5C 126.301,665.926 126.635,664.593 128,663.5C 129.431,665.364 130.597,667.364 131.5,669.5 Z"/></g>
<g><path style="opacity:1" fill="#a3271e" d="M 688.5,653.5 C 687.542,654.962 686.376,656.295 685,657.5C 684.953,663.206 683.786,668.539 681.5,673.5C 681.334,669.154 681.501,664.821 682,660.5C 682.985,657.017 685.151,654.684 688.5,653.5 Z"/></g>
<g><path style="opacity:1" fill="#6e1917" d="M 751.5,665.5 C 753.104,669.9 753.771,674.566 753.5,679.5C 752.028,675.081 751.362,670.414 751.5,665.5 Z"/></g>
<g><path style="opacity:1" fill="#d72614" d="M 688.5,653.5 C 692.215,653.423 695.881,653.756 699.5,654.5C 700.167,654.833 700.833,655.167 701.5,655.5C 703.365,661.588 704.031,667.922 703.5,674.5C 703.5,676.5 703.5,678.5 703.5,680.5C 702.778,680.918 702.278,681.584 702,682.5C 701.5,692.828 701.334,703.161 701.5,713.5C 701.296,715.685 700.63,717.685 699.5,719.5C 698.5,720.833 697.5,722.167 696.5,723.5C 693.193,724.051 689.86,724.384 686.5,724.5C 683.933,723.283 681.6,721.616 679.5,719.5C 679.068,718.29 678.401,717.29 677.5,716.5C 677.5,713.167 677.5,709.833 677.5,706.5C 677.5,704.833 677.5,703.167 677.5,701.5C 679.136,697.79 679.802,693.79 679.5,689.5C 679.5,688.833 679.5,688.167 679.5,687.5C 681.104,683.1 681.771,678.434 681.5,673.5C 683.786,668.539 684.953,663.206 685,657.5C 686.376,656.295 687.542,654.962 688.5,653.5 Z"/></g>
<g><path style="opacity:1" fill="#9b9d9d" d="M 135.5,675.5 C 136.488,676.795 137.488,678.128 138.5,679.5C 137.833,679.5 137.5,679.833 137.5,680.5C 136.512,679.205 135.512,677.872 134.5,676.5C 135.167,676.5 135.5,676.167 135.5,675.5 Z"/></g>
<g><path style="opacity:1" fill="#e29089" d="M 794.5,665.5 C 795.97,668.886 796.637,672.553 796.5,676.5C 796.497,679.025 796.163,681.359 795.5,683.5C 795.575,677.471 795.241,671.471 794.5,665.5 Z"/></g>
<g><path style="opacity:1" fill="#aa3c2f" d="M 769.5,673.5 C 770.586,673.62 771.253,674.287 771.5,675.5C 771.99,680.498 773.323,685.164 775.5,689.5C 774.833,689.5 774.167,689.5 773.5,689.5C 772.168,684.183 770.835,678.85 769.5,673.5 Z"/></g>
<g><path style="opacity:1" fill="#fbd0c9" d="M 639.5,667.5 C 638.312,673.181 638.312,678.848 639.5,684.5C 637.967,682.366 637.3,679.866 637.5,677C 637.421,673.549 638.087,670.382 639.5,667.5 Z"/></g>
<g><path style="opacity:1" fill="#fbcfca" d="M 639.5,685.5 C 640.906,685.973 641.573,686.973 641.5,688.5C 640.094,688.027 639.427,687.027 639.5,685.5 Z"/></g>
<g><path style="opacity:1" fill="#99271e" d="M 681.5,673.5 C 681.771,678.434 681.104,683.1 679.5,687.5C 679.229,682.566 679.896,677.9 681.5,673.5 Z"/></g>
<g><path style="opacity:1" fill="#e89d91" d="M 641.5,688.5 C 643.749,689.08 645.415,690.413 646.5,692.5C 644.251,691.92 642.585,690.587 641.5,688.5 Z"/></g>
<g><path style="opacity:1" fill="#e9bfbc" d="M 660.5,688.5 C 660.737,689.791 660.404,690.791 659.5,691.5C 659.5,690.833 659.167,690.5 658.5,690.5C 658.833,689.5 659.5,688.833 660.5,688.5 Z"/></g>
<g><path style="opacity:1" fill="#641514" d="M 703.5,680.5 C 702.751,691.484 702.417,702.484 702.5,713.5C 702.167,713.5 701.833,713.5 701.5,713.5C 701.334,703.161 701.5,692.828 702,682.5C 702.278,681.584 702.778,680.918 703.5,680.5 Z"/></g>
<g><path style="opacity:1" fill="#d52615" d="M 750.5,663.5 C 750.833,663.5 751.167,663.5 751.5,663.5C 751.5,664.167 751.5,664.833 751.5,665.5C 751.362,670.414 752.028,675.081 753.5,679.5C 754.66,688.12 755.327,696.787 755.5,705.5C 755.5,709.5 755.5,713.5 755.5,717.5C 755.167,718.167 754.833,718.833 754.5,719.5C 753.167,720.167 752.167,721.167 751.5,722.5C 750.29,722.932 749.29,723.599 748.5,724.5C 745.098,724.658 741.764,724.324 738.5,723.5C 736.457,722.421 735.124,720.754 734.5,718.5C 734.5,710.833 734.5,703.167 734.5,695.5C 735.779,694.032 737.446,693.365 739.5,693.5C 739.5,694.833 739.5,696.167 739.5,697.5C 742.518,697.335 745.518,697.502 748.5,698C 749.308,699.706 750.641,700.539 752.5,700.5C 751.903,688.162 751.236,675.829 750.5,663.5 Z"/></g>
<g><path style="opacity:1" fill="#c42f1e" d="M 731.5,660.5 C 732.17,672.201 733.17,683.868 734.5,695.5C 734.5,703.167 734.5,710.833 734.5,718.5C 733.662,718.158 733.328,717.492 733.5,716.5C 733.877,707.273 733.211,698.273 731.5,689.5C 731.5,685.5 731.5,681.5 731.5,677.5C 730.996,671.647 730.996,665.98 731.5,660.5 Z"/></g>
<g><path style="opacity:1" fill="#791b16" d="M 679.5,689.5 C 679.802,693.79 679.136,697.79 677.5,701.5C 677.198,697.21 677.864,693.21 679.5,689.5 Z"/></g>
<g><path style="opacity:1" fill="#781f18" d="M 731.5,689.5 C 733.211,698.273 733.877,707.273 733.5,716.5C 733.167,716.5 732.833,716.5 732.5,716.5C 732.499,707.485 732.166,698.485 731.5,689.5 Z"/></g>
<g><path style="opacity:1" fill="#8e9296" d="M 297.5,706.5 C 301.761,706.898 305.761,707.898 309.5,709.5C 305.163,709.416 301.163,708.416 297.5,706.5 Z"/></g>
<g><path style="opacity:1" fill="#f4c9cb" d="M 677.5,706.5 C 677.5,709.833 677.5,713.167 677.5,716.5C 677.098,713.523 676.098,710.857 674.5,708.5C 675.29,707.599 676.29,706.932 677.5,706.5 Z"/></g>
<g><path style="opacity:1" fill="#bf564b" d="M 755.5,705.5 C 756.5,705.833 757.167,706.5 757.5,707.5C 756.527,709.948 756.194,712.615 756.5,715.5C 756.672,716.492 756.338,717.158 755.5,717.5C 755.5,713.5 755.5,709.5 755.5,705.5 Z"/></g>
<g><path style="opacity:1" fill="#fcd9d3" d="M 757.5,707.5 C 758.167,707.5 758.5,707.833 758.5,708.5C 757.833,710.833 757.167,713.167 756.5,715.5C 756.194,712.615 756.527,709.948 757.5,707.5 Z"/></g>
<g><path style="opacity:1" fill="#94979b" d="M 464.5,710.5 C 462.039,711.531 459.373,712.198 456.5,712.5C 458.78,710.777 461.447,710.111 464.5,710.5 Z"/></g>
<g><path style="opacity:1" fill="#a5acbb" d="M 442.5,714.5 C 438.433,716.054 434.1,716.72 429.5,716.5C 429.5,716.167 429.5,715.833 429.5,715.5C 433.824,715.073 438.158,714.739 442.5,714.5 Z"/></g>
<g><path style="opacity:1" fill="#d3b5b6" d="M 701.5,713.5 C 701.833,713.5 702.167,713.5 702.5,713.5C 702.629,715.216 702.962,716.883 703.5,718.5C 702.038,717.529 700.705,717.862 699.5,719.5C 700.63,717.685 701.296,715.685 701.5,713.5 Z"/></g>
<g><path style="opacity:1" fill="#c5c7cc" d="M 357.5,717.5 C 373.491,718.166 389.491,718.5 405.5,718.5C 400.01,719.166 394.343,719.499 388.5,719.5C 377.966,719.558 367.633,718.892 357.5,717.5 Z"/></g>
<g><path style="opacity:1" fill="#f1bcbc" d="M 679.5,719.5 C 681.6,721.616 683.933,723.283 686.5,724.5C 682.763,724.759 680.43,723.093 679.5,719.5 Z"/></g>
<g><path style="opacity:1" fill="#edbcc6" d="M 754.5,719.5 C 754.5,721.5 753.5,722.5 751.5,722.5C 752.167,721.167 753.167,720.167 754.5,719.5 Z"/></g>
<g><path style="opacity:1" fill="#ffd5d0" d="M 751.5,722.5 C 751.179,724.048 750.179,724.715 748.5,724.5C 749.29,723.599 750.29,722.932 751.5,722.5 Z"/></g>
<g><path style="opacity:1" fill="#f7babd" d="M 696.5,723.5 C 693.292,725.531 689.959,725.865 686.5,724.5C 689.86,724.384 693.193,724.051 696.5,723.5 Z"/></g>
<g><path style="opacity:1" fill="#fec3c1" d="M 738.5,723.5 C 741.764,724.324 745.098,724.658 748.5,724.5C 745.696,725.638 742.696,725.805 739.5,725C 738.944,724.617 738.611,724.117 738.5,723.5 Z"/></g>
</svg>
